/* XPM */
static char *_0[] = {
/* columns rows colors chars-per-pixel */
"64 64 181 2 ",
"   c #070707",
".  c #090909",
"X  c #0C0C0C",
"o  c #0D0D0D",
"O  c #0E0E0E",
"+  c #0F0F0F",
"@  c #101010",
"#  c #111111",
"$  c #121212",
"%  c #131313",
"&  c #141414",
"*  c #151515",
"=  c #161616",
"-  c #171717",
";  c #181818",
":  c #191919",
">  c #1A1A1A",
",  c #1B1B1B",
"<  c #1C1C1C",
"1  c #1D1D1D",
"2  c #1E1E1E",
"3  c #1F1F1F",
"4  c #202020",
"5  c #212121",
"6  c #222222",
"7  c #232323",
"8  c #242424",
"9  c #252525",
"0  c #262626",
"q  c #272727",
"w  c #282828",
"e  c #292929",
"r  c #2A2A2A",
"t  c #2B2B2B",
"y  c #2C2C2C",
"u  c #2D2D2D",
"i  c #2E2E2E",
"p  c #2F2F2F",
"a  c #303030",
"s  c #313131",
"d  c #323232",
"f  c #333333",
"g  c #343434",
"h  c #353535",
"j  c #363636",
"k  c #373737",
"l  c #383838",
"z  c #393939",
"x  c #3A3A3A",
"c  c gray23",
"v  c #3C3C3C",
"b  c #3D3D3D",
"n  c #3E3E3E",
"m  c #3F3F3F",
"M  c #404040",
"N  c #414141",
"B  c #424242",
"V  c #434343",
"C  c #444444",
"Z  c #454545",
"A  c #464646",
"S  c #474747",
"D  c #484848",
"F  c #494949",
"G  c #4A4A4A",
"H  c #4B4B4B",
"J  c #4C4C4C",
"K  c #4D4D4D",
"L  c #4E4E4E",
"P  c #4F4F4F",
"I  c #505050",
"U  c #515151",
"Y  c #525252",
"T  c #535353",
"R  c #545454",
"E  c #555555",
"W  c #565656",
"Q  c #575757",
"!  c #585858",
"~  c #595959",
"^  c #5A5A5A",
"/  c #5B5B5B",
"(  c #5C5C5C",
")  c #5D5D5D",
"_  c #5E5E5E",
"`  c #5F5F5F",
"'  c #606060",
"]  c #616161",
"[  c #626262",
"{  c #636363",
"}  c #646464",
"|  c #656565",
" . c #666666",
".. c #676767",
"X. c #686868",
"o. c #696969",
"O. c #6A6A6A",
"+. c #6B6B6B",
"@. c #6C6C6C",
"#. c #6D6D6D",
"$. c #6E6E6E",
"%. c #6F6F6F",
"&. c #707070",
"*. c #717171",
"=. c #727272",
"-. c #737373",
";. c #747474",
":. c #757575",
">. c #767676",
",. c #777777",
"<. c #787878",
"1. c #797979",
"2. c gray48",
"3. c #7B7B7B",
"4. c #7C7C7C",
"5. c #7D7D7D",
"6. c #7E7E7E",
"7. c #7F7F7F",
"8. c #808080",
"9. c #818181",
"0. c #828282",
"q. c #838383",
"w. c #848484",
"e. c #858585",
"r. c #868686",
"t. c #878787",
"y. c #888888",
"u. c #898989",
"i. c #8A8A8A",
"p. c #8B8B8B",
"a. c #8C8C8C",
"s. c #8D8D8D",
"d. c #8E8E8E",
"f. c #8F8F8F",
"g. c #909090",
"h. c #919191",
"j. c #929292",
"k. c #939393",
"l. c #949494",
"z. c #959595",
"x. c #969696",
"c. c #979797",
"v. c #989898",
"b. c #999999",
"n. c #9A9A9A",
"m. c #9B9B9B",
"M. c #9C9C9C",
"N. c #9D9D9D",
"B. c #9E9E9E",
"V. c #9F9F9F",
"C. c #A0A0A0",
"Z. c #A1A1A1",
"A. c #A2A2A2",
"S. c #A3A3A3",
"D. c #A4A4A4",
"F. c #A5A5A5",
"G. c #A6A6A6",
"H. c #A7A7A7",
"J. c #A8A8A8",
"K. c #A9A9A9",
"L. c #AAAAAA",
"P. c #ABABAB",
"I. c #ACACAC",
"U. c #ADADAD",
"Y. c #AEAEAE",
"T. c #AFAFAF",
"R. c #B0B0B0",
"E. c #B1B1B1",
"W. c #B2B2B2",
"Q. c #B3B3B3",
"!. c #B4B4B4",
"~. c #B5B5B5",
"^. c #B6B6B6",
"/. c #B7B7B7",
"(. c #B8B8B8",
"). c #B9B9B9",
"_. c #BABABA",
"`. c #BCBCBC",
"'. c #BEBEBE",
"]. c #BFBFBF",
"[. c #C4C4C4",
/* pixels */
"7 8 l V k t 7 8 : 8 l b G R A K $. .[ R / ` I I k t < < k I +.*./ l k b A I G I K K f b t t b f b l l t l A K l A f f f y f b k ",
"t l b l y < 7 7 < : t  .C.K.D.Y.R.R.Y.D.D.C.C.D.x.:.K y K 0.D./.Y.C.2.*.t.d.k.m.V.$.l G k f k k k l 8 7 G A V f V l y y 7 t k t ",
"b b G G K k l k k 7 7 *.D.K.Y.D.R.)./.V.K.Y.D.D.V.7. .l b x.V.x.V.Y.D.D.D.V.m.D.x.[ V y f l ` +.` I k f / V l f R K y t f b b K ",
"x.m.V.x.d.k.V.m.k.R 8 :.m.d.d.i.7.t.d.d.d.d.k.d.i. .A 8 7 i.K.d.t.t.k.x.d.i.0.0.7.K k < y A V.]./.D.x.d.d.0.2.*.:.$.$.$.i.x.x.D.",
"].[./.V.x.D.Y.C.m.[ 7 +.k.7.+.$.+.+.*.$.:.:.:.2.7./ b 8 8 k.R.d.t.0.7.7.7.2.$.*.*.G k 7 l b *./.R.Y.D.D.R.R./.).R.R.R.R./.R./.K.",
"d.k.t.0.7.t.0.$. .K 7  .t.*.[ ` [  .*.:.*.$.*.*.+.R b < 8 *.Y.m.i.t.0.:.*.2.:.0.7.I f : V k 2.R.V.x.k.x.C.K.K././.R.K.D.m.x.i.:.",
":.*.*.$.$.$.+.K b t 7 +.t.*. . . .+.$.$.$.*.:.$.$.[ b 7 < I V.Y.i.2.2.*.*.*.7.0.$.K t & y A 0.Y.d.t.t.d.k.d.d.i.d.d.i.0.7.7.:.:.",
":.:.*.*.*.$./ V k < y :.m.2. . .+.*.:.:.:.:.:.*.*. .b 8 & l t./.i.+.[ ` R I [ ` R K t @ 8 G 7.C.t.2.7.7.7.7.7.t.7.7.0.2.2.7.2.2.",
"2.2.*.+.:.*.I b t + y 7.K.d.*.+.+.$.$.*.2.2.7.2.$.` b t & k I k.:.I G b k f b A G G t + < l 7.C.t.0.2.2.:.2.7.0.t.7.2.2.:.7.7.*.",
"2.2.:.:.2. .G V 7 + t *.D.m.2.+.$.*.$.*.$.$.7.:.$.[ V y : 7 k V b t 7 7 < < 7 8 7 < < + t A *.C.t.2.2.7.7.2.7.2.:.:.*.*.$.7.7.2.",
"$.+.:.7.:.[ A l < & 7 / m.V.2.*.:.:.:.*.*.*.:.$.$.[ V y : < V G k < : 7 t f t 7 7 t 8 7 f b $.C.0.7.7.7.2.7.2.7.7.7.2.:.*.*.$.$.",
"V V G ` ` / V y : : < k i.V.:.$.*.:.2.*.$.*.2.*.$. .b t < 7 V K l A ` 7.x.m.i.i.i.d.+.f < 7  .m.$.[  .` [ +.+.*.+./ G A b V G G ",
"8 t y k l l k 8 : : < t t.C.2. .$.:.2.:.:.7.0.7.:. .A y < 7 k G 2.m.K.Y.K.D.V.m.C.V.0.t @ & V / b k l V A V b k t 7 : : : < t y ",
"@ @ @ @ : < 8 < : : y y i.D.7. . .*.7.t.t.t.t.2.7.+.K f < 8 l i./.K.m.t.0.0.2.7.0.:.K < 7 8 f l < < 7 : : < < & < t 8 : 8 : @ @ ",
"< & : @ + @ & @ : 8 f l 2.m.2.+.:.0.0.t.0.0.0.7.7.$.V t : < V V.R.d.7.2.7.7.:.:.0.$.b & t k V V t y y 7 7 t k k k V b 7 k k 8 y ",
"l f k k f y t k b l k f ` k.t.7.0.0.0.7.7.:.*.2.2.+.l 7 @ X k V.Y.t.7.0.0.i.t.7.7.$.V & < < l l y 8 f l l A V V k V l 8 f G K K ",
"0.i.k.d.i.0.7.x.C.:.K G K i.x.d.0.0.7.2.*.7.*.*.2. .l 8 < : b x.C.0.7.0.0.7.*.2.0.$.V < 8 l [ 2.l < 8 f +.i.*.t.k.d.:.` / 2.t.2.",
"d.k.m.k.i.0.i.C.D.:.b K V 7.m.i.*.+.$.*.:.:.:.2.7.+.b f : : l k.K.t.7.:.*.+.:.7.2.` b < y  .C.C.G @ y ` K./.Y.R./.K.m.m.k.k.d.C.",
"2.+.*.$. .[ $.t.0.G t A V $.m.7.+. .[  .+.$.:.7.0. .b y & 8 t 7.D.0.*.$.+.[  ./ K A k : b m.K.i.b & l 2.Y.i.7.t.i.7.0.t.7.:.2.m.",
"*.*.*.$.$. .+.7. .f 7 l k I d.d.[ K R ` / [ +.*.:./ l 8 & : f t.V.t.2. .G V A G A A t & ` K.K.7.k @ V V.V.+.+.2.7.t.0.*.$.+.:.0.",
"*.:.:.$.$. .+.2.[ t @ y y y  . .b k l k f A A G R K l : < & <  .:.` I f < : < 7 8 7 < y 2.D.k.$.y & I Y.i.$.7.7.0.7.2.*.*.*.2.2.",
"*.2.:. . . .[ +.R 8 @ 7 : < f 8 7 8 < & & < 7 8 t y < @ : t t 8 8 < @ @ @ & : @ & < 8 A m.K.i.+.t @ G m.t.7.0.2.:.2.*.$.2.0.2.*.",
"$.*.+. .+.+. . .K t & < t l b f 8 8 : < : & & & + < k A ` $.$.+.R V G I K A V b y 8 8 [ R.m.i.+.y & V i.0.:.2.2.:.*. .*.2.2.:.$.",
"*.*. .[  .$.$. .A 8 < f $.x.V.D.i.:.+.R y 8 t t 8 ` m.D.R././.).).R.].Y.m.d.d.0.G 8 : 0.R.k.i.+.f : V k.i.:.7.7.:.$.2.i.7.:.+.$.",
"2.:.$.[ [ +.:.$.G t : l k.K.x.x.V.V.k. .k f k k l t.K.x.x.m.m.V.D.K.Y.D.C.C.k. .k t y t.R.k.t.+.t : l d.i.2.2.:.*.:.7.2.7.$. . .",
"2.2.*.+.[ $.+.[ A y 7 l d.C.0.7.7.t.0./ l y l t f t.K.t.:.7.2.2.i.i.t.d.i.i.$.A 7 t b 2.R.d.7.[ 8 @ 7 G ` / [ +.$.*.$.+.$.*.$.+.",
"R  .$.+.K V l y t t : V m.K.0.2.7.0.$.K l 8 t 8 y i.D.2.$.:.$.*.7.t.0.t.t.0.[ V 7 7 V 7.R.d.2.` 7 @ 8 y f k b A K R / / [  . .+.",
"y f k y 7 : @ : @ : 8 G D.Y.d.0.t.7.:.R b 8 & < t i.K.0.2.$.:.0.0.7.t.i.i.t.$.b < 8 b :.Y.k.:.[ 7 & y < 8 < < < 8 f f l A K G A ",
": & @ & & & 7 y 8 f V R C.K.i.t.0.*.*.[ V t & & 8 7.R.x.7.:.7.i.d.t.i.i.t.0.*.G 7 : y *.Y.x.2.` 7 @ 8 8 k 8 < @ & < & : < t t 8 ",
"y y t V ` *.:.0.7.:.I G k.x.7.:.2. .$.+.A k & @ t :.R.k.0.0.7.0.t.7.7.7.:.7.$.K y & <  .C.k.2.` < + < b R A l 7 y k 7 8 8 < : @ ",
"f A $.t.k.k.k.m.m.m.:.K i.k.*.$.2.$.*.2.$.A < & y 2.D.k.2.0.i.i.i.t.0.2.2.7.+.I f @ : [ D.d.7. .< @ A k.C.C.t.R I I [ t.t.:.b < ",
"b ` k.V.d.2.$.:.2.i.2.b :.d.2.*.7.2.2.7.:.G 8 : y +.x.t.*.2.0.t.7.7.2.:.2.:./ K k @ y $.Y.d.2.+.8 @  ./.V.V.Y.K.V.V.Y.C.d.0.b 7 ",
"l :.x.k.2.*.+.$.*.[ K y *.k.7.:.0.t.7.7.2.R t : y [ k.t.*.*.:.0.:.7.7.:.:.+.I V y < V 2.D.d.7.[ 8 :  .K.t.2.x.D.Y.K.C.k.7.R y y ",
"R d.k.2.*.+.+.:.$.I f y 7.D.t.:.7.0.7.7.*.R f : < R d.i.*.:.7.:.:.:.7.0.t.7.[ b t 8 l 0.K.i.:.` 8 @ [ D.0.2.7.0.i.t.7.:.$.G k y ",
"` m.d.*.*.:.*.:.+.G 7 8 :.Y.k.2.2.0.t.2.*.R f < < K d.x.:.2.*.$.*.:.7.t.i.0. .A t & f 2.D.7.` V 8 & ` C.t.2.2.:.:.:.:.:.$.G k t ",
"K i.t.2.2.2.2.2.+.A : < $.Y.m.t.0.t.7.:.:./ k 7 & A i.x.2.:.2.:.*.:.:.t.i.0. .A 8 7 f +.0.K y t < 7 [ V.0.:.:.:.:.$.:.7.2.K b 8 ",
"V 2.0.$.+.2.$.:.$.G < 8 $.D.C.i.t.0.:.$.$.R b 7 : A i.x.7.:.*.*.*.*.:.7.0.2.` b < 7 t k G 8 @ : 7 t :.m.:. . . .+.*.*.7.*.I l 7 ",
"k :.2.$.$.7.:.7.*.K 7 y  .C.V.i.t.7.+.[ $./ l 7 & k :.m.7. ./ / / ` [ / [ R b f < @ y y t < 8 y k f $.*.K A A G G K K R R K l : ",
"t $.:. .$.0.7.7.2.I 8 8 ` D.D.t.7.*.+.+.$./ k < : b R 2.R b l b A V A V l f y t 7 7 y f y 7 k f b k b b f f t 8 8 t 8 y t f f 7 ",
"f *.2.[ / 2.0.7.2.` y 8 I V.K.t.*.+.[  .[ / l 7 : G A t < 7 < : 7 y t : & & < : f y f b t t K b y f f 8 : & & : : 7 8 y 8 < 7 7 ",
"f $.:.` `  .$.$.$.` t : R K.K.2. .$.[  .+. .V < & V I A k k f 7 7 f 7 @ < : 8 t l b l [ *.2.:.+. .+.$. ./ K I [ +.*.0.0.:.k 7 f ",
"t +.*.+.$.+.` [  ./ y & K D.x.$.[ $.$.+.+.+.K t @ k $.C.k.t.i.0.*.$.$.*.2.0.d.m.k.k.t.V.x.k.d.k.m.C.D.D.R.Y.Y.R.K.K.V.k.d.R 7 l ",
"k :.i.:.*.+. . .+./ t < A x.i.*. . .$.+.+. .I f & < 0./.K.V.C.K.K.Y.R.R./.R.R.R.R.R.C.D.d.t.d.i.i.k.m.m.D.K.K.D.V.V.C.x.:.A 7 f ",
"l :.i.*.$. . .$.:.R t 7 y t.d.:. .+.*.7.:.+.A y @ : i.Y.m.d.d.k.x.x.x.d.d.i.7.7.t.:.:.t.7.2.2.*.+.$.:.:.:.:.0.7.t.t.t.7.*.K 7 f ",
"I :.2.$.+.*.*.2.:.K 7 < 8 *.7.[ *.*.0.t.2.*.A 8 @ < i.D.t.:.0.0.t.t.:.*.:.:.$.$.$.+.[ +.:.7.2.:. .$.:.*.$.$.*.7.7.0.2.:. .V 7 7 ",
"R t.0.$.$.:.:.2.+.V < 7 7 ` :./ +.:.:.*.*./ k < : 7 7.x.$.*.7.2.2.2.+.$.*.*.$.+. .$.$.*.*.7.:.:.:.*.7.:.+.$.:.2.7.7.7.*.R k < 7 ",
"/ t.*.[  .+. . .G 8 8 8 y  .0.t.t.2.+. .I b t & : 7 7.k.7.*.*.+. . .*.:.$.$.$.+.$.$.*.2.:.2.7.2.7.7.*.*.:.:.2.:.2.2.7.$.G k : y ",
"b K G V A A b V f : 8 t 7 +.D.k.*. .` / A V f < : < :.m.2. .+. .+.:.7.:.*.*.*.$.:.:.*.:.:.:.:.*.2.0.:.*.2.2.2.7.:.:.2.+.G k : k ",
"k b y 8 t y f f t & @ f t R 0.R A A A b b l < & : & R k.0.*.:.*.*.2.2.:.2.:.$.$.:.2.*.*.*.*.*.*.7.2.:.*.2.7.0.0.2.:.+.R A k : f ",
"l b f 8 : < < 7 : @ & t f f y f f y f t y 8 < & & & l 0.0.` / [ +.*.*.$.*.*.$.$.+.$.+.$.*.$.:.:.:.:.*.*.2.t.0.0.2.7.$.K A f < t ",
"V t b b y l t 7 @ & 8 y b 7 & 7 t < y t f y 7 : 8 y b R [ A l b V b A K +. . . .+.+.$.$.$.$.2.:.*.:.*.*.2.7.0.2.+.:.*.K b f < k ",
"f G :.2.7.:.+. .R G V A f & t f t 7 k b A V < + b b k l l y 7 7 : : : 7 f y b K ` +.$.$.$.*.$.+.` R I R ` ` ` ` / / / V f 8 7 k ",
"k 7.V.k.C.D.C.D.C.x.0.$./ K R K k k A V I k : @ 8 y < l V k f k < : : < < : 7 y k V A G K G A G A A V V V b A G V l k t 7 < t k ",
"k 0.m.t.t.i.t.t.i.t.i.t.0.i.x.x.x.x.x.k.i.7.+.[ R I V I R K G G b f 8 t V y : & < 7 7 t t y k f y f f k y 7 f k : & < 7 < 7 A A ",
"l 2.x.2.$.+.+. .[ [ [  .2.0.0.t.d.k.m.x.d.V.m.k.k.i.k.k.t.k.k.i.:.l f y / K y t k f y 8 7 < : : < 7 7 < : + < 8 < & 8 f k k V R ",
"V :.2.$.+./ / ` / / R / +.:.:.*.$.:.0.:. .+.*.0.0.x.x.0.7.k.x.x.7.A 8 f A G A K K I K A y y 7 < k k k t 7 y 7 7 < : 8 7 l K K I ",
"K 2.:. .+. . . .+.` ` ` [ *.2.$.+.*.:.2.*.*.2.2.2.7.t.:.$.2.*.$.K k t b k / i.d.k.i. .l k 8 7 y A A b A l b l y < : f t y V G V ",
"R 7.0.+. .$.+.+.+.[  . .+.:.2.$.+.:.:.:.$.:.:.:.*. .7.[ / *.$.+.A f y V f A i.K.K.Y.d.[ ` k 8 y A *.0.0.i.t.i.t.7.7.t.i.7.+.G t ",
"A $.2.R K / R R I R R / [ [ [ / / R R R / +.$.+. .R [ [ [ / / [ G y y V l b [ i.d.V.d.0.0.[ k l $.k.i.d.D.D.V.C.V.k.k.x.k.d.K 7 ",
"k G I l f k k k k k l b V A V l l V V A V V A V V l l V V V b b l t y G k l A +.*.7.*.$.$./ f R x.i.*. .$.:.:.7.0.2.*.:.:.+.y @ ",
"k k b f y 8 t 8 : < 7 7 7 7 7 : 8 y y y y 8 < : : & @ : : < 7 8 < 7 l A f 7 y k b G A b l t < / k.:.[ ` [ [ [ +.*.$.$.+.[ V < & ",
"7 y b y 8 < y y : 8 8 7 8 : @ & < < < t t y 7 7 @ X   + @ & & t : y / b k 7 7 : < < < < < 8 < V  .` K G I b b l l k k k f 8 : t ",
"7 f b k y k V l b l t y V f t k t y y l b G l k f & + : y l y l f b ` V l y 7 < : < t t b V b l 7 7 7 8 7 < : : : : < : : : 7 y ",
"y k A V y l l k V k t f b k k y f l k b I V f y y 7 < : l A A k V b b V f y t < & k f A I G K b t 7 < : 7 y l < 7 < 8 8 t y f f "
};
