/* XPM */
static char *_1[] = {
/* columns rows colors chars-per-pixel */
"64 64 64 1 ",
"  c #050502",
". c #090602",
"X c #060802",
"o c #0D0903",
"O c #130D05",
"+ c #180F07",
"@ c #161106",
"# c #191207",
"$ c #161109",
"% c #1C1509",
"& c #1F180B",
"* c #181610",
"= c #171917",
"- c #1B1A15",
"; c #1E1E1A",
": c #21160C",
"> c #241B0D",
", c #291E0E",
"< c #241E13",
"1 c #2A1E10",
"2 c #221F19",
"3 c #2C210E",
"4 c #31250F",
"5 c #272115",
"6 c #2D2212",
"7 c #25221B",
"8 c #2B251B",
"9 c #332514",
"0 c #382716",
"q c #362916",
"w c #3B2B16",
"e c #342718",
"r c #362919",
"t c #3C2D1A",
"y c #3F3017",
"u c #3F301A",
"i c #2A2721",
"p c #332C22",
"a c #412E1B",
"s c #44321D",
"d c #4A351E",
"f c #4C381F",
"g c #50371F",
"h c #513A1F",
"j c #463420",
"k c #4A3621",
"l c #473825",
"z c #4D3A22",
"x c #473928",
"c c #503721",
"v c #523D24",
"b c #583E24",
"n c #543F28",
"m c #554026",
"M c #5A4126",
"N c #564129",
"B c #5B442B",
"V c #5F482E",
"C c #5E4730",
"Z c #5E4931",
"A c #60472C",
"S c #60482E",
"D c #634B32",
"F c #694F36",
/* pixels */
"16wsz0wgddkskgzzfdzdfgfddzvMvvvvvMBNMvvhvssdsskataatssdgdadssdsd",
"9qsvpagdddsjzddasdddddsdssszvvzvzvzvzksaddddsakjatakdvddgdsqipsa",
"www92edasataazzdsdsddssddkzdssssddssdkdddddzsakstttttsdsdddd8rvc",
"0ttt<esaatttwwaasssaassdzvsssssdlzsvBMMvgbcdgajaaaa000asskzzzkzb",
"sjjajdkdssssskazssddsdasskddadsljdjskzjaaawassssaastjssdsssjsads",
"zvkkczkkkvzlvvcnzllddfzkdzfdfdjffdzskstwwawasflsszkjzksjdsfsdddd",
"auujjjw0rtetttee6qqq999960e9696&5663166>>,,>>>61190ttte9q9919e1:",
"oO<*%<11>::<&+#O +#%%&9<&$@%#>O  O##:6>:1>9:+0xnzxjjptkjjsjjaa$.",
"OO1119t6qe593#3#.#,439kt3#3366%oX&>%ewe9eew:uCBNBmf7;zmmmzmlu6@@",
"OO<910t0re36334>X>4060ss3349>69. >3>3q99w6>uCBBCNfzuzmzxpufr>&9&",
"O$<170a0taee439&X,96irrsqw677t0. 3437rttq6tMVNNNzNmzmmm5;ut>:tw#",
"+$99-ettas-8y4q&X3w6-ssszds%6a0o :w4-esa9rmNBVMVNzflmzzsut6>9tq&",
"O%at%wattkewu33&oqaqusdfdfz39se.X>3w6uk09NNVDVNNzzmxvdfy9,:9qsq:",
"+&st0dtt6rasf6>>Owadfffdzffeaa0OO>:9sdt9zNFCVNzxxmNmzlut9<9rsut:",
"+<jszjsr66ttl6u6.qddfusdddzzjd0+#999lt9vCDDCBmzzmmmmlttaq6qzkst&",
"#1kktwsjsktsmts6X9flzusvddvs0ja%$0utd9lADFBCMzmmxzmjtqeqzusjqss:",
"&1k9wdsaddaaMvt&OwddsysvbzkadswOo1jksxNBFDVCNmmjuust066dMvq0dda:",
":>00ddsafdaavdt6Oadsstsdvnsdsd0.$69razBDVNNzxflsultu09wszz0ddat:",
"11azckashzssvsdq#tdzsytsvMsdgs0:%09unNCCNzvjszdsslzu9sssvjshdst>",
">6zkgvaafzdfvds9#sdssddfbvsacs0:%>jBBMNzmmlxmmddkNneszkdvkszvdq>",
">1vczvt0ldffzsf9$sjssdddzsvzzt1%OtBDNNNNVmmzNmzlvz0wkkkszjddvs9:",
":6zdacetfdzdzsz9%dlstdsdzsddkt9O0BMMNVDBNmlmmmzNj9qasddszsddct9>",
">9ddkvttsddfvsd9%sfsyssfzssdvj:9CCnnZZCNmzjmmvzn&9ksjkssvdsdvjr:",
">1azdMa0ddsdvddq&lffyssfzkddbr0DBnnBDZmmxtjmzlN6Xalskksdhlddvz9>",
",1agdMdadsdddsd9%dkdaaffdfzdztBnnnBBCNzz=8Nmzmt#OsdssfffdfhdMfw>",
",>addMdaaaakdsfq$zflaahhfmhajCnnDDCMBNztummzmt11$sftsjsffmvdbvt,",
":>addAfajt0jsdm9ovzdasAzsmftNnBDDDBnmljzmzdzuet1&svtzzsssvvhMva6",
":1aadMvawjkksdv9ovvsssfzasqmNnCFBBbzzxmNmzzt6ut1+aMsszfusdvfdzd6",
",:0tsMmd0tkksjd6Ohmswssss6kCDDZZZmlzmmmmnvjsawe1#aMjyfssfsdlsds6",
">:0sdMMzdatsdds5.vMsqaas0dMCDDFZZmmlmzxmBksvka91#sMlddyufddsssu6",
">>ttdBvsszaalds3.zvsudt6tMDDDFDZVmmmmzzmkevBjtw1OsMsdduuszdssss9",
",>stdMvsdddddss3Ozvdst9anBCBBNnNmmmzmmmx0wvbaaw<Osvsddssdfdsstw9",
">>a0dnbadddldyd5ojvturtuysqfmmmmNmfmmmleaabnswa,O0nsdssddsdwswt9",
">>kwwdMzsdfzdsa>otMueuN64yfDZDVVCmummmeyszbkaws>O6ncddszdsssdtt6",
">>a090vvdskvdas>otvtqMBlyfhDDDDVNmmNmrusdkd00wa1$9nbssuzzssta996",
",>dq90vvzasddsd>$tjtBBzlmfmDDDDVmjjzetsjzss09qs,$9bvdssfdak04e>:",
">>ad0abvsjskdss>&9sBNmNZhmDDDDmmNssqtujzksfqwas,$6Mzjstdfsze493&",
"%,v01dvvakzzsuu3%9DvrmmuBFDFZmrusu6wjsssdazs,ad,O0Mvskwkssdu396>",
"#,s,wvvndsdkdus3%BBsmmumBNDBurw4q66ddsskddvd9,h4O0bnsksdfffs6ut&",
"#,s4dbvvzkkssyu:xMxMmmZi7mmywr4y>3ssjsszddvbd4s,Otbnkzssszssusu>",
"#:aagMAvzzsssteskvNzNCj8luywuqw6OqssddsdfszMdas>OaSvfssdszdsust>",
"&&adfhMvsvsss6yzjvnNNNVDr99wwy9O#qsaljddfudmdsa#otBvsssdsffssut>",
"&:fffvMvszst6tldzmVNNNzsqyyqy43%%wdussdfsssmdhd#otMvulzdrjfdsws3",
"#>vMddzvdlwqtzffMBCNCNreusweq53>#qsdfsfdyysdfvf%Oqvvssdsuuslde6>",
"%,vhvdffldqtnznnNnCDBjterewy9t3:&9fsfsyuyusdhmv>+qvdldddsuddfj65",
"#6fdfdhfsqezmNNnNCDCute6qwy9wks%%9asdysyssudfsd>Oqhddfysdywdysl3",
"O,hdsdvheezNnxxNZZDzturqsy6sdws#@9sssyuassddsdf3O0Mhjlutusuddtd:",
"X:fsddft6jzjxuxFZFNlxsrta6udfdw@Oqdasytsysddsdf>Oqhdssywtsdfddt&",
" >dsjjt0kzrutrBZCNxBvttu69sfhf3$#qssdystjajkddd>Oevdttsdsaavgz9#",
".&sa6t0annejjNZZvkvBjutqssthvd3Oo3sdsadtatat0aa:O9dattszfdwgvd9#",
"o:tjteutpsjnNCZxdNxsutesddddds9#O0fdssdystak0ka:Oedaatacfddzds4&",
"+%19eetu>tNNNNNxzmsqsrqfvssddsqO+esdysdsssjkd09:O9dadkwdbsadhsw&",
"O:q396q65lmlxjjrjstzw0acvwwjad0oO9taaaddsassa09>+1aaaaakvwtdssw:",
"O:>>87%<uNzxtuflttzt0sdkgazsaat$Oejjaaddttwwat0:+1aaasdkdalsass>",
"O#:#$*6uzssr5uzjava1wspkdadssda+o9kadsasaatwaa9:$1aaadakgadssss:",
"ooO@$%rxwq6=wmsuba,0aaajawaaasaO+9aasaaaaawja09%O1aaawaaawtttsd#",
"oO.oo<9>$>&5rq6r6#1119w00991196..:960tt69,60090+.:9>,9ttw993669.",
"::><>100wrtutptterttettt9qqttr0169te9906>66,191:>>609rr9099,999,",
"&&1qttaau9tzvvzvvkzzjzzdkdddddkkjdksjstqwawasgkdkzkzzzddddddzkdd",
">69900ttr9ruajjstttaadaasssaskzzkzzzkzksaaaasaasassasasdaassetaa",
"699q6eptwakdjaa09e0wasdvmvfzvMbbbMbMMMNvhbvgdajataa009aaddzk28zb",
"9q006-20asaadazzkkvMMMMMVMBMvsakdvvMMvzdddddjjkjttwadhvvMMBBBBbz",
">>11e660azawddvdzdhgzvzkdhfvdq6090ghhvfzvdsk00kdawazhbdbvvvvvvk0",
":>>969690azw0dvdcdzdgddssatt9q0wt14adshvcsajaajwaaawasdddasst009"
};
