/* XPM */
static char *_[] = {
/* columns rows colors chars-per-pixel */
"64 64 209 2 ",
"   c #050505",
".  c #0D0D0D",
"X  c #141414",
"o  c #1C1B1B",
"O  c #181717",
"+  c #2F0202",
"@  c #340203",
"#  c #3C0404",
"$  c #3D0A0A",
"%  c #390909",
"&  c #2C110E",
"*  c #3C120D",
"=  c #201F1F",
"-  c #381C17",
";  c #3C241D",
":  c #211F20",
">  c #242424",
",  c #2A2526",
"<  c #2C2C2C",
"1  c #362928",
"2  c #30302F",
"3  c #343434",
"4  c #383737",
"5  c #3B3B3B",
"6  c #373838",
"7  c #430404",
"8  c #4B0505",
"9  c #4C0807",
"0  c #4C0708",
"q  c #440A0A",
"w  c #4C0B0B",
"e  c #430808",
"r  c #530D0D",
"t  c #5A0D0D",
"y  c #510707",
"u  c #41130F",
"i  c #59100F",
"p  c #581B07",
"a  c #4C0F10",
"s  c #540F10",
"d  c #4D1313",
"f  c #4C1B1B",
"g  c #471716",
"h  c #551212",
"j  c #5B1414",
"k  c #591A17",
"l  c #541B1A",
"z  c #5B1A1A",
"x  c #641616",
"c  c #631B1B",
"v  c #6C1B1C",
"b  c #670F0F",
"n  c #4C241D",
"m  c #56241D",
"M  c #64201F",
"N  c #693819",
"B  c #753408",
"V  c #521D20",
"C  c #641F20",
"Z  c #4B2323",
"A  c #472727",
"S  c #542323",
"D  c #5C2424",
"F  c #542A2A",
"G  c #5C2D2C",
"H  c #592925",
"J  c #5A3127",
"K  c #5A2E30",
"L  c #423E3E",
"P  c #543636",
"I  c #5D3231",
"U  c #543939",
"Y  c #5C3939",
"T  c #5D3B31",
"R  c #642323",
"E  c #6B2221",
"W  c #622D2D",
"Q  c #63302F",
"!  c #643333",
"~  c #6A3334",
"^  c #643C3C",
"/  c #6A3B3C",
"(  c #673936",
")  c #7F4C1B",
"_  c #7F4F20",
"`  c #6A403F",
"'  c #785636",
"]  c #434343",
"[  c #4C4C4C",
"{  c #5A4344",
"}  c #545454",
"|  c #545959",
" . c #5B5B5B",
".. c #654443",
"X. c #6B4343",
"o. c #644C4D",
"O. c #6D4C4B",
"+. c #724443",
"@. c #744B46",
"#. c #724B4B",
"$. c #7B4D4C",
"%. c #714748",
"&. c #78504F",
"*. c #7F4F50",
"=. c #675353",
"-. c #6D5252",
";. c #635B5B",
":. c #6B5B5B",
">. c #725453",
",. c #7D5353",
"<. c #735C5C",
"1. c #795D5D",
"2. c #715857",
"3. c #5F605F",
"4. c #796454",
"5. c #5F6060",
"6. c #646464",
"7. c #6C6465",
"8. c #6C6B6B",
"9. c #676969",
"0. c #756464",
"q. c #7B6464",
"w. c #736D6D",
"e. c #7C6B6B",
"r. c #70706F",
"t. c #737373",
"y. c #7D7574",
"u. c #7B7B7B",
"i. c #787878",
"p. c #864706",
"a. c #924F03",
"s. c #834B13",
"d. c #844E18",
"f. c #84501C",
"g. c #8A5119",
"h. c #915312",
"j. c #98520A",
"k. c #885827",
"l. c #855D36",
"z. c #88623D",
"x. c #94622F",
"c. c #815454",
"v. c #845A5A",
"b. c #875859",
"n. c #834D4C",
"m. c #886646",
"M. c #926B47",
"N. c #836A53",
"B. c #8A6D54",
"V. c #947456",
"C. c #826363",
"Z. c #826D6D",
"A. c #896C6C",
"S. c #827467",
"D. c #937261",
"F. c #837473",
"G. c #8D7B74",
"H. c #847C7C",
"J. c #8A7D7D",
"K. c #877776",
"L. c #947879",
"P. c #8B837E",
"I. c #83807F",
"U. c #948476",
"Y. c #96816E",
"T. c #A5896C",
"R. c #7F7F80",
"E. c #7E8182",
"W. c #838383",
"Q. c #8B8584",
"!. c #878989",
"~. c #8C8B8B",
"^. c #868789",
"/. c #928584",
"(. c #938984",
"). c #928D8D",
"_. c #998E8E",
"`. c #9C8F84",
"'. c #95908F",
"]. c #918F90",
"[. c #8F9193",
"{. c #949393",
"}. c #9A9494",
"|. c #9A9897",
" X c #949598",
".X c #96999A",
"XX c #9B9B9B",
"oX c #969898",
"OX c #8B8F92",
"+X c #A19594",
"@X c #A39999",
"#X c #A49A9A",
"$X c #9EA09F",
"%X c #A0A09F",
"&X c #9B9DA2",
"*X c #959CA5",
"=X c #9DA1A2",
"-X c #A3A3A3",
";X c #AAA5A4",
":X c #ACACAC",
">X c #A5A7A8",
",X c #B0AEAE",
"<X c #B3B3B3",
"1X c #BBBBBB",
"2X c #B5B7B9",
"3X c #BABFC5",
"4X c #BDC1C4",
"5X c #C3C3C3",
"6X c #CDCDCD",
/* pixels */
"> o 5 [ 3 < > < O < 5 5 L } 6 ] 7.5. .[ }  .] [ , = o O 3 [ 9.t.} 2 2 3 ] } ] ] [ } > L > > [ < ] 6 5 > 6 ] } 6 [ < 3 3 < 3 L 3 ",
"< 5 5 5 , O = > O X , 6.:X,X:X<X2X<X2X:X:X-X:X:X$XR.[ < } W.:X1X2X>Xi.8.W.{.{.$X>Xt.3 } 6 3 3 < 3 5 > = } ] ] 2 ] 5 < 3 : < 6 , ",
"3 5 ] 5 [ 3 3 3 2 o o i.:X:X<X-X2X5X1XXX;X2X>X-X=XW.9.6 3 -XXX'.$X<X,X,X<X%X$X,XXX .] > 6 6  .8.} } < >  .5 3 , | } > : 2 3 6 [ ",
"|.XX>XXX{.oX-XXX=X| o u.XX!.[.!.i.^.].~.~.[.'.~.~.6.L > X {.,X!.I.W.].oX!.!.R.R.R.} 3 O < L ,X6X1X:X&X X[.Q.i.r.r.8.9.9.].XX.X,X",
"5X6X1XXX|.:X<X-X-X9.X r.|.u.9.8.6.7.r.8.t.t.t.i.W.| 5 > = XX2X~.!.I.R.u.u.u.9.r.t.[ 2 = L 4 8.1X<X,X:X>X<X2X1X5X2X2X<X1X1X2X1X,X",
"~.oXW.W.E.W.W.8.9.} O 8.!.t.3.3.6.9.i.t.t.8.r.t.8.} 5 = = r.2XXX!.!.W.t.t.i.t.Q.R.} 3 O [ < i.1XXX X{.{.$X:X:X2X<X,X:X>X.XoX!.8.",
"t.8.8.8.8.8.8.[ 5 , O 8.~.8.8.6.9.9.8.8.8.t.i.8.r.9.5 : O [ -X<XW.u.I.r.r.t.W.!.r.[ > . < L ^.<X~.!.W.].~.~.'.!.~.~.!.I.I.i.t.i.",
"i.i.t.t.t.8. .] 3 = , u.%Xi.6.6.8.t.t.i.t.t.t.t.i.6.5 , . 3 !.5X].6.6.5.} } 6.| } } < . > } u.-XR.i.u.R.R.u.u.!.R.I.W.i.u.I.u.i.",
"i.i.t.6.i.t.[ L < . , ^.<X[.t.8.9.t.r.t.R.R.W.u.t.6.] < X 5 [ $Xu.} [ 5 6 3 L ] } } <   > 6 W.>X!.W.I.R.t.u.R.W.!.I.i.u.r.R.I.r.",
"R.u.i.t.R.9.] ] >   , r.XX~.9.3.5.6.5.6.5.5.t.9.;.| 3 , . o < 2 2 = O O X O O o X X O   : 6 5.&Xt.r.8.r.t.t.u.i.t.t.r.t.8.R.R.i.",
"8.8.u.R.i.5.] 5 = . > } 9.6.6.6.6.5.5.6.6.6.6.5.6.5. . . . . .;.3.3. . . . . . .} | |  .3. .3.6.6.5.5.9.5.6.i.I.I.I.E.u.t.i.r.r.",
"] L [ 5.6. .] < o X 3 >Xv.` N._.*.*.$.c.$.$.$.$.,.c.c.c.,.c.c.c.c.c.c.b.b.b.b.c.c.c.*.,.$.n.c.+.,.+X,.` C.$X8.i.8.3.[ ] 6 ] [ [ ",
"> > < 6 5 3 6 > X O > }.n.H.<.G <.Q.Q.(._.]._._.)._.}.+X}.}.+X@X+X+X;X%X#X#X#X|.}.@X}.]._./.Q.Q.-.J F.F.&.{.6 2 > o X X X o > 2 ",
". X . X X o < o o X 5 i.#.:XXX^.E.u.u.W %.|.XXXX%X%X-X;X>X:X:X2X2X1X4X1X1X,X,X,X;X-X>X).W >.^.W.W.!.oXI.@.W.O . o < > o , O . . ",
"= O O .   X X . o : L ^.U ;X:X}.I.I.{ # # I u.~.W.Q.Q.).].F./.K.1.v.D.T.T.|.{.].~.].y.l # 7 w.^.Q.{.I.y.o.'.6 5 6 [ ] o 5 6 > < ",
"3 < 3 < < < = 2 6 2 L ].` Q.:X:X&X).u.Z @ @ g o.w.i.u.i.E.=.w q 7 g B a.k.Z.].W.y.X.w 8 8 o.~.].{.i.Q.Q.-.~.5 5 < 5 3 > < ] [ [ ",
"W.[..XoX{.~.W.|.,Xt.} '.$.t.-X:X_.D C.OXA @ 7 7 d F =.i.i.i.g # w $ N e.^.y.O.H a 7 8 8 O.{.~ ( u.t.oXH.,.{.8.~. X{.t. .} I.].t.",
"[. X#XoX[.W.~.>X<Xi.5 {.c.W.W.,XW 8 j N.^.:.l s j 8 7 Z w.i.f # $ @ {  X<.l 0 9 s 0 G i.].+.r 7 ..XX'.Q.O.XX<X1X4X,X$X-X$XoX~.:X",
"i.6.8.8.6. .9.W.W.] < ).c.|.i./.x r x j ~ K.0.l h h 8 l F.!.F 8 a 8 >.&Xq.r h j r ! Q.A.R t a 7 ! |.{./.$. Xi.W.Q.i.W.^.u.t.t.$X",
"r.t.t.8.r.9.8.W.8.< < ).,.{.H.u.v.t r c j h z z h r I y.~.e.h j j s ~ {.XX0.z s s R C t s a 7 h H.~.|.Q.#.~.6.u.u.!.Q.8.8.9.t.W.",
"r.i.i.8.r.8.6.u.6.> O ).$.oX'.u. XA.x 8 r z j j h j -.z q.Q.l k z j / ;X$.( +.r h x z i 8 7 V /.XX{.XX/.$.{.R.W.W.R.u.t.t.t.i.i.",
"r.u.i.6.6.6.6.r.| > o ~.@.oX/.! X.|.;XC.R z c j j h y 9 i <.D r z t $.c.t x x j z c k k G q.XX/.( >.&X/...].u.i.t.i.r.8.u.!.u.r.",
"8.r.8.6.8.9.6.6.[ > > !.X.XX#.8 7 d +.L._./.$.r h j k h a r x x c c j x C C c j j j q.J.K.1.~ s r r J.Q.O.{.t.W.i.t.3.r.i.i.i.8.",
"r.i.6.3.9.t.t.6.] > , Q.X.|.^ 9 d % 0 r c C j r i t r h i r c M E E E c c z i s s w h j j r r h k r F.Q.X.~.u.u.t.8.u.].I.i.8.8.",
"i.i.8.6.3.8.i.t.[ , o Q.X.oXJ.k y 7 # + j v j j r i h r 8 @.@.m l m m m i p r r r h t t j r 0 y 8 Q oXP.@.].i.i.t.t.I.u.R.r.3.9.",
"u.u.t.8.3.r.r.6.] 3 > !.+.{.).Q.O.K A 1 G ! R z h h j j a @.r 9 t # * n j x h r h z ~ ! W G G ^ 0.Q.).Q.O.~.3.8.r.r.8.9.t.t.8.9.",
"} 9.t.8.} ] 4 < < , , Q.X.2.i ~ 1.e.q.<.:.0.X.i h j h s w ( t z h r % m E c j j h j q.Z.q.q.0.F.>.m m Z.O.R.6 ] } |  .3.5.9.9.8.",
"< 3 5 < o X . X . X 3 !...I r w r r y 8 7 8 8 y r r h h h J v 7 # 9 m m c M z h s 0 8 0 9 9 9 9 y t 9 O.-.R.O o > < 3 3 ] } [ ] ",
"X X . . . . o < o < ] I.` ! i k c c z h 9 9 F l q 8 q r w J v b 7 x d n c c h 9 w H V 8 w h h h j h a O.>.I.o . X = X O : > < > ",
"< , , ] 3.t.i.~.W.i.| H.X.2.8 9 h z 9 8 I :.:.g # Y ..y q T r y j e * n s z 0.f 8 ! i.<.D 0 r h h 8 l e.O.!.2 o < 6 o = : X O . ",
"2 ] t.~..XoXoX-XXX=Xu.t.` [.0.f w l I w.7.I 7 # P u.F e w - J a w * ; * w q :.H.l 7 l O.H.<.D a l G H.Q...{.!.[ [ [ | '.~.R.5 o ",
"5  .XX-X~.i.8.r.i.'.R.I.` {.oX~.H.W.y.Y @ e 7 P t.Z 7 @ $ # & 1 ; ; % w r 7 # O.u.g 7 7 d 2.W.W.Q.[.[.H.` ~.<X2X%XXX1X>X[.'.6 = ",
"3 i.XX Xi.t.8.8.t.3.} I.` ].].].<.G w 7 $ 7 Y u.Z @ q $ u e @ @ + % 7 w f $ # # =.W.g 7 q 7 d ^ F.~.^.H...!.].>X<X<X-X{.u.} , < ",
"[ {.{.i.r.8.9.t.r.[ 4 I.` ).|.#.y w h d 7 Y E.H 7 e U  .A @ q e e e $ q o.8.f 7 7 -.Q.g e w w 0 w q.{.y...!.i.W.~.E.i.t.t.[ 2 < ",
"| %X{.8.r.i.t.i.8.[ < W.%.{.H.c z k h 9 ^ E.G i r V i.U @ $ e e $ $ # # w 0.w.9 w 7 >.W.l w a d 0 S {.H...~.t.t.t.t.t.i.r.[ 2 < ",
"[ ).Q.u.u.i.u.i.8.] : I.%.].XX$.i z r ..^.F 7 w D 7.S 7 q q e % $ # $ # @ 7 -.<.w w 0 -.W.l w s a 0.{.H...!.i.t.i.8.t.R.i.[ 5 , ",
"5 u.W.8.8.u.8.i.r.] , R.#.].|.{./ s #.~.G 8 u 7 :.F 8 w q q 7 % $ q @ % q a 8 <.^ 0 c j 1.W.V r <.].~.H.X.W.6.8.9.r.t.E.i.} 5 o ",
"3 i.u.8.8.W.t.u.i.[ , W.%.).{.{.].J.&X0.8 h 7 I t.Z w w w d F % 7 d U % d q q o.t.z E E E ~.W.H.~.^.[.J.O.W.5 [ [ } } | | [ 5 X ",
"> t.u.6.w.^.R.R.u.[ < W.+.~.{.|.|.XX&XJ.Y H o.E.y.' p q 8 g Z q q e F w w @ N B.^.u.X.( >.W. X[.).Q.].H.%.E.< , , > = > < 3 3 > ",
"< i.u.5.| u.W.u.R.3.3 I.X.~.{.{.|.(.z.h.m.P.P.m.) p.~ q g U q s d 9 n U # g g.p.g.S.Q.G.k.s.m.~.~.~.{.H.%.u.. . X O O < o X , o ",
"< t.u. . .6.r.8.t. .4 H.X.).{.}.XXU.M.M.s.s.p.p.k.4.i.;.9.;.$ e q # Z i.7.w.I.N.s.p.s.p.d.m.l.Q.~.~.{.H.X.I.] 3.8.i.~.~.u.2 = 4 ",
", 8.8.6.t.8. .5.9. .4 R.^ ).{.}.{.&XU.x.k.h.k.m.) s.4.E.:.# % e # % @ Z E.u.l.d._ m.f.) f.l.Q. X~.~.'.I.X.{.<X5X<X,X%XoXXX| o L ",
"3 i.~.i.t.9.8.5.8. .3 P.X.{.{.{.{. Xk.x.V.h.L.=XG.z.l.0.u # $ # $ @ % # K F.k.m.P.*Xm.) N.g.m.{.'.~.{.H...[.>X>XoX=X-XoXt.] = 2 ",
"3 u.].t.r.9.5.r.u.} < W.X.|.].{.{.XX`.&XV.j.`.|.oXH.( r w 7 # e e 7 # 9 w l O.Q.{.{.B.p./.{.P.~.'.'.{.P...~.u.u.W.W.W.E.t.} > 3 ",
"[ i.i.8.8.r.t.i.u.[ < W.X. X).).{.|.|. XU.V.>XH.h r j z r S =.w 8 S =.h w h r r W }./.M.~..X{.oX~.!.{.Q...!.r.I.R.W.i.t.6.L > > ",
"} ].W.8.8.i.i.i.r.] > ~.( Z.oXoX).{.|.{.oX|.|.#X>.z h j +.-X<.0 h k J.H.D s r z Z.|.XX X{.).).{.].oXoX<.X.{.r.u.R.I.u.i.| 3 O > ",
"} ~.t.6.6.8.6.8.[ o , y.A.! ( 1.Q.&XXX|.|.].oXoX$X_.L./.>X).h k k y ! .XQ.A.K.oXXX|.{.{.oXoX.X XH.>.I ! e.r.t.i.i.i.E.r.[ 3 O 2 ",
"5 [ ] ] [ [ 5 ] 2 X > < | W.J.1.X.X.<.H.oXXX|.{._.oX&X-X;X(.w 9 h 8 Q {.{.&X|.|.}.{.{. X{.F.>./ @.<.H.W.r.8.u.u.t.i.u.8.[ 5 X 3 ",
"5 5 < : > < 3 3 < X   5 o L 9.t.!.P.C.+./ ,.H.).XXoX}.{.|.XXZ.i 8 W '.}.'.'.oX$X.X].F.O./ X.q.P.W.t.6.7.i.W.W.W.u.i.9.} ] 4 o 3 ",
"5 5 < < X = = = = X O > 3 6 < , 2 [ r.!./.q.X.! ..e.).XX=X|.-XK.@._.$XoX$XXX~.q...! X.q./.^.i.5.;.9.t.r.i.~.W.R.u.R.r.[ ] 3 o < ",
"] > 5 5 , 3 , o   . > 3 ] : . : < X , , [ r.~.(.C.^ Q ^ q.Q.XX=X>X>XoXQ.2.( I #.e./.W.r.3. .r.u.t.u.t.t.R.R.!.u.9.u.i.[ L 3 o 4 ",
"3 [ i.i.E.u.8.6.} ] 5 ] 2 . < 3 < o 6 L ] 4 = 4 9.!.).Z.X.I I -.2.O.! Q O.K.~.R.5.3. .9.r.i.t.8.| } [ }  .5.3.5. .|  .] 3 , o 5 ",
"< W.>XoX:X:X>X,X,XXX!.r.| [ | [ 2 2 L 5 } 2 .   . > <  .u.W.e.O.X.-.J.~.i.| 2 = 2 ] [ [ [ [ ] [ ] ] ] ] ] L ] [ ] 5 3 < = = > 3 ",
"2 ~.XXW.W.Q.Q.!.~.!.).~.^.].XXXX$X%X$XoX].I.8.6.| } 3 [ [ [ } | | | ] 3 5 > . O = o = > , < 6 3 2 4 3 3 2 = 3 3 X . = = o o } ] ",
"3 i.XXi.8.8.8.6.3. . .3.u.W.R.!.~.{.XXXX[.>X$XXXoX'.XXXX~..X'.~.i.2 < > 5.| < < 3 3 < : o o O X o o > o X   o < o X > 3 5 3 5  .",
"5 i.u.8.8. .|  . . .| | 8.t.t.r.8.t.R.t.3.6.8.Q.u.oX|.u.u.oXXX=XW.] , 2 [ [ 5 [ [ [ } [ < 3 > O 3 5 5 < = 3 : > : X < o L | ] | ",
"] R.i.3.8.6.6.9.8.3. .3.3.t.u.9.9.t.t.i.r.r.i.i.u.u.Q.t.r.i.r.9.] 3 > ] 3 | oX{.{.{.3.2 3 > = < [ ] 6 ] 2 5 6 > X . < : > L [ L ",
"| I.!.8.9.t.8.8.8.6.9.7.8.i.R.r.8.i.u.i.r.i.i.u.r.9.W.3.} u.9.r.] 3 2 ] < ] ~.<X,X<X{.3.6.< : < L t.W.!.~.!.~.!.W.E.~.oXI.r.[ > ",
"5 r.I.} [ | | | } |  . .6.6.6. .| | } | | 8.r.r.9.} 6.9.5.| 3.9.} < < L 5 6 5.].~.$X[.^.~.8.3 3 r..X~.{.<X:X=X:X-X{.oXoX.X$X} = ",
"3 [ } 3 3 3 3 3 3 3 3 5 ] ] ] 5 6 L ] ] ] ] ] ] L 5 5 ] ] ] 6 5 5 > , } 3 5 ] 8.t.R.r.r.t.6.< | $X].8.3.9.r.t.u.!.t.8.t.t.8.> . ",
"3 3 L 3 < > > > o o : = : : = O : < < 2 < > o O O X X X X = = : o = 6 [ 2 : 3 2 6 [ ] 6 6 > X 3.$Xt.6.6.5.5.9.8.i.r.t.r.9.L o X ",
"> < ] < > O 3 < . > > : > O . X O o o > : < = = .     . . . X < X 2 5.6 6 = = o o X o o o = o 5 8.3.[ [ | 5 5 5 6 3 3 3 3 > o , ",
": 3 5 3 < 3 ] 5 ] 5 < < [ 3 , 6 < 3 < 6 5 } ] 3 3 o . o < ] < 5 2 5 9.] 6 < > o o O < > 5 ] L 6 O o : > = o X X O O O O X X : 2 ",
"< 6 [ ] < 5 5 3 ] 6 , 3 ] 6 3 2 3 5 3 ] | 5 < < < : = X 5 [ [ 3 ] 5 3 [ < < < = X ] 3 ] | [ } L < > o O : 2 5 o : o < > < 3 2 3 "
};
