/* XPM */
static char *_[] = {
/* columns rows colors chars-per-pixel */
"64 64 238 2 ",
"   c #17120C",
".  c #2C0908",
"X  c #350505",
"o  c #3C0606",
"O  c #340E0E",
"+  c #3D0A0A",
"@  c #3F0708",
"#  c #27130E",
"$  c #39130F",
"%  c #2A1414",
"&  c #2D1919",
"*  c #271914",
"=  c #341514",
"-  c #3B1515",
";  c #3C1B1A",
":  c #371A18",
">  c #38271C",
",  c #362C1D",
"<  c #2B2828",
"1  c #322E2E",
"2  c #3D2424",
"3  c #3A3323",
"4  c #363434",
"5  c #393636",
"6  c #393738",
"7  c #3C3A3A",
"8  c #420606",
"9  c #420708",
"0  c #440A0A",
"q  c #4C0C0C",
"w  c #4A0505",
"e  c #520E0E",
"r  c #590D0D",
"t  c #500404",
"y  c #4D110D",
"u  c #53100F",
"i  c #54150D",
"p  c #4E0F10",
"a  c #530F10",
"s  c #441313",
"d  c #4B1313",
"f  c #4C1A16",
"g  c #431C1B",
"h  c #4C1B1A",
"j  c #481818",
"k  c #541212",
"l  c #5A1414",
"z  c #5D1817",
"x  c #5B1718",
"c  c #541C1C",
"v  c #5B1B1A",
"b  c #521815",
"n  c #640C0C",
"m  c #611514",
"M  c #621817",
"N  c #631C1B",
"B  c #691D1C",
"V  c #6B1615",
"C  c #731817",
"Z  c #4B231C",
"A  c #45271E",
"S  c #52231E",
"D  c #5D201F",
"F  c #5C2815",
"G  c #65201E",
"H  c #69231D",
"J  c #69361E",
"K  c #571F20",
"L  c #442423",
"P  c #4C2424",
"I  c #462D2C",
"U  c #4D2B2B",
"Y  c #552323",
"T  c #5B2322",
"R  c #532B2A",
"E  c #5C2C2B",
"W  c #582924",
"Q  c #58312A",
"!  c #433C3C",
"~  c #4B3C3C",
"^  c #463534",
"/  c #553333",
"(  c #5C3333",
")  c #5D3B3B",
"_  c #563B38",
"`  c #463D2C",
"'  c #632323",
"]  c #692322",
"[  c #642825",
"{  c #622C2B",
"}  c #6A2B2A",
"|  c #662827",
" . c #643429",
".. c #633434",
"X. c #6A3535",
"o. c #653836",
"O. c #643B3B",
"+. c #6B3D3C",
"@. c #6D3836",
"#. c #723F3E",
"$. c #7C4614",
"%. c #45403F",
"&. c #5F403F",
"*. c #6B403B",
"=. c #7E5935",
"-. c #68422C",
";. c #454342",
":. c #4C4444",
">. c #4B4B4B",
",. c #524545",
"<. c #5C4343",
"1. c #534C4C",
"2. c #5A4B4B",
"3. c #504847",
"4. c #555454",
"5. c #5C5454",
"6. c #5C5C5B",
"7. c #585857",
"8. c #50504F",
"9. c #654444",
"0. c #6B4545",
"q. c #654C4B",
"w. c #6C4B4A",
"e. c #684847",
"r. c #744545",
"t. c #784747",
"y. c #734C4B",
"u. c #7A4A4A",
"i. c #774946",
"p. c #795F48",
"a. c #625555",
"s. c #6C5353",
"d. c #635B5B",
"f. c #6B5B5B",
"g. c #665857",
"h. c #735353",
"j. c #7A5454",
"k. c #745C5C",
"l. c #795D5C",
"z. c #67574F",
"x. c #7A654C",
"c. c #7B615E",
"v. c #7B6657",
"b. c #646363",
"n. c #6B6363",
"m. c #6C6A6A",
"M. c #676768",
"N. c #746363",
"B. c #7B6463",
"V. c #716C6D",
"C. c #7D6A6A",
"Z. c #776B64",
"A. c #7E706F",
"S. c #726F70",
"D. c #7B6F70",
"F. c #757373",
"G. c #7A7475",
"H. c #7D7A7A",
"J. c #7F7876",
"K. c #83490F",
"L. c #844C13",
"P. c #894E13",
"I. c #814E1C",
"U. c #89511A",
"Y. c #935613",
"T. c #955B1B",
"R. c #835323",
"E. c #8E5924",
"W. c #84582D",
"Q. c #87592C",
"!. c #935C23",
"~. c #835A32",
"^. c #895F37",
"/. c #8D653D",
"(. c #86613D",
"). c #926538",
"_. c #825A59",
"`. c #876646",
"'. c #856D59",
"]. c #866A53",
"[. c #8B725B",
"{. c #86705C",
"}. c #93785D",
"|. c #936D47",
" X c #836463",
".X c #826C6B",
"XX c #896C6C",
"oX c #836867",
"OX c #85786D",
"+X c #847373",
"@X c #8A7373",
"#X c #8B7E73",
"$X c #837C7C",
"%X c #8A7C7B",
"&X c #887977",
"*X c #917C7C",
"=X c #91746D",
"-X c #958264",
";X c #8C827C",
":X c #8A807B",
">X c #948578",
",X c #8F8260",
"<X c #A58B72",
"1X c #857F80",
"2X c #858283",
"3X c #8B8585",
"4X c #8A8788",
"5X c #8D8B8B",
"6X c #8B8887",
"7X c #938282",
"8X c #9A8484",
"9X c #938A85",
"0X c #918D8D",
"qX c #9B8A8A",
"wX c #988887",
"eX c #908F90",
"rX c #949393",
"tX c #999696",
"yX c #999798",
"uX c #9B9A9A",
"iX c #9D9896",
"pX c #91908F",
"aX c #A19F9F",
"sX c #A09595",
"dX c #A49588",
"fX c #A4A2A2",
"gX c #A8A6A6",
"hX c #ABA9AA",
"jX c #A9A7A8",
"kX c #B1AEAE",
"lX c #B5B2B2",
"zX c #BAB5B5",
"xX c #BEBABA",
"cX c #BBB7B8",
"vX c #B0AEB0",
"bX c #C1BDBD",
"nX c #C1BFC0",
"mX c #C4C1C2",
/* pixels */
"6.6.M.b.6.b.4.6.M.b.b.M.M.b.b.b.b.b.b.b.b.M.M.M.M.b.m.M.m.m.m.m.m.m.m.m.M.b.M.b.b.b.7.6.b.M.M.M.M.m.M.b.d.6.M.M.b.d.6.d.M.7.4.8.",
"3.;.4.a.5.d.g.a.5.6.d.d.d.M.F.F.n.5.5.5.a.d.f.n.f.b.f.n.n.n.n.d.b.b.n.n.V.F.S.b.6.5.1.g.n.d.f.b.d.f.5.5.5.2.d.n.a.1.5.6.6.;.6 ! ",
"* ` > ,.q.w.w.w.s.a.s.w.d.S.H.H.g.9.9.e.e.w.e.0.9.<.<.<.<.<.&.O.<.<.2.<.5.S.F.b.2.9.<.9.9.9.e.e.e.0.w.w.w.w.w.w.w.q.9.9.,.< ^ * ",
"3 }.x.kXmXmXbXbXmXmXbXmXmXmXnXmXbXbXbXcXxXcXcXcXzXlXlXzXzXzXlXlXlXvXvXzXlXzXvXvXzXzXzXzXcXxXcXcXnXbXbXbXxXxXxXnXnXxXxXxXkXx.,X3 ",
"  , , 5 5 5 5 4 5 4 5 5 4 5 5 5 6 4 5 4 5 5 5 6 6 5 6 6 6 7 5 5 5 4 ^ / 6 4 4 4 4 4 4 4 4 4 5 6 6 4 4 4 4 4 5 4 5 5 4 4 3 , ,   ",
"# # # 7.m.m.M.V.S.F.m.V.M.m.S.m.m.m.S.m.m.S.V.V.S.F.D.D.F.D.+X=XG.D.1X1XF.G.S.F.D.B.S.S.m.S.m.S.V.m.V.m.m.m.m.m.m.m.m.V.b.* # # ",
"f d ; 5XqXt.*.i.7XrXj.t.u.u.u.i.t.t.t.t.t.u.u.u.t._.#.t.u._.#.u.t.t.u.u.u._.u.u._._.u.t.i.u.u.u.t.u.u.u.r.y.qXqXu.r.*.*XpXZ l z ",
"B M f 3XqX*.B.k.o...e.B..X.XXX+X@X@X@X@X%X@X%X*X1X1X*X*X1X1X1X1X1X1XdX1X1XdX1X1X1X*X*X*X*X%X@X@X+XXX.X.X.Xw...+.k.B.@.XXrXD C C ",
"m N j F.@X_.fX5XD.f.H.4XrXrX1X%XuXfXaXfXfXaXfXfXgXjXhXjXjXhXvXvXnXvXnXbXxXlXvXvXvXvXhXhXhXhXgXuX*X3XrXeXpX$Xf.V.5XyXy.XX3XD V V ",
"O O % F.k.h.hXfXtX4XH.G.H.f.K k h.5XrXrXtXuXuXuXuXaXfXaXfXfXkXhXhXlXlXvXzXkXjXjXhXgXfXuXuXuXpXy.k E G.H.H.2X3X4XpX6Xe.k.5X: O $ ",
"! 5 4 H.f.e.hXhXfXrX3XH.H./ 8 8 p e.J.2X4X2X4X4X0XpXpX0X%XrX0XXXXXXXXX*X<XdXuXuXyXeXrX5X5X$X0.q 8 0 9.2X4X4X4XrX:X2Xs.k.5X7 ;.! ",
"1.~ 6 1X.X) rXfXhXfXrX4X2Xg.s o X + E k.F.F.H.H.2X2X2X$XE ..E q r M C Y.Y.T.XX4X5X4X2X:XB.{ w q 0 h V.5X5X4XrX$XH.rXw.B.rX3.5.5.",
"' b ; 2X@X0.H.jXfXhXhX1X+X2Xg.- X X o s / q.n.F.F.F.F.G.2.0 8 w q Y F L.W.v.v.$X2XF.h.( d 0 q q h n.4X.X3X0X$XF.0X0Xy.oX4XP { T ",
"B v g 2XXXu.F.0XhXfXqX{ v  X4Xg.- o q 9 0 q d E g.G.F.H.m.s + 8 8 o j p.J.2XJ.k...b q q q q q Y Z.4Xj.x ..C.F.2XrX0Xh.oX0XP ] ] ",
"M m j 1X@Xj.4XH.fXfX@.p x '  X4XV.<.b k k k q 0 s E N.H.N.s o o 8 8 L 1X4XC.{ d q q e q q c w.H.0X_.v a q ( 2XrX5XrXh.B.3Xh N H ",
"m n d 2X%X_.yXG.1XqX] a a M N r.+X4Xs.c l l r q q d f.2XG.h w q 0 q Y 4XrXh.l k q u u r D V.5X@Xr.N a q 0 D 3XtXrXtXy.B.5Xg M V ",
"m m j $X@Xj.uX4XG.$X} l r l M M ' r.l.o.l a a e k 9.H.2XG.c a a e e E 0XrX3X*.l l k k l r. Xt.' l a q 8 w { 4X4XrXyXj.B.3Xh l z ",
"n n d $X@Xj.tX5XH.1XXX} r r l z x a a x l a a x y.G.2X2Xw.k r l l x v oXuXrX%Xw.x k k l z m x l e q 0 w E +X5XeXuXyXh.B.1Xj k l ",
"n r d $XXXj.tX0X2XH.5X@X} r r a a z z l z r k +.s.T l.5Xh.l k x x l v .XuX X{ l.X.a k z M N z a 0 w q E %XrX4XeXyXyXj.B.4Xg k l ",
"o O % H.XXh.tXtX3Xf.D.tXiX X| a a r M x x k l c l q v c.$XW k k x m @.rX XB l G N x k M z z r e p T h.4XuX%X.X0XuXrXy.B.1X% % O ",
"7 7 4 H..Xj.tX5X+.l K h.1XaXiXoXr.@.| x l l l a u e u c ..l l x m M N +.] N v v z z z M M E ..o.k.1XqX%Xy.K x y.tXtXy.l.2X4 5 7 ",
"6.1.7 H.C.0.uX@Xc a 8 9 m X._.7XwXwX Xz r a l l l u u e l z z N N M M M G B B B M l l l v B.%X%XoXu...x a l l D %XrXy.B.4X%.4.b.",
"6.P ; H.B.w.tXC.p a q + 0 r x N ' ' M r a r r a l u u u r l M B G G ] B B B M x l a r q e l v v M M x a a a l ' %XrXw.k.$XL U 5.",
"1.d s G.B.0.rX$XT l a 0 + p 0 d ] N x l a a l r u r u b X.@.{ T T G [ ' v m l a r e r a e a k l z k a a k x a { 3XrXy.B.$XU P :.",
":.d - G..X0.uXyXB.T a q q X . p B N M x l e r a l a e W ].} v b b b f Q b r r r e e a k k x M l z a a a q a E .XtXrXw.c.3XU P ! ",
"1.s - H..Xe.rX9X0X1Xs./ P g ; h E { ' m l l k k r l k Y i.t t r r 8 o Z Z i M l a d k l x [ { T T Y Y R o.k.$X3X3XrXy.B.%XY h ~ ",
"2.s s J.B.e.C.E | j..X&X&XF.V.Z.C.A.h.v x a a l k a q Y @.t x c u e o Z c ] H M l l k k N .X%X+X+XG.J.&X1X+Xy.T { $Xw.k.:XP h ! ",
"2.s s H.C.9.+.k l a v T ' T c f h K K a k a a a k a k Z  .n l 8 8 u 0 Z S H N z l l l k k v T K T D c K T k a k k w.w.k.2Xg d ^ ",
"3.- - J.B.9...l k k l l l k e 0 q q q q a e a p a a k c  .B t w 8 0 z S c G B G x k a a q q q e a q q a k l a a q 9.e.l.$Xg s ^ ",
"1.: * G.B.+.o.l k k v N v l k q q p h Y q 0 q w q q e Z  .V C w w V i Z f M v N k p q p Y c q q a e a a k l k a e e.0.k.2X& = 7 ",
"6.>.1 F.N.9.w.a a p x M l k e u K 9.n.<.0 0 d ) c q p g  .t i l l u X Z f l l E &.d p k s.F.w.Y k a a k k k k a l k.w.c.:X1 5 ;.",
":.:.7 S.k.e.3XO.d 8 0 k u q Y q.V.s.E 0 8 j g.F.Y q q - ( b w q 0 o $ A s p u o.1Xq.p p b o.C.&Xs.K a q a a p d e.2Xw.k.H.7 :.3.",
"Y c g m.k.9.0X5Xk./ K T ( s.G.N.R d 0 + s a.F.( 0 0 q @ = R S s s Z > $ 0 q 0 p e.H.s.d q q k O.G.&Xs.R K T O.N.4XeX0.k.1XL Y T ",
"x b g F.C.0.rXtXeX4X$X1X2XC.O.$ X 0 q d a.M./ q 9 X 8 0 X # > > > : O 0 d e q 0 0 9.G.q.p 8 q q d 9.+X4X1X1X5XeX5X4X9.k.H.g x x ",
"k a ; D.B.0.rXeXeXeX$Xh.( c 9 + + 0 h g.V./ + X + X + 0 0 X . . . X @ 8 q 0 8 o + 0 &.H.a.s w 9 0 8 c O.k.1X5X1X4X4X9.k.H.g k a ",
"x r s D.C.0.eXrXrXoXY a p p p + + f s.G./ o 9 9 U P ^ o o o @ @ o 8 @ @ d &.P U 8 + 0 e.2Xs.s 8 p 0 0 p p E C.5X5X4X9.s.1Xg k l ",
"l r s G.C.0.qXrX+X} l a k p p p f g.F...k 0 0 Z d.7.I o @ 8 0 0 9 9 @ @ 0 &.m.n.h 8 0 p e.2Xs.d 0 q q p a p K D.eX1X9.f.H.j k l ",
"l l s F.D.y.eXeXy.N x x x p p K f.$XO.x l e k g.m./ o o 8 0 9 9 + o X o 8 y e.H.a.p q q p e.$Xs.b p p p p p p w.eX5X9.f.H.j k l ",
"x c ; G.C.t.eXtX@X' x x l b T f.J.) p a k x e.g.W s o 9 0 0 + o + @ o @ o o s ( C.9.p q q b w.$Xs.b a p p p K C.eXeXe.k.H.j a x ",
"% % & F.C.h.eXtXtXB.v x l ' N.1X) q 0 0 d e.f.c 0 0 0 0 9 @ o o 9 8 o 9 X o 9 e { D.O.q p k v w.1Xs.d a k K k.5X5X5X0.k.H.& O % ",
"1 5 1 F.C.y.rXrXrXpXh.D { B.4X+.p q q 9 h n./ e u q 0 q 0 0 o o + q o o o 0 y p p e.c.d k N ] N h.5Xs.c K k.4X5X0X5Xw.k.G.< 1 1 ",
">.:.6 F..Xy.eXrXrXrXpX:X3XtX$Xb a a 0 s q.S.P q e q 0 q p U + + 9 s / $ o p 0 0 y ) H.9.b ] } ] } 1X5X+X+X4X4XeX5XeXh.l.H.4 3.>.",
":.- = G..Xw.5XeXyXyXyXiXuXuX4XE a p h q.H.F.s.F 0 q q q / / 0 0 + 9 ) E p d + + J Z.2XH.w.| ' G +.4X0XeXrX5X1X5X5XeXy.l.H.g P 1.",
"~ + ; F.C.r.eXeXrXyXyXrXtX9X[.'.k.N.D.1XJ.`.U.J y w q 9 s 8 q y q q 0 d 0 0 o i P.R.].H.2XC.c.c.'.oX1X5XeX5XeX5X5X5Xy.k.1Xg j :.",
"~ - ; S.B.0.eXeXrXrXyXyX[.T.Y.U.].OXOX].R.K.$.$.Q d d ~ _ s q e q q s 2._ s s -.I.P.P.Q.].OX:X`.U.L.R.].eX1XeX5X5X5Xw.k.H.g d ~ ",
"^ 0 - F.B.w.0XrXyXyXrXrX`./.).E.P.L.L.K.P.=.x.v.F.a.a.F.<.0 0 0 0 + 0 s.G.g.g.G.A.`.R.K.P.U.L.L.R.W.^.`.eX5XeX5XrXeX0.k.1X- + ! ",
"~ 0 - D.B.0.eXrXrXyXyXiXtX>X}.).P.U.P.U.K.=.=.v.G.F.S.<.+ o 8 + @ o X - g.H.H.2X{.(.=.$.L.P.$.K.~.].#X9XeX5X5X5XeX5Xe.k.1X- + ! ",
"~ 0 - G.N.0.eXeXrXrXyXuX9X).Y.T./.P./.>X[.I.K.$.x.H.a.s o + + 8 o X X X s N.H.x.U.K.I.[.:X~.K.~.L.K.~.3XeXeX5X5XeX5Xw.l.H.- + ! ",
":.+ - G.C.r.tXrXrXrXrXtX;XE.|.}.).T.}.aXrX>XXXW.x.s.s @ o o o o o o o o 9 Y N.].~.'.:X0XpX].L.W.[./.R.:X0X0XrX5XrX4Xe.k.H.- + ~ ",
"1.= % F.C.w.tXrX0XrXtXtXtX>XtX0X!.T.-XaXuXiX9Xl.o.l q 0 8 o 8 + + 8 8 + q e b ..l.3XtXtXrX[.P.E.3X0X>X6X5X0XrXrXtX5Xw.k.H.& : ;.",
"4.;.1 G.C.r.eXrXrXrXrXtXiXtXtXrX).).iXiX.X0.{ x k l k u s U q q 0 d Y d q k e k z { 0.+XtX9XQ.|.pXtXpX0XrX0X5X5X5X5Xw.k.H.4 ;.>.",
"1.:.4 H..X0.rXeX0XeXrXrXtXiXrXpX9XwXuXuXj.k a l z M x E l.V.d q q v G.h.T e u k u u x l.tXrX#X3X0XtXpXrXrX5X5XrXtXrXw.k.H.5 ;.:.",
"K x g H.C...+X5XrX5X4XrXyXuXtXtXrXyXyXuXiXh.' l l N @.7XuXw.e k l b h.0XC.{ v l l T j.rXtXuXyXrXpX0XrXrXrX5X5X0X5X+X..B.2XI Y T ",
"m M d n.3X#.' o.B.3XtXtXuXtXrXtXiXrXyXtXuXtXwXXX X@XrXfX&Xv k b l l T $XrX;XB.l.oX3XtXyXyXyXrXtXtXpX0X0XrX5X3XN.o.Y ..$Xn.h x x ",
"l ] v L a.2X%Xc.O.{ y.+X3X0XrXtXtXpXtXyXeXrXaXaXfXfXfXfXl.q e r e e e B.pXrXrXyXyXuXuXyXrXqXrXrXtXrXrX3XC.w.o.o.k.+X1Xd.> b M m ",
"m ] | T g ^ d.2X0X1Xk.*...0.k.%XpXrXrXrXrXyXtXtXuXiXaXfX%Xv e q e e { %XrXpXyXuXrXyXtXpXeXeX5XeX%XB.0...O.l.%X3X1Xd.I - k v G B ",
"B |  .' D h s 2 ,.m.4X5X3XoXr...+.l.@X5XeXrXtXrXtXtXuXiXtX+X' a r ..7XyXtXtXtXrXrXyXtXrXeX1Xk.+...+.B.1XeX1XV.,.2 s p x N D ] N ",
"M ' [ D D N D v s - 2 ,.m.3XeX3XoX9.E o.w.C.1XpXyXyXyXiXtXuX@X#.#.1XuXiXyXrXrXtXtX5XA.w...{ &.B.1XeX1XV.,.L - j K v ] N N N ] B ",
"' G T v v G H B M c d s ; 2 ,.n.2X5X9XG.0.E { 9.B.1XrXyXtXuXyXpXrXaXtXiXyXrX3XoX0.E E 9.C.4XeX1XG.1.I g j d v ' ' ' ' | | v D ] ",
"D D T S c D ' T v c h v c d - = 2 ~ b.H.eX3XC.e.{ E o.k.$X0XrXrXtXiXpX1Xc.O.E E w.A.4X5X1Xb.~ 1 4 5 h T K K v K K x D K Y P c x ",
"- = - : : - ; ; - = = = - = = = % & < 5 ;.b.H.5X0X+Xs.E Y E s.N.k.h...W { w.D.4X5XH.6.7 < % & 4 >.1.U g ; - - - - = ; = : = = = ",
"! ! ! ;.%.;.%.%.! 7 ! ;.~ ;.! ;.;.;.;.8.>.4 4 %.7.F.4X4X$Xs...E E ( k.$XeX5XH.d.;.< < < 1 7 ;.>.4.6.6.1.>.;.:.! %.! ! 7 %.7 ! 7 ",
"4.4.7.7.4.7.4.4.4.>.8.4.7.4.4.4.7.4.7.b.b.7.4.;.7 5 %.4.M.H.H.F.F.H.H.S.7.;.6 6 ;.>.>.8.8.7.7.7.6.b.6.6.7.6.7.7.4.4.4.4.8.4.8.8.",
"6.b.M.M.b.b.7.6.b.6.6.6.b.b.6.6.4.7.6.b.b.6.6.6.7.>.;.7 5 5 5 6 6 6 7 7 ;.;.8.6.6.6.7.6.6.6.b.b.M.M.b.b.b.b.b.b.b.b.b.6.7.4.4.6."
};
