/* XPM */
static char *_[] = {
/* columns rows colors chars-per-pixel */
"64 64 58 1 ",
"  c #010101",
". c #080706",
"X c #0B0B0B",
"o c #150404",
"O c #190706",
"+ c #100E0F",
"@ c #1B0F0E",
"# c #110F10",
"$ c #141313",
"% c #191718",
"& c #1A1A1A",
"* c #230506",
"= c #2E0604",
"- c #250A09",
"; c #2C0A0A",
": c #340606",
"> c #320B0C",
", c #390B0B",
"< c #33100F",
"1 c #3D0F10",
"2 c #241111",
"3 c #2C1212",
"4 c #201D1D",
"5 c #281D1C",
"6 c #341C1B",
"7 c #201F20",
"8 c #242424",
"9 c #282626",
"0 c #2C2C2C",
"q c #362827",
"w c #3F2927",
"e c #3A2A29",
"r c #343434",
"t c #383635",
"y c #363A3A",
"u c #3B3B3B",
"i c #4D0F0F",
"p c #420F10",
"a c #452121",
"s c #3F4040",
"d c #444444",
"f c #4C4C4C",
"g c #514E4E",
"h c #4F5050",
"j c #535353",
"k c #5B5B5B",
"l c #605F5F",
"z c #61605F",
"x c #5F6060",
"c c #636463",
"v c #686767",
"b c #696867",
"n c #6B6B6B",
"m c #737373",
"M c #7B7B7B",
"N c #838383",
"B c #8B8B8B",
"V c #919191",
/* pixels */
"BnmMmMMNBNNNBNNNNNNNMMMMmNMmmmMMMMmmnnncvvnnmcnvmmMvcvnnnvnnmmMf",
"mjjkcxnccmnmnnmnkvnmnvnxhcxkckxcjckkjjjkdfjjjfjcdjkhfhjcffjjhjky",
"MjkcnmmdfMmmmmMffnnmmnnjtmcckcckrnczkkkcrkjjjjkc0kkkjjjnyjkkjkcu",
"mkkcvncjnmmmmmnknnmMnvvjcnxkkccfkcckkkjdfjjhjjkdfkxjjjjddjjkkkcu",
"Mkckcnnnnnnvnnnnnvmmnccncnckxncccccxkkjjkjjjjjjjkkxjkjjjjjjjjkct",
"Mkckkmcccnvvnnvnvccnnvncxcckccckkccckkjjxkjhhjjjjjjkkkjffjjjjfcu",
"Mmnkcnnkxnvcvvcnvxcnnnmncxxjkcccnccckkkjkkhffhhjjfjkkkfffjhjkxku",
"Mmtjcnckxncvnvcnnkcnnnnnvkxkkckcnnccczkjjjffhhjjkhjkjjffhjjjcxuu",
"Bxfcxnxkcnccvvcccccccnccxxxxccxvnnccxxjjkjjhjkjjjjjjjjjjjkjkjrft",
"Nnmvcvxxcnxcnccxcczcxkcvvvcxvxxvnnncxxkjkjjjjkjkkjjkkjjjjjjjjjky",
"Ncvccvkkcnvcvncxkckckkfkkjhjhjhhjjkkfhjssfdffdffddddffddjjjfjfhr",
"Mccccvxxcvvcvvcxkkjjkr.X.XXXXXXXXXXXXXX$XXXX...XXX..XX rkjjjfddr",
"McxxxcxcvvvcvnvxkkjkjkyykhhfffhfjfjhdfdasddddfdddtusdujMjjfjfdf0",
"mkvccvcccvvcvccxkkkkkcvdjmckxxcxccccjckjjkhyrrtjhffjhnNffhhjfdf0",
"Mnnbnnxcvxxxccxxxjukkxnvdknjkkkxkkklkkjgjj9    9jddfnMdfffydjjhr",
"nmdknvvvkawkvcxxkjXukzxcndhxjx0X$X++X+++#+. 04 XffdcNjdfjr fcntr",
"Mhycnnnkq:,ecnvcxhXrdbnvccdfcn8.            ft +fdcNhjdhr &nf0dr",
"nkcnnmz6=;=:qnnvcjXjfdmbzccufma%  #. $77&4X &$ $dcMhjhjy &hnfjj0",
"mjknnn9-5633OumncjXhnfdczcckdhnh  0. rkjjkt.  .tnNhjhkt &hjnjjjr",
"nkkcccuuauusufnnvkXjcvddcxkjkdfj88d0&dffhgjddddnMjffju %fhjnjjh0",
"njkkcc5;<<<<+ynnvjXjcccddvkkkzufnckcjjffjjffkfcNjhfju $fhfjnhjh0",
"nfkccnk3:;>*0xxkxhXhcxkxdfckkkkufckkjjfjjjjjdkMddfju &hjfffxfdfr",
"njkxxvnj6i;0zkkkcjXjvcxkcfdkjkkzsfckjhjjkjjfcMfdjjy &kjhdffcjkfr",
"cnffkcccj69xkhkxvhXjbbvxkzfukkklkdfkjjjjjkjcMfffjt &jkjjffhcxvtr",
"vd0jkzckkjkkxjkkxhXhzcckkcbdukkjkcufkkfjjjnNhfgju $hjkkhjhjvh0dr",
"vjkkjdusdduuyyskxh.fxkxkkxczdskkjkkddjfjhvNfffjy &fkjjffffhnhjj0",
"vhhks&rystr00$XkkjXhckkkjkzkkdskkjkkrdjfnNfffhy %jjjjjhhffhcjjj0",
"vdhks9jdffdfj$Xjjf.hxkkjjkkjjksyjgjjgyunNkjhjy &hhfkjkjhhfhvhhjr",
"vhjkd0fsssasf$XjjfXhckkjkjjjjjkuyjjjjjfNjkjks %fhhhkkkjjjhfvhfjr",
"nkkjd0hfdssss$Xkxh.fkkjjjhkhhkjkdujkjjkjkjku %fhjjhkjjjjjhhnkfjr",
"mkxjd0hdarrrs$XjxjXfkjkjjjjhhjkkkdujjkjjkks %hjhjkkkkkhjjjjvjkkr",
"cmfsd0ju5<p2s$XjkhXfkjjjhhhhjkjjjjtdjjffkf &jhhhjjkjjkjkjhjvcnds",
"nd0ft0jt--;2s#XjkhXdkjjkjkjjkjjkkjcmjhffjj8fcfjjkkkhjjkxkjjmkrdt",
"vfjhs9ft1,;@d$Xjkf.fkjkkkkkjkjjkjnBjfjhjjjkujjjjjkkjjjjxkfjnjkcu",
"vfffu8hr3327fX+kkf.fkjkkkkkkjjjjcBkjjjjkxkkktfkkkkkkkkkkkjkmkjxt",
"vdfjy8fssyysd#XjkfXdkjjjjjkjjkfcNjjjjd$dkkjkkudkkkkkkkkkkkjmkkxu",
"nfhju7hdduuddX+hjfXskjjjjjkjkkcBkjkkfXXrfkkkkjydkkkkjkjkkjjnkjky",
"vfhkt8jdfsssdX+kjdXdkjjjjjjkjnBckkkjXXdkufkjkjjrfjjkkkjkkjjmkjkt",
"vfjkt&r009890.#jkd.dkkjjkjkhcBccccjXXfkkktdjjjkjtdkkkkhjjjjmkjct",
"xmjds         $jkdXdkkjkkkkvBkcnnjXXfkkjkjrdkjjkxyfkjjjjjhkmvndu",
"nf9hhuuutsduusdkkdXdkkjjkjnVckkcjXXjcjkjjjjrdjjkkjrfjjhjjhjmk0du",
"njjkjhjkhkkkjkkjkfXdkjjjknBkkkkjXXfcjjkkjjfjtujjkkjrdjfjjhjmkjky",
"mjjjjhfjjfjjhjjkkdXdkjkhnVzjjkfXXdjkjjkjfjfjjrdjjfjfrdhjfhjnjhkr",
"nkjjjjhjjhkkhjkjjdXdjffxBxckjfXXfjfkjfjjjffffjrdkdfjfrujfhjnhdj0",
"nkkkhjjjjjjjjjjjhdXdkhcNkkckfXXfjjjkjfjhffffjhjruffhfj0dkfhnfdjr",
"mjjjjjjjjhhhjhjjjdXdjnBjkkcjX.fjfjjjfjjjfjfjjffjrthhfjfrdhfnfdjr",
"mhjjjjjjjhhfhffhjdXunBxjkxjXXfkjjffkjjjjjfffffffjrukjffhrdjcjfjy",
"vMjfjhjjjjhjjjjjjd hBkjhkjX.fkjjjjjjjjjjjjjjjjffhjtdjhjjfrdcxmdt",
"nf0fkhkkjjjkhjjkkd9Mkjxkf#Xfxkkkkjhjjjjjjkhjjhhkkkjydkfjjfynkras",
"vfhjhhjjjhjkjjjkjfxkhkvhXXfkkkkjjjhhjkkjjjhjjhhjjjjkydjjjjjcjjxs",
"cfhjjhjjjkhhjjhjhfdfjkhXXhxjjkjjjjhkjkjjhhhhjjhfhjjjjrskjgffhhky",
"vfjjhjjjjhfhhhfhkffjkf..fkkkhjjjhffjhjjjjffffffdfffjhfrufjffhfhy",
"nfhhhjjkjhhhjhhjjffjkduknmMnncnbcvcncvnccczcccccckkccvkkkfhhhfhy",
"vdfffjhhjjjjjhjkfffjhkckxvncxxxxkzxckkkkkkjkxkkkkjkkkkkkjhhjfshr",
"nffffhhjjhjkhjkjjffhjffhjkxkhjhjhffkjfjhffffffhhjddhffdffhhjhdhr",
"cmjdjhhjjhjkjhkjjjhjkjjjxckkkjjjkjhkjjkjfjffhfjjjfjjhjfjhfjhcmdy",
"nj0fjhhjhhjjhjjkkjjkkjjjkckkkkkkkkkkjjkkjhhfjhhjkjkjhjfhhhhjxysu",
"bdfjhhfhhhkjjjjkkjjhjkjjjklzckkkkkckkkkjjhjjjjhkkkjjjjjjjhjkkhky",
"njhhhjfffhjjhjjkjhhjkkjkkkkkkkcnvcckkkkkkhjjjjjkkkkkjjjjjjjkkkkt",
"mjkjhhfdfhjjhhhjjhhjkjjjkjjkkkzcnkkkjjjjkkjhkhjjkjjkkkhhkhjkkjku",
"nhjhhjkkfhfjjfkvjhhjkjkchjkjjkknkkkkjjjckkkjkjkckjjkkkjvkjjkkjky",
"mfjhffbkykhhhgck0kjfkjkc0kjjjkcb0kkjkhkn0kjkkjjm0kjkkkjmrhjgkjkr",
"mfkjhkhyfkjjjkhujkjkkkjtfxkkkkkudkkkjhkdfxkkckxddckcxkkfdkkkckcu",
"frrrrtrtrrrrrrrutrrry0rdtttyrrruyryrrrrudtuttytuuyytuuttdtytyyu8"
};
