/* XPM */
static char *arrowright[] = {
/* columns rows colors chars-per-pixel */
"64 64 32 1 ",
"  c black",
". c #010101",
"X c #020202",
"o c #030303",
"O c #0C0C0C",
"+ c #0F0F0F",
"@ c #101010",
"# c #111111",
"$ c #121212",
"% c #1B1B1B",
"& c #202020",
"* c #848484",
"= c #858585",
"- c #898989",
"; c #8B8B8B",
": c #8C8C8C",
"> c #8D8D8D",
", c #8E8E8E",
"< c #8F8F8F",
"1 c #9F9F9F",
"2 c #A0A0A0",
"3 c #EBEBEB",
"4 c #EEEEEE",
"5 c #EFEFEF",
"6 c #F0F0F0",
"7 c #F7F7F7",
"8 c #FAFAFA",
"9 c #FBFBFB",
"0 c #FCFCFC",
"q c #FDFDFD",
"w c #FEFEFE",
"e c #FFFFFF",
/* pixels */
"                               %= o                             ",
"                               $9<                              ",
"                               $3e; o                           ",
"                               $5ee: o                          ",
"                               $5e9e< o                         ",
"                             o $5ee9e: o                        ",
"                               $5eee9e: o                       ",
"                               $5eeee9e< oo                     ",
"                               $5e9eee9e: o                     ",
"                               $5eeeeee9e: o                    ",
"                               $5eeeeeee9e: o                   ",
"                               $5eeeeeeeeee: o                  ",
"                               $5e9eeeeeee9e; o                 ",
"                               $5eeeeeeeeee9e: o                ",
"                               $5e9eeeeeeeee9e: o               ",
"                               $5eeeeeeeeeeee9e: oo             ",
"                               $5eeeeeeeeeeeee9e: o             ",
"                             o $5eeeeeeeeeeeeee9e: o            ",
"                               $5eeeeeeeeeeeeeee9e< o           ",
"                               $5eeeeeeeeeeeeeeeeee: o          ",
"                               $5e9eeeeeeeeeeeeeee9e; o         ",
"                     o         $5eeeeeeeeeeeeeeeeee9e: o        ",
"                               $5eeeeeeeeeeeeeeeeeee9e: o       ",
"$$$$$$$$$$$$$$++$$$$$$$$$$$$$$+%5e9eeeeeeeeeeeeeeeeee9e: oo     ",
"65555555555555556555555555555555eeeeeeeeeeeeeeeeeeeeee9e< o     ",
"eeeeeeeeeeeeeeeeeeeeeeeeeeeeeeeeeeeeeeeeeeeeeeeeeeeeeee9e:      ",
"eeeeee9eeee9ee9eeeeeee9eeee9ee9eeeeeeeeeeeeeeeeeeeeeeeeeee: oo  ",
"eeeeeeeeeeeeeeeeeeeeeeeeeeeeeeeeeeeeeeeeeeeeeeeeeeeeeeeee9e: o  ",
"eeeeeeeeeeeeeeeeeeeeeeeeeeeeeeeeeeeeeeeeeeeeeeeeeeeeeeeeee9e: o ",
"eeeeeeeeeeeeeeeeeeeeeeeeeeeeeeeeeeeeeeeeeeeeeeeeeeeeeeeeeee9e: o",
"eeeeeeeeeeeeeeeeeeeeeeeeeeeeeeeeeeeeeeeeeeeeeeeeeeeeeeeeeeee9e: ",
"eeeeeeeeeeeeeeeeeeeeeeeeeeeeeeeeeeeeeeeeeeeeeeeeeeeeeeeeeeeeeee2",
"eeeeeeeeeeeeeeeeeeeeeeeeeeeeeeeeeeeeeeeeeeeeeeeeeeeeeeeeeeeee9e1",
"eeeeeeeeeeeeeeeeeeeeeeeeeeeeeeeeeeeeeeeeeeeeeeeeeeeeeeeeeeee9e; ",
"eeeeeeeeeeeeeeeeeeeeeeeeeeeeeeeeeeeeeeeeeeeeeeeeeeeeeeeeeee9e:  ",
"eeeeeeeeeeeeeeeeeeeeeeeeeeeeeeeeeeeeeeeeeeeeeeeeeeeeeeeeee9e: o ",
"eeeeeeeeeeeeeeeeeeeeeeeeeeeeeeeeeeeeeeeeeeeeeeeeeeeeeeeee9e: o  ",
"e9ee9eeee9eeeeeee9ee9eeee9eeeeeeeeeeeeeeeeeeeeeeeeeeeeee9e: o   ",
"eeeeeeeeeeeeeeeeeeeeeeeeeeeeeeeeeeeeeeeeeeeeeeeeeeeeeee9e: o    ",
"55555555555555565555555555555556eeeeeeeeeeeeeeeeeeeeee9e: o     ",
"++$$$$$$$$$$$$$$++$$$$$$$$$$$$+%5eeeeeeeeeeeeeeeeeeee9e: o      ",
"                               $5eeeeeeeeeeeeeeeeeee9e: o       ",
"          o               o  o $5eeeeeeeeeeeeeeeeee9e: o        ",
"                               $5eeeeeeeeeeeeeeeee9e: oo        ",
"                               $5eeeeeeeeeeeeeeee9e; o          ",
"                               $5eeeeeeeeeeeeeee9e: o           ",
"                               $5eeeeeeeeeeeeee9e:              ",
"                               $5e9eeeeeeeeeee9e: o             ",
"                               $5eeeeeeeeeeee9e: o              ",
"                               $5eeeeeeeeeee9e: o               ",
"                               $5eeeeeeeeee9e: o                ",
"                               $5eeeeeeeee9e: o                 ",
"                               $5e9eeeeee9e; oo                 ",
"                             o $5eeeeeee9e: o                   ",
"                               $5eeeeee9e:                      ",
"                               $5eeeee9e: o                     ",
"                               $5e9ee9e; o                      ",
"                               $5eee9e: oo                      ",
"                               $5e99e:                          ",
"                               $5e9e: o                         ",
"                               $5ee: o                          ",
"                               $3e: o                           ",
"                               +7: o                            ",
"                               %= o                             "
};
