/* XPM */
static char *arrowdown[] = {
/* columns rows colors chars-per-pixel */
"64 64 30 1 ",
"  c black",
". c #010101",
"X c #020202",
"o c #030303",
"O c #0C0C0C",
"+ c #0F0F0F",
"@ c #101010",
"# c #111111",
"$ c #121212",
"% c #1B1B1B",
"& c #202020",
"* c #848484",
"= c #868686",
"- c #8A8A8A",
"; c #8B8B8B",
": c #8C8C8C",
"> c #8D8D8D",
", c #8E8E8E",
"< c #8F8F8F",
"1 c #9F9F9F",
"2 c #A0A0A0",
"3 c #ECECEC",
"4 c #EEEEEE",
"5 c #EFEFEF",
"6 c #F0F0F0",
"7 c #FAFAFA",
"8 c #FBFBFB",
"9 c #FDFDFD",
"0 c #FEFEFE",
"q c #FFFFFF",
/* pixels */
"                       @6qqqqqqqqqqqqqq3@ o                     ",
"                       @6qqqqqqqqqqqqqq3@                       ",
"                       @3qqqqqqqqqqqqqq3$                       ",
"                     o @3qqqqqqqqqqqqqq6@                       ",
"                       @3qqqqqqqqqqqqqq3@                       ",
"                     o @3qqqqqqqqqqqqqq3@ o                     ",
"                       @6qqqqqqqqqqqqqq3@ o                     ",
"                     o @6qqqqqqqqqqqqqq6@                       ",
"                       @3qqqqqqqqqqqqqq3@                       ",
"                       @3qqqqqqqqqqqqqq3@                       ",
"                       @3qqqqqqqqqqqqqq6@                       ",
"                     o @3qqqqqqqqqqqqqq6@ o                     ",
"                       @6qqqqqqqqqqqqqq3@                       ",
"                       @6qqqqqqqqqqqqqq3@                       ",
"                       @3qqqqqqqqqqqqqq3@                       ",
"                     o @3qqqqqqqqqqqqqq3@ o                     ",
"                     o @6qqqqqqqqqqqqqq6@                       ",
"                       @3qqqqqqqqqqqqqq6@                       ",
"                     o @3qqqqqqqqqqqqqq3@ o                     ",
"                       @3qqqqqqqqqqqqqq3@                       ",
"                       @6qqqqqqqqqqqqqq3@ o                     ",
"                       @3qqqqqqqqqqqqqq3$                       ",
"                       @3qqqqqqqqqqqqqq3@                       ",
"                     o $3qqqqqqqqqqqqqq6@ o                     ",
"                     o @6qqqqqqqqqqqqqq3@ o                     ",
"                       @6qqqqqqqqqqqqqq3@                       ",
"                       @3qqqqqqqqqqqqqq3@ o                     ",
"                       @3qqqqqqqqqqqqqq6@                       ",
"                     o @3qqqqqqqqqqqqqq3@                       ",
"       oo o    oo    o @3qqqqqqqqqqqqqq3@ o o  o   o o o  o  o  ",
"                     o @6qqqqqqqqqqqqqq3@                       ",
"%@@@@@$@@@@@@@@@@@@@@@+&6qqqqqqqqqqqqqq6&+$@@@@@@@@@@@$@@@@@@@@%",
"*q3363336333633363336333qqqqqqqqqqqqqqqq3333663333663333663333q*",
" >qqqqqqqqqqqqqqqqqqqqqqqqqqqqqqqqqqqqqqqqqqqqqqqqqqqqqqqqqqqq> ",
"  >q8qqqqqqqqqqqqqqqqqqqqqqqqqqqqqqqqqqqqqqqqqqqqqqqqqq8qqq8q>  ",
" o >q8qqqqqqqqqqqqqqqqqqqqqqqqqqqqqqqqqqqqqqqqqqqqqqqqqqqq8q> o ",
"  o >qqqqqqqqqqqqqqqqqqqqqqqqqqqqqqqqqqqqqqqqqqqqqqqqqqqq8q> o  ",
"   o >q8qqqqqqqqqqqqqqqqqqqqqqqqqqqqqqqqqqqqqqqqqqqqqqqq8q>     ",
"   oo >q8qqqqqqqqqqqqqqqqqqqqqqqqqqqqqqqqqqqqqqqqqqqqqq8q> o    ",
"       >q8qqqqqqqqqqqqqqqqqqqqqqqqqqqqqqqqqqqqqqqqqqqq8q> oo    ",
"      o >q8qqqqqqqqqqqqqqqqqqqqqqqqqqqqqqqqqqqqqqqqqq8q>        ",
"       o >q8qqqqqqqqqqqqqqqqqqqqqqqqqqqqqqqqqqqqqqqq8q> o       ",
"        o >q8qqqqqqqqqqqqqqqqqqqqqqqqqqqqqqqqqqqqqq8q> o        ",
"         o >q8qqqqqqqqqqqqqqqqqqqqqqqqqqqqqqqqqqqq8q> o         ",
"          o >q8qqqqqqqqqqqqqqqqqqqqqqqqqqqqqqqqqq8q- o          ",
"          oo >q8qqqqqqqqqqqqqqqqqqqqqqqqqqqqqqqq8q> o           ",
"              >q8qqqqqqqqqqqqqqqqqqqqqqqqqqqqqq8q>  o           ",
"             o >q8qqqqqqqqqqqqqqqqqqqqqqqqqqqq8q> o             ",
"             oo >q8qqqqqqqqqqqqqqqqqqqqqqqqqq8q> o              ",
"               o >q8qqqqqqqqqqqqqqqqqqqqqqqq8q>                 ",
"                o >q8qqqqqqqqqqqqqqqqqqqqqq8q> oo               ",
"                 o >q8qqqqqqqqqqqqqqqqqqqq8q> o                 ",
"                 oo >q8qqqqqqqqqqqqqqqqqq8q- o                  ",
"                   o >q8qqqqqqqqqqqqqqqq8q> o                   ",
"                      >q8qqqqqqqqqqqqqq8q>  o                   ",
"                     o >q8qqqqqqqqqqqq8q> o                     ",
"                      o >q8qqqqqqqqqq8q- o                      ",
"                      oo >q8qqqqqqqq8q> o                       ",
"                          >q8qqqqqq8q>                          ",
"                         o -q8qqqq8q> o                         ",
"                          o >qqqq8q> o                          ",
"                           o >q88q> o                           ",
"                           oo -qq- o                            ",
"                             o 21 o                             "
};
