/* XPM */
static char *arrowUp[] = {
/* columns rows colors chars-per-pixel */
"64 64 30 1 ",
"  c black",
". c #010101",
"X c #020202",
"o c #030303",
"O c #0C0C0C",
"+ c #0F0F0F",
"@ c #101010",
"# c #111111",
"$ c #121212",
"% c #1B1B1B",
"& c #202020",
"* c #848484",
"= c #868686",
"- c #8A8A8A",
"; c #8B8B8B",
": c #8C8C8C",
"> c #8D8D8D",
", c #8E8E8E",
"< c #8F8F8F",
"1 c #9F9F9F",
"2 c #A0A0A0",
"3 c #ECECEC",
"4 c #EEEEEE",
"5 c #EFEFEF",
"6 c #F0F0F0",
"7 c #FAFAFA",
"8 c #FBFBFB",
"9 c #FDFDFD",
"0 c #FEFEFE",
"q c #FFFFFF",
/* pixels */
"                             o 12 o                             ",
"                              ;qq;                              ",
"                          oo <q8qq< o                           ",
"                          o ;q8qq8q; o                          ",
"                         o <q8qqqq8q<                           ",
"                        o ;q8qqqqqq8q< o                        ",
"                       o <q8qqqqqqqq8q< oo                      ",
"                        <q8qqqqqqqqqq8q< o                      ",
"                     o <q8qqqqqqqqqqqq8q<                       ",
"                    o ;q8qqqqqqqqqqqqqq8q< o                    ",
"                     <q8qqqqqqqqqqqqqqqq8q< o                   ",
"                  o <q8qqqqqqqqqqqqqqqqqq8q< o                  ",
"                 o <q8qqqqqqqqqqqqqqqqqqqq8q< o                 ",
"                  <q8qqqqqqqqqqqqqqqqqqqqqq8q<                  ",
"               o <q8qqqqqqqqqqqqqqqqqqqqqqqq8q; o               ",
"              o ;q8qqqqqqqqqqqqqqqqqqqqqqqqqq8q< oo             ",
"             o <q8qqqqqqqqqqqqqqqqqqqqqqqqqqqq8q<               ",
"            o ;q8qqqqqqqqqqqqqqqqqqqqqqqqqqqqqq8q< o            ",
"             <q8qqqqqqqqqqqqqqqqqqqqqqqqqqqqqqqq8q< o           ",
"          o <q8qqqqqqqqqqqqqqqqqqqqqqqqqqqqqqqqqq8q< o          ",
"         o <q8qqqqqqqqqqqqqqqqqqqqqqqqqqqqqqqqqqqq8q< o         ",
"          <q8qqqqqqqqqqqqqqqqqqqqqqqqqqqqqqqqqqqqqq8q<          ",
"       o <q8qqqqqqqqqqqqqqqqqqqqqqqqqqqqqqqqqqqqqqqq8q; o       ",
"      o ;q8qqqqqqqqqqqqqqqqqqqqqqqqqqqqqqqqqqqqqqqqqq8q< oo     ",
"     o <q8qqqqqqqqqqqqqqqqqqqqqqqqqqqqqqqqqqqqqqqqqqqq8q< o     ",
"   o  <q8qqqqqqqqqqqqqqqqqqqqqqqqqqqqqqqqqqqqqqqqqqqqqq8q<      ",
"   o <q8qqqqqqqqqqqqqqqqqqqqqqqqqqqqqqqqqqqqqqqqqqqqqqqq8q< o   ",
"  o ;q8qqqqqqqqqqqqqqqqqqqqqqqqqqqqqqqqqqqqqqqqqqqqqqqqqq8q< o  ",
" o ;q8qqqqqqqqqqqqqqqqqqqqqqqqqqqqqqqqqqqqqqqqqqqqqqqqqqqq8q<   ",
"o <q8qqq8qqqqqqqqqqqqqqqqqqqqqqqqqqqqqqqqqqqqqqq8qqqqqqqqqq8q< o",
" <qqqqqqqqqqqqqqqqqqqqqqqqqqqqqqqqqqqqqqqqqqqqqqqqqqqqqqqqqq8q< ",
"=q3333363336333633333336qqqqqqqqqqqqqqqq6633336633336633336333q;",
"%####################$+&3qqqqqqqqqqqqqq3&+#####################%",
"                       #3qqqqqqqqqqqqqq3#                       ",
"  o    oo    oo  oo  o $3qqqqqqqqqqqqqq3$ o o  o o    o o  o    ",
"                       #3qqqqqqqqqqqqqq6#                       ",
"                       #6qqqqqqqqqqqqqq3# o                     ",
"                       #6qqqqqqqqqqqqqq3#                       ",
"                       #3qqqqqqqqqqqqqq3#                       ",
"                       #3qqqqqqqqqqqqqq6#                       ",
"                       #6qqqqqqqqqqqqqq3#                       ",
"                       #3qqqqqqqqqqqqqq3#                       ",
"                       #3qqqqqqqqqqqqqq6#                       ",
"                     o #3qqqqqqqqqqqqqq6#                       ",
"                     o #6qqqqqqqqqqqqqq3# o                     ",
"                       #3qqqqqqqqqqqqqq3#                       ",
"                       #3qqqqqqqqqqqqqq3# o                     ",
"                       #3qqqqqqqqqqqqqq3#                       ",
"                       #6qqqqqqqqqqqqqq6#                       ",
"                     o #6qqqqqqqqqqqqqq6#                       ",
"                       #3qqqqqqqqqqqqqq3# o                     ",
"                       #3qqqqqqqqqqqqqq3#                       ",
"                       #3qqqqqqqqqqqqqq3# o                     ",
"                       #3qqqqqqqqqqqqqq3#                       ",
"                     o #6qqqqqqqqqqqqqq3#                       ",
"                       #6qqqqqqqqqqqqqq6# o                     ",
"                     o #3qqqqqqqqqqqqqq3# o                     ",
"                       #3qqqqqqqqqqqqqq3#                       ",
"                     o #3qqqqqqqqqqqqqq3#                       ",
"                       #3qqqqqqqqqqqqqq6#                       ",
"                       #6qqqqqqqqqqqqqq3#                       ",
"                       #6qqqqqqqqqqqqqq3# o                     ",
"                       #3qqqqqqqqqqqqqq3# o                     ",
"                       #3qqqqqqqqqqqqqq6#                       "
};
