/* XPM */
static char *arrowleft[] = {
/* columns rows colors chars-per-pixel */
"64 64 32 1 ",
"  c black",
". c #010101",
"X c #020202",
"o c #030303",
"O c #0C0C0C",
"+ c #0F0F0F",
"@ c #101010",
"# c #111111",
"$ c #121212",
"% c #1B1B1B",
"& c #202020",
"* c #848484",
"= c #858585",
"- c #898989",
"; c #8B8B8B",
": c #8C8C8C",
"> c #8D8D8D",
", c #8E8E8E",
"< c #8F8F8F",
"1 c #9F9F9F",
"2 c #A0A0A0",
"3 c #EBEBEB",
"4 c #EEEEEE",
"5 c #EFEFEF",
"6 c #F0F0F0",
"7 c #F7F7F7",
"8 c #FAFAFA",
"9 c #FBFBFB",
"0 c #FCFCFC",
"q c #FDFDFD",
"w c #FEFEFE",
"e c #FFFFFF",
/* pixels */
"                             o =%                               ",
"                              <8+                               ",
"                           o :e3#                               ",
"                         oo :ee5#                               ",
"                         o :e8e5#                               ",
"                        o :e8ee5# o                             ",
"                       o :e8eee5#                               ",
"                      o :eeeeee5# o                             ",
"                     o :e8eeeee5#                               ",
"                   oo :e8eeeeee5#                               ",
"                   o :e8eeeeeee5# o                             ",
"                  o :eeeeeeee8e5#                               ",
"                 o :e8eeeeeeeee5#                               ",
"                o :e8eeeeeeee8e5#                               ",
"               o :e8eeeeeeeeeee5#                               ",
"              o :e8eeeeeeeeeeee5# o                             ",
"             o :e8eeeeeeeeeeeee5# o                             ",
"           oo :e8eeeeeeeeeeee8e5#                               ",
"           o :e8eeeeeeeeeeeeeee5#                               ",
"          o :eeeeeeeeeeeeeeeeee5#                               ",
"         o :e8eeeeeeeeeeeeeeeee5#                               ",
"        o :e8eeeeeeeeeeeeeeeeee5$ oo o o o       o   oo   o    o",
"       o :e8eeeeeeeeeeeeeeeeeee5#                               ",
"      o :e8eeeeeeeeeeeeeeeeeeee5&+#############+################",
"     o :e8eeeeeeeeeeeeeeeeeeeeee65555555555555555555555566555555",
"   oo :eeeeeeeeeeeeeeeeeeeeeeeeeeeeeeeeeeeeeeeeeeeeeeeeeeeeeeeee",
"   o :e8eeeeeeeeeeeeeeeeeeeeeeeeeeeeeee8ee8ee8eeeeeee8eeeeeeeee8",
"  o :e8eeeeeeeeeeeeeeeeeeeeeeeeeeeeeeeeeeeeeeeeeeeeeeeeeeeeeeeee",
" o :e8eeeeeeeeeeeeeeeeeeeeeeeeeeeeeeeeeeeeeeeeeeeeeeeeeeeeeeeeee",
"o :e8eeeeeeeeeeeeeeeeeeeeeeeeeeeeeeeeeeeeeeeeeeeeeeeeeeeeeeeeeee",
" :e8eeeeeeeeeeeeeeeeeeeeeeeeeeeeeeeeeeeeeeeeeeeeeeeeeeeeeeeeeeee",
"2eeeeeeeeeeeeeeeeeeeeeeeeeeeeeeeeeeeeeeeeeeeeeeeeeeeeeeeeeeeeeee",
"1eeeeeeeeeeeeeeeeeeeeeeeeeeeeeeeeeeeeeeeeeeeeeeeeeeeeeeeeeeeeeee",
" ;e8eeeeeeeeeeeeeeeeeeeeeeeeeeeeeeeeeeeeeeeeeeeeeeeeeeeeeeeeeeee",
"  :e8eeeeeeeeeeeeeeeeeeeeeeeeeeeeeeeeeeeeeeeeeeeeeeeeeeeeeeeeeee",
" o :e8eeeeeeeeeeeeeeeeeeeeeeeeeeeeeeeeeeeeeeeeeeeeeeeeeeeeeeeeee",
"  o :e8eeeeeeeeeeeeeeeeeeeeeeeeeeeeeeeeeeeeeeeeeeeeeeeeeeeeeeeee",
"   o :e8eeeeeeeeeeeeeeeeeeeeeeeeeeeeee8e8eeeeeeeee8eeeeeee8ee8ee",
"    o :e8eeeeeeeeeeeeeeeeeeeeeeeeeeeeeeeeeeeeeeeeeeeeeeeeeeeeeee",
"     o :e8eeeeeeeeeeeeeeeeeeeeee53555555555555665555555555555555",
"     oo :eeeeeeeeeeeeeeeeeeeeee5%+######################+#######",
"       o :e8eeeeeeeeeeeeeeeeeee5#                               ",
"        o :e8eeeeeeeeeeeeeeee8e5$ o  o o o    o o    oo        o",
"         o :e8eeeeeeeeeeeeeeeee5#                               ",
"          o :e8eeeeeeeeeeeeee8e5#                               ",
"           o :e8eeeeeeeeeeeeeee5#                               ",
"            o :e8eeeeeeeeeeeeee5#                               ",
"             o :e8eeeeeeeeeeeee5# o                             ",
"              o :e8eeeeeeeeeeee5#                               ",
"              oo :e8eeeeeeeeeee5#                               ",
"                o :e8eeeeeeeeee5# o                             ",
"                 o :e8eeeeeee8e5#                               ",
"                  o :e8eeeeeeee5# o                             ",
"                  oo ;eeeeeeeee5#                               ",
"                      :e8eeeeee5#                               ",
"                     o :e8eeeee5# o                             ",
"                      o :e8eeee5#                               ",
"                      oo :e8eee5# o                             ",
"                        o ;e8ee5#                               ",
"                         o ;e8e5#                               ",
"                          o :ee5#                               ",
"                           o :e3#                               ",
"                            o :8# o                             ",
"                               =%                               "
};
