/* XPM */
static char * e_xpm[] = {
"64 64 16 1",
" 	c #FFFFFF",
".	c #4D4D4D",
"+	c #000000",
"@	c #9E9E9E",
"#	c #E7E7E7",
"$	c #FEFEFE",
"%	c #FCFCFC",
"&	c #FDFDFD",
"*	c #FBFBFB",
"=	c #F9F9F9",
"-	c #FAFAFA",
";	c #F8F8F8",
">	c #909090",
",	c #8F8F8F",
"'	c #8D8D8D",
")	c #8C8C8C",
"                                                                ",
"                                                                ",
"                                                                ",
"                                                                ",
"                                                                ",
"                                                                ",
"                                                                ",
"                                                                ",
"                                                                ",
"                                                                ",
"                                                                ",
"                  .+++++++++++++++++++++++++++@                 ",
"                  .+++++++++++++++++++++++++++@                 ",
"                  .+++++++++++++++++++++++++++@                 ",
"                  .+++++++++++++++++++++++++++@                 ",
"                  .+++++++++++++++++++++++++++@                 ",
"                  .+++++#                                       ",
"                  .+++++#                                       ",
"                  .+++++#                                       ",
"                  .+++++#                                       ",
"                  .+++++#                                       ",
"                  .+++++#                                       ",
"                  .+++++#                                       ",
"                  .+++++#                                       ",
"                  .+++++#             $$$                       ",
"                  .+++++#             $%%$                      ",
"                  .+++++#             &*=&                      ",
"                  .+++++#            $&%=-                      ",
"                  .+++++#               ;=$                     ",
"                  .++++++++++++++++++++++++++>                  ",
"                  .++++++++++++++++++++++++++,                  ",
"                  .++++++++++++++++++++++++++'%$                ",
"                  .++++++++++++++++++++++++++)&                 ",
"                  .++++++++++++++++++++++++++,                  ",
"                  .+++++#                                       ",
"                  .+++++#                                       ",
"                  .+++++#                                       ",
"                  .+++++#                                       ",
"                  .+++++#                                       ",
"                  .+++++#                                       ",
"                  .+++++#                                       ",
"                  .+++++#                                       ",
"                  .+++++#                                       ",
"                  .+++++#                                       ",
"                  .+++++#                                       ",
"                  .+++++#                                       ",
"                  .+++++#                                       ",
"                  .+++++#                                       ",
"                  .+++++#                                       ",
"                  .+++++#                                       ",
"                  .+++++#                                       ",
"                  .++++++++++++++++++++++++++++#                ",
"                  .++++++++++++++++++++++++++++#                ",
"                  .++++++++++++++++++++++++++++#                ",
"                  .++++++++++++++++++++++++++++#                ",
"                  .++++++++++++++++++++++++++++#                ",
"                                                                ",
"                                                                ",
"                                                                ",
"                                                                ",
"                                                                ",
"                                                                ",
"                                                                ",
"                                                                "};
