/* XPM */
static char *evolixpikachu[] = {
/* columns rows colors chars-per-pixel */
"64 64 256 2 ",
"   c #100B08",
".  c #29130C",
"X  c #37160B",
"o  c #291714",
"O  c #381914",
"+  c #270B06",
"@  c #3C2218",
"#  c #3F3D19",
"$  c #342C2C",
"%  c #241D23",
"&  c #441C10",
"*  c #492617",
"=  c #582C18",
"-  c #5B321C",
";  c #442E13",
":  c #693719",
">  c #6E3214",
",  c #593827",
"<  c #4B352B",
"1  c #683923",
"2  c #723D24",
"3  c #401D23",
"4  c #6C4617",
"5  c #5A4432",
"6  c #69432B",
"7  c #774528",
"8  c #68493B",
"9  c #784A34",
"0  c #775538",
"q  c #6E592C",
"w  c #7B6A38",
"e  c #57511E",
"r  c #505251",
"t  c #785745",
"y  c #695549",
"u  c #7E6655",
"i  c #736348",
"p  c #736C69",
"a  c #93300E",
"s  c #914D1D",
"d  c #864A27",
"f  c #9A572B",
"g  c #875738",
"h  c #955B37",
"j  c #884F2C",
"k  c #A35B2C",
"l  c #A35E30",
"z  c #9A6539",
"x  c #906F36",
"c  c #A66638",
"v  c #B77A3D",
"b  c #AD7131",
"n  c #AB5112",
"m  c #D35B0B",
"M  c #ED590D",
"N  c #C96A1A",
"B  c #DB751E",
"V  c #ED6611",
"C  c #D76E28",
"Z  c #8E5C43",
"A  c #886649",
"S  c #9A6945",
"D  c #987448",
"F  c #886C58",
"G  c #967859",
"H  c #8B7251",
"J  c #A56B45",
"K  c #A87649",
"L  c #BC7D4C",
"P  c #B67847",
"I  c #A57856",
"U  c #BC7D52",
"Y  c #B47C51",
"T  c #B16A41",
"R  c #897563",
"E  c #907969",
"W  c #C17D4A",
"Q  c #C17E56",
"!  c #9B8538",
"~  c #AF8E36",
"^  c #B8A03B",
"/  c #B5801A",
"(  c #EB9D1B",
")  c #E79B1A",
"_  c #F19A17",
"`  c #EBA11C",
"'  c #E4A61A",
"]  c #EEAB1C",
"[  c #DD9426",
"{  c #D69935",
"}  c #C69234",
"|  c #E69D26",
" . c #EA9632",
".. c #D4A333",
"X. c #EAA925",
"o. c #E8A826",
"O. c #EAB42B",
"+. c #ECBB34",
"@. c #EAB937",
"#. c #EEAF30",
"$. c #D99A1C",
"%. c #ECC33C",
"&. c #E9C53A",
"*. c #F3C63C",
"=. c #F0CD34",
"-. c #998747",
";. c #968B4E",
":. c #BD834C",
">. c #B5834A",
",. c #AC8659",
"<. c #BC8353",
"1. c #B78656",
"2. c #B0954D",
"3. c #B3A54C",
"4. c #948877",
"5. c #948A70",
"6. c #A58766",
"7. c #B38863",
"8. c #B99668",
"9. c #A7987B",
"0. c #AB9671",
"q. c #B8A778",
"w. c #B3A771",
"e. c #C4864D",
"r. c #C38353",
"t. c #C38C55",
"y. c #C58A59",
"u. c #CA955C",
"i. c #C6935B",
"p. c #CB9550",
"a. c #C7A549",
"s. c #D4A946",
"d. c #D7B64A",
"f. c #D8B659",
"g. c #CFAC52",
"h. c #E9B846",
"j. c #E4B959",
"k. c #CD9C62",
"l. c #C59866",
"z. c #CD926C",
"x. c #CAA56B",
"c. c #D7A566",
"v. c #CAB865",
"b. c #CCAA75",
"n. c #C7A678",
"m. c #D5AA77",
"M. c #D8B47A",
"N. c #D1B673",
"B. c #E5B576",
"V. c #E3985D",
"C. c #D8C657",
"Z. c #ECC443",
"A. c #ECCA45",
"S. c #ECCB4B",
"D. c #E8C74B",
"F. c #F1CC4B",
"G. c #F1C947",
"H. c #ECD349",
"J. c #F4D44A",
"K. c #ECCD52",
"L. c #E6C956",
"P. c #F2CC54",
"I. c #EDD354",
"U. c #EBD45A",
"Y. c #ECDA5C",
"T. c #F3D354",
"R. c #F6D959",
"E. c #F6E357",
"W. c #D5C973",
"Q. c #E8CC62",
"!. c #EDDB64",
"~. c #EADB68",
"^. c #EFD770",
"/. c #EDE16C",
"(. c #EBE366",
"). c #F5E369",
"_. c #F3E672",
"`. c #9A9892",
"'. c #968F88",
"]. c #A79988",
"[. c #B29A8A",
"{. c #B6A788",
"}. c #A9A49A",
"|. c #B5A99A",
" X c #B7B297",
".X c #B6ABA5",
"XX c #BCB4A6",
"oX c #BCB9B8",
"OX c #AFACAF",
"+X c #A49FA0",
"@X c #C7AB88",
"#X c #CBB68B",
"$X c #D6B586",
"%X c #D5BB95",
"&X c #C8AF95",
"*X c #E2BE82",
"=X c #F9AC88",
"-X c #C9B9A8",
";X c #C3BAB4",
":X c #D0BAB1",
">X c #BEC1B8",
",X c #DBC888",
"<X c #DACC92",
"1X c #E8D58E",
"2X c #D9C8A8",
"3X c #C9C4B7",
"4X c #D5CAB8",
"5X c #DAD3B9",
"6X c #CFC6A9",
"7X c #E7D8AA",
"8X c #E6D4B8",
"9X c #E4CCB1",
"0X c #EBE4B1",
"qX c #E9E192",
"wX c #CDBFC2",
"eX c #C9C7C6",
"rX c #D4CCC6",
"tX c #DCD3C4",
"yX c #D8D5C7",
"uX c #D8D8D8",
"iX c #E4DDCB",
"pX c #E5D8C5",
"aX c #E4DBD6",
"sX c #DEE3D9",
"dX c #E5E1CD",
"fX c #EAE2CD",
"gX c #E5E4C4",
"hX c #E5E2D2",
"jX c #EAE3D3",
"kX c #E5E4DD",
"lX c #ECE8D7",
"zX c #F3ECD9",
"xX c #F3EFD1",
"cX c #DDDEE2",
"vX c #E5E5E4",
"bX c #E9E7E6",
"nX c #EBEAE6",
"mX c #E7EAEB",
"MX c #EBEBEB",
"NX c #E7E7E8",
"BX c #F0EEED",
"VX c #F1EDE5",
"CX c #EEF1ED",
"ZX c #EAF0E7",
"AX c #F2F2EE",
"SX c #F8F5EB",
"DX c #EDEDF1",
"FX c #E5EEF2",
"GX c #F2EEF3",
"HX c #EDF2F3",
"JX c #EEF3F8",
"KX c #F3F3F3",
"LX c #F5F9FA",
"PX c #FBFBFC",
"IX c #F7F8F7",
"UX c #E1DFE5",
/* pixels */
"NXMXMXMXFXDXIXmXnXnXNXNXMXNXMXnXMXNXMXNXMXmXNXMXMXMXNXMXMXMXnXMXNXMXNXNXMXNXMXNXMXMXNXMXNXMXNXMXMXMXmXMXMXMXNXMXMXMXMXMXNXMXNXNX",
"MXMXMXMXJXrX`.cXBXMXBXMXBXDXBXMXBXMXCXBXMXBXMXMXBXMXMXMXAXMXMXMXKXBXKXMXAXMXKXMXMXBXMXAXDXBXBXMXBXMXMXMXDXBXMXMXMXMXBXBXMXHXBXMX",
"MXBXMXNXIXXX% eXPXnXMXMXBXMXDXMXMXMXMXMXMXMXmXMXMXMXMXMXnXBXAXAXuXMXMXMXMXMXMXNXMXMXMXMXMXBXMXmXMXMXMXMXMXMXMXMXMXMXMXMXMXMXMXNX",
"NXMXNXnXJXrX# $ uXMXmXMXMXNXMXNXMXMXNXMXKXKXbXnXMXNXnXmXnXbX].p p HXMXNXMXMXMXNXMXMXNXMXmXMXMXMXMXMXnXMXMXMXNXMXMXMXMXNXNXMXMXNX",
"MXKXBXMXBX-X<   r IXnXMXMXDXBXMXMXMXMXNXrXrXPXZXVXMXMXFX}.i p @ `.AXMXMXAXMXMXMXMXMXHXMXMXMXMXMXAXMXMXMXMXAXMXMXMXBXMXFXIXBXBXnX",
"NXMXNXKXeXH 2.o $ >XBXMXMXMXDXMXMXMXBXvX5 R .XuXAXDXHX5XF 5   $ cXKXNXMXMXMXMXMXMXMXMXMXMXMXMXMXMXDXMXMXMXMXMXDXMXMXDXDX}.uXBXNX",
"MXMXNXIXoXe _.2.  r PXmXMXMXMXMXBXMXGXuXy M.G {.nXAX8X1XN.  % % uXCXNXMXMXMXBXMXMXMXMXMXBXMXMXMXAXDXNXMXMXMXMXmXDXMXMX&Xw 4.KXvX",
"MXMXMXIX>Xw J.J.H r KXMXMXnXMXMXMXMXBXMX-XB.:.l.{.R qXI.s.#   '.MXMXnXMXBXMXmXMXAXKXMXMXMXMXMXmXMXMXNXMXMXMXMXHXSX.X].$Xq.5.IXvX",
"MXMXmXKXyX3.H.*.f.# }.PXNXnXMXMXMXMXMXHXhX$XK z n.l.g.D.R.-.  oXPXMXMXMXMXHXKXhXyXeXZXmXMXCXMXMXMXNXHXCXMXBXGX>XpXq.7.h @XlXDXbX",
"MXAXMXMXhXW.L.A.J.3.}.LXNXBXBXMXMXMXnXSX;XG ,.h h 1.8.f.C.-.$ uXKXBXnXnXLXeX6X,X! p PXmXMXCXMXMXBXPX;XrXKXUXtXG I J h I u MXMXNX",
"NXAXmXCXkXW.D.A.A.K.0XDXMXMXMXMXMXMXNXAXrX].z 7 J : 0 x.a.4 '.PXvXDXGXvX6Xv.a.J./ p IXnXMXMXMXAXaX3X5.wXvX5.#XG 1 S d I XXDXMXMX",
"MXMXmXZXhXqXI.A.A.A.,XaXMXMXMXMXMXMXDXmXHX8Xx.S h Z * 1 m.q.tXDXDXNXiXN.g.*.=.O./ p IXvXmXMXHXkX'.3XrX5Xp G 1 X g g Z Z kXBXnXmX",
"MXDXMXMXsX,XY.A.G.J.x oXPXNXMXMXMXMXBXZXJX-X0.x d h 7 X , $X&XUXAX{.2.S.@.X.o.O./ p PXvXCXvXsXyX5.pXpXG i * X 1 g d K F uXAXnXMX",
"MXMXNXIX>X! !.A.A.J.w XXPXMXDXDXMXMXMXnXJXrX@X8.f h 2 * + 0 ,.9.N.U.Z.O.O.' o.X.$.`.KXZXkX'.3XhXfXpX<Xu . . * 7 g d 7 rXHXMXNXMX",
"MXMXMXKXeX5.).D.A.J.3.5XJXNXMXnXnXmXMXmXDXMXq.x.9 j 2 , O & 8.j d.&.O.o.] o.o.o.d.hXMXvX4. XjXhX3X5.E . . O = 7 j J 0 ;XIXMXMXNX",
"MXMXMXMXFX8X~.H.S.A.W.iXGXnXmXKXKXMXMXmXLX.XH i.S j 2 = 3 + A n.f.O.' o.X.o.' ' f.nXBX]. XlX5XdX9X6.5 + 3 - : d g S |.nXMXMXMXMX",
"MXMXMXNXIX3XW.!.S.K.f.tXCXAXJXeXyXlX0X0X0X7X,X3.D 7 7 - = o O 8.x o.` o.o.' ) ) c.KXyX#X7X9X4X2X@XG + O 3 1 2 j 9 F .XPXbXMXMXbX",
"MXBXMXMXnXAX|.C.K.T.W.tXIX3X<X;.3.~.Q.U.~.Q.T.d.b J g 2 * o . A M. .X.| [ $.) } i rX0.M.*X$X%X&XA t . O = - 2 g 2 E NXMXMXDXMXMX",
"NXMXMXMXnXAXXX#X(.E.;. X{.W.C._.~.Y.Y.U.U.K.H.K.2.:.2 1 * o o O l.b ) $.[ | | } 5.}.G 1X*Xn.l.@Xq.@ o X * 1 j 1 E ;XGXbXMXDXMXbX",
"MXAXMXMXMXNXHXgXW.(.w ;.C./.(.(.~./.~.!.U.T.K.K.U.c.,.- O o o O 0 p.[ | | | o...5X8Xz.z.$Xc.8.g H . o o 3 2 2 2 A GXBXMXMXMXMXNX",
"MXBXMXnXMXDXMXvX].qX~.(.).!././.(.~.~.!.U.U.K.S.&.D.B.7.- . X u t m.} [ C >.p.j i %Xn.z 8.m.z.I 0 < o . * 6 t g 8 E LXmXMXMXMXMX",
"MXBXMXMXDXMXmXDXCXqXY.(._.)./././.(.~.Y.U.I.I.S.A.S.D.-.G A X , 7.S ~ V.2 G ;.8.2.8.8.b.n.M.z S A A + - 8 A Q U f [.LXbXMXMXMXMX",
"mXMXMXNXBXVXZXUX4.W.~.~./././././.(.!.!.U.I.I.I.S.J.Z.a.4 S G : Y k.B.W.M.1X%Xm.c.c.x.k.m.x.z K 8.g t H S Z 1.b k A oXGXbXMXbXMX",
"MXDXMXmXDXnXmXNXq.~.~./././._././.~.!.!.U.L.-.q v.L.Z.Z.b h K l.y.m.*X*XB.c.c.k.k.k.k.u.p.8.k.i.Y Y g D y.y.L c c 1 '.PXbXDXMXbX",
"MXBXMXMXBXMXAX X_.Y.!.~.(.(././.~.!.!.U.E.3.}.mX% w ).&.s.v s.v 1.*XB.m.k.u.u.k.k.k.k.u.u.p.e.p.I 0 ,.>.<.:.P l c j |.IXmXMXDXnX",
"MXMXMXMXMXMXMX0.C.!.!._.(.).(.(.!.Y.!.T.H.w.>XOX$ 6 f.I.b a  . .D B.c.p.l.u.k.u.u.u.u.u.i.r.e.t.K z <.r.:.:.v c c Z :XKXMXMXMXMX",
"MXMXMXMXMXmXmX0X~.U.^.;.w.;.).Y.Y.U.U.S.R.D $ , y x g. .n C  .x M.c.e.t.i.u.u.i.u.u.u.t.y.y.r.:.P z L W <.P z l c T :XGXnXMXMXNX",
"NXMXMXMXnXmXmXqXL.E.-.4.mX4.^ ).U.I.U.K.S.Q.0 g g x h.N M n ;.q x.u.e.<.<.t.p.t.t.y.y.e.e.K Y L t.1.Y <.L c c f c j +XGXbXMXMXNX",
"MXBXAXMXMXDXFXqXL.^.8 $ wXp ! E.U.I.U.J.F.K.K.D.C.C.[ M M a u 3.x.t.K 0.7.z p.t.y.r.r.W y.E A <.e.J c <.c k l k c 9 +XPXmXBXMXMX",
"MXDXMXNXBXMXmX<XD.Y.H @ , & ! E.L.K.I.R.R.R.U.K.*.G.[ M M a H 8.u.t., oXiXI e.:.r.W r.P 7.SXp g t.K z c k k k l T [.bXMXMXMXMXmX",
"MXDXMXMXMXMXAX;.d.R.! g S g g.T.K.K.Q.~ b x a.U.I.@.B M M a J D l.<.; eXrX5 <.:.L :.Q T u PXp = :.z d f f f f c g E LXbXMXMXMXbX",
"NXBXMXMXMXMXCXy g.L.f.s.g.C.I.C.D.j.c.Q z.j c J.T...m M M m k.6 7.z . r $ , e.L L >.L K @ r % & >.h > f k f k T E eXMXMXMXMXMXMX",
"MXMXMXMXMXZXJX{.V.B N  .E.S.I.^ l y.V.V.=Xi.^ T.H.D.[ M m b 3.$ 1.h O o   6 r.L U >.U Y &   o < U J 9 d s k j A 4XLXMXDXMXDXMXMX",
"MXKXMXMXMXMXFXhXb V V V ..S.F.D.U.B.Q V.u.>.!.K.A.H. .C a -.5.y k.h & < 8 g L :.<.U W U 1 O y 1 T U I S 7 = G -XbXDXMXMXMXMXMXbX",
"NXMXMXNXDXMXFXsX6.C V V b F.F.S.S.J.a.g.c.p.I.S.&.Y.P :.9 .XLX].i.K 9 8 9 <.:.t.<.Q L Q S 1 t j L 1.8.n.8.* `.PXNXDXMXMXMXMXMXbX",
"mXBXMXNXMXMXmXJXrXd V V B F.S.F.S.A.K.J.A.T.A.D.F.L.g.g.2XhX0X].l.:.P I T U <.r.c J Y Y Y T J P e.K 6.m.m.,.|.MXbXMXMXMXMXMXMXMX",
"MXBXMXMXZXZXIXLXSX|.k m N P.J.K.S.P.K.A.A.Z.@.@...h.G.}  XE 3XiX8.P W r.y.Y Y r.Q =Xy.I <.<.r.W P I @Xx.x.b.Z eXIXMXMXMXMXDXMXMX",
"MXDXNXMXIXeX`.`. XxXx.k ~ L.{ d.S.+.&.O.O.o.o.o.O.A.F.D {.tXkXgXw.y.W e.U :.U J =Xz.J y.L L L Q I E $Xx.b.b.1.:XDXMXnXnXMXMXMXbX",
"MXMXAXvX3X9.w ;.2.Q.K.I.U.j.} d.@.' ' X.X.X.X.#.%.=.! XXVXkXhXjXiX&X1.L e.Q U K g j S r.L L r.K {.fX%Xn.b.M.K i uXGXDXbXMXDXMXbX",
"MXMXMXuXi Q.&.E.T.A.A.Z.A.H.J.F.Z.@.o.O.o.o.o.%.F.L.{.aXlXhXhXjXaX8X#X>.P r.y.U z K y.Q r.Y S q.9XjX2Xn.b.b.8.5.vXBXDXnXMXMXMXMX",
"DXMXKXuX5 L.@.D.L.H.D.S.S.S.F.S.K.S.Z.Z.Z.@.Z.G.R.! '.SXaXlXdXhXlXjXfX@X7.J Y P <.L W T K 0 6.2XpXzX6Xn.b.b.N.8 uXAXMXMXMXDXMXMX",
"MXDXMXvX5.^.K.A.I.D.H.D.G.A.G.A.A.G.F.S.G.F.S.A.=.g.;XzXiXfXlXfXiXlXaXzX4X6.@Xn.8.@X0.6.F ].8X#XdX5X9.q.N.b.n.A aXCXMXDXMXBXMXNX",
"NXMXMXMXHX<Xd.H.T.P.S.D.A.A.A.G.A.G.S.A.A.S.A.A.G.W.rXjXlXlX-X4XjXaXiXjXlXVXjXlXpXjXtXaXiXVXq.@XxX3X@X#Xn.b.b.6.aXHXMXMXMXBXMXMX",
"NXMXMXNXvXsX9.v.C.&.H.H.S.S.A.S.A.A.Z.S.A.A.S.%.R.x ].SXiXiX3X-XjXlXiXjXfXiXhXhXjXhXlXiXgXlX9.-XxX8X<Xq.b.n.n.F uXDXNXMXNXMXMXNX",
"MXMXMXMXZXHXmXyX0.W.v.@.%.*.A.A.G.G.S.F.S.A.S.A.P.C. XlXjX3X4XXXpXlXfXhXjXfXfXfXhXfXfXfXfXlX4XpXhX6Xn.b.@Xm.#Xy uXHXMXMXMXMXMXMX",
"MXKXMXMXCXMXBXDXMXSX}.w.j...Z.F.H.A.S.S.S.S.S.S.D.R.! 4.ZXjX4XiXlXfXjXjXlXjXjXjXjXjXjXjXjXlXfXfX5X<X7.q.N.,.5.8XMXCXMXCXMXAXMXMX",
"MXMXMXMXMXMXMXMXmXnXHXKXyX3.J.S.A.S.S.S.D.D.S.S.A.Z.T.^ 5.zX6.-XzXiXiXjXjXjXaXjXjXjXjXhXiXaXfX5X2Xq.1.n.x.].R rXAXMXMXMXMXMXMXNX",
"NXMXMXNXMXNXMXMXmXnXZXNXnX8XL.A.A.A.Z.A.A.A.A.A.Z.Z.D.h.} 2.0 9XlXiXiXjXjXfXfXjXjXfXfXfXfXlXpX%X$X>.D 0 F R yXuXMXMXmXMXMXMXMXNX",
"MXDXMXMXKXMXMXMXMXMXMXmXPXXX~ J.F.A.A.A.A.Z.A.%.&.%.Z.#.#.' ..<XlXfXhXfXjXjXjXhXjXfXfXiXfXaX9X@Xm.8.h O * E IXBXMXDXMXBXMXBXMXmX",
"MXBXMXMXMXBXKXMXMXDXMXVXPX}.-.J.Z.%.%.Z.Z.%.Z.%.&.*.#.X.o.] ] / |.lXiXiXfXhXhXjXhXhXfXfXlX9X@X8.J x 7 * * R PXMXDXGXMXMXBXDXMXnX",
"MXMXMXMXMXNXMXMXMXMXMXmXZXkX1XS.%.Z.%.%.%.@.Z.%.*.#.#.| ` ( ` ) , :XfXdXgXpXaXyXdXhXfX9X@X<.Y 6.& * = > 1 OXGXMXbXMXMXbXMXMXMXmX",
"MXMXMXNXMXMXMXMXMXMXMXmXCXZX7XD.%.%.+.+.+.+.+.+.#.X.X.( ) ` ( X.:.G t [.7X9X8X8XpX9X@X7.Y r.7., ; > > > A GXMXMXMXMXMXMXMXMXMXnX",
"MXMXMXMXKXMXMXMXMXMXMXMXMXMXqXZ.%.+.+.+.+.+.+.O.o.) ) ) ' ( | ] [ > d 2 g 8 I 7.,.1.Y I S Y , ].0 2 z J y MXMXMXMXDXMXMXMXMXMXMX",
"MXAXMXMXMXMXMXMXMXBXMXMXCXMXqXZ.&.+.+.+.+.O.#.` | ( ) _ ` ` | | o.} z s & , * 6 ,.Y <.t O 9 X ;X8 c L c , BXMXMXMXBXMXMXBXDXMXMX",
"NXMXMXMXMXMXMXMXMXMXMXMXAXuX<X%.+.+.O.O.O.#.' ) ( _ _ _ ` ` ` X.o.e.b c j 2 O p H Y K : & 2 & OX-XH j g '.MXMXMXMXMXMXMXMXMXMXNX",
"NXMXMXMXMXMXMXNXMXMXMXMXMXkX,X+.+.+.O.+.X.` ( ( _ ) { d : : 4 4 6.9X&XY c j * oX< : 9 : > j , OXPXrX:XrXbXBXnXMXMXMXnXMXMXMXMXNX",
"MXMXMXNXMXMXNXvXNXMXMXMXMXMXqX+.O.+.+.#.] ` _ _ #.x.4XuXuXuXuXuXkXkX&XP b W = OX|.= > > d l &XmXmXHXKXCXnXnXNXMXMXMXMXMXMXMXMXmX",
"MXKXMXMXDXCXMXMXMXBXMXMXMXIX{.s.+.O.#.O.] #.#.{ 2XBXmXAXGXGXBXKXCXZX8XI l h t uXaXd d f T h :XGXmXDXmXMXMXBXMXMXMXMXMXDXMXBXMXMX",
"MXMXMXMXMXMXMXMXMXMXMXMXNXHX3XD s.=.+.O.O.+.b q.VXMXMXnXNXMXNXMXCXMXAX;X;X&XrXLXtXl c T T j +XJXnXBXnXnXMXCXMXMXMXMXMXMXmXBXMXNX",
"MXMXMXMXMXMXMXMXMXMXDXMXMXNXKX3Xx Z.%.G.D.x.}.nXBXnXMXMXMXNXMXMXmXmXnXZXKXKXMXDXrXU T T c I cXDXnXMXMXmXMXMXNXMXMXMXMXMXMXMXMXnX",
"MXMXMXMXBXMXMXMXMXMXMXMXMXmXMXyXW.&.Z.>.8XaXDXMXMXBXMXMXMXMXMXMXBXMXMXNXMXbXDXuXy u.v T c &XIXnXAXMXMXMXMXBXMXMXMXDXMXMXMXMXMXmX",
"MXBXMXMXMXMXMXMXMXMXMXMXMXMXJXi ~ +.a.R mXGXMXMXMXMXMXMXKXMXMXMXKXMXBXMXBXMXBXvX'.1.T Y Z 4.JXNXMXAXMXMXMXDXMXDXMXBXMXMXMXBXMXMX",
"NXBXMXmXMXMXMXMXMXMXMXMXMXmXJX4.0.-.6.BXGXNXbXMXMXMXMXmXMXMXMXMXMXMXMXMXMXMXMXMXnX:XR F &X;XKXMXMXMXMXMXMXBXMXMXMXMXMXMXMXMXMXnX",
"NXMXMXNXNXnXMXMXNXMXnXmXMXmXMXuXzXrXrXBXbXMXDXmXMXnXmXnXMXNXNXNXMXNXNXnXMXNXMXbXbXGXrXeXGXGXNXNXMXMXNXNXNXMXNXnXNXMXNXNXbXMXmXbX"
};
