/* XPM */
static char *mew3[] = {
/* columns rows colors chars-per-pixel */
"64 64 127 2 ",
"   c #4E4D4E",
".  c #545454",
"X  c #5B5B5B",
"o  c #5E6160",
"O  c #636464",
"+  c #696A6A",
"@  c #706F6F",
"#  c #747474",
"$  c #7B7B7B",
"%  c #807F7F",
"&  c #6CCBEF",
"*  c #7EC7E3",
"=  c #73C7EA",
"-  c #77CCEE",
";  c #7DCFEE",
":  c #848384",
">  c #8D8D8D",
",  c #9E8F94",
"<  c #949595",
"1  c #9B9B9B",
"2  c #A9949B",
"3  c #B09EA4",
"4  c #9EA2A1",
"5  c #A5A5A5",
"6  c #AAABAA",
"7  c #BAA2AA",
"8  c #B0A9AB",
"9  c #BFA7B0",
"0  c #BEA8B0",
"q  c #B3B3B3",
"w  c #B9B2B4",
"e  c #BCBBBB",
"r  c #C2A0AC",
"t  c #C3A7B0",
"y  c #C9A6B2",
"u  c #C2ACB4",
"i  c #CCAAB6",
"p  c #CDAFBA",
"a  c #D1ADB6",
"s  c #D2AEBA",
"d  c #C5B3B5",
"f  c #C6B4BA",
"g  c #CCB3BC",
"h  c #CBB8BF",
"j  c #D2B3BD",
"k  c #D8B2BE",
"l  c #CFB7C0",
"z  c #CDBBC2",
"x  c #D4B7C1",
"c  c #DAB6C2",
"v  c #D3BBC4",
"b  c #DABBC5",
"n  c #D6BFC8",
"m  c #E4B7C7",
"M  c #E2B9C7",
"N  c #E2BDC9",
"B  c #89CDEE",
"V  c #91CBE5",
"C  c #A4D6E7",
"Z  c #B0D7E8",
"A  c #BDD5EB",
"S  c #B4DBEB",
"D  c #BFDFEB",
"F  c #C3C2C3",
"G  c #CFC2C7",
"H  c #CFC5C8",
"J  c #C7C9C8",
"K  c #CDCCCC",
"L  c #D2C0C6",
"P  c #D4C3C9",
"I  c #DAC3CB",
"U  c #D5CACE",
"Y  c #DAC8CF",
"T  c #DDC7D0",
"R  c #D7CCD0",
"E  c #DCCDD3",
"W  c #DDCDD8",
"Q  c #D3D3D3",
"!  c #DBD1D5",
"~  c #DCD6DA",
"^  c #DCDADB",
"/  c #E3C3CE",
"(  c #E2C7D2",
")  c #E9C5D1",
"_  c #E4CBD4",
"`  c #EACBD5",
"'  c #EDCFDA",
"]  c #F0CED9",
"[  c #E2D0D6",
"{  c #E3D4DA",
"}  c #ECD3DC",
"|  c #E3DADE",
" . c #F4D2DE",
".. c #F8D0DF",
"X. c #C2D9EE",
"o. c #EFD7E0",
"O. c #E5DEE1",
"+. c #ECDBE2",
"@. c #F2D6E0",
"#. c #FCD6E3",
"$. c #F4DBE4",
"%. c #F9DAE5",
"&. c #F6DFE9",
"*. c #FDDEEA",
"=. c #D0E5F0",
"-. c #E6E5E5",
";. c #E9E3E6",
":. c #EDE5E8",
">. c #EDEAEC",
",. c #FFEAE6",
"<. c #F5E1E9",
"1. c #FDE5ED",
"2. c #F1EBEE",
"3. c #FCE9EE",
"4. c #E4EAF6",
"5. c #ECE8F5",
"6. c #E3E9F8",
"7. c #FEE6F1",
"8. c #F4EEF2",
"9. c #FEEAF2",
"0. c #F6EEF9",
"q. c #FFEDF8",
"w. c #ECF1F0",
"e. c #F5F3F4",
"r. c #FCF2F6",
"t. c #FCF5FA",
"y. c #FFFFFF",
/* pixels */
"y.y.y.y.y.y.y.y.y.y.y.y.y.y.y.y.y.y.y.y.y.y.y.y.y.y.y.y.y.y.y.y.y.y.y.y.y.y.y.y.y.y.y.y.y.y.y.y.y.y.y.y.y.y.y.y.y.y.y.y.y.y.y.y.",
"y.y.y.y.y.y.y.y.y.y.y.y.y.y.y.y.y.y.y.y.y.y.y.y.y.y.y.y.y.y.y.y.y.y.y.y.y.y.y.y.y.y.y.y.y.y.y.y.y.y.y.y.y.y.y.y.y.y.y.y.y.y.y.y.",
"y.y.y.y.y.y.y.y.y.y.y.y.y.y.y.y.y.y.y.y.y.y.y.y.y.y.y.y.y.y.y.y.y.y.y.y.y.y.y.y.y.y.y.y.y.y.y.y.y.y.y.y.y.y.y.y.y.y.y.y.y.y.y.y.",
"y.y.y.y.y.y.y.y.y.y.y.y.y.y.y.y.y.y.y.y.y.y.y.y.y.y.y.y.y.y.y.y.y.y.y.y.y.y.y.y.y.y.y.y.y.y.y.y.y.y.y.y.y.y.y.y.y.y.y.y.y.y.y.y.",
"y.y.y.y.y.y.y.y.y.y.y.y.y.y.y.y.y.y.y.y.y.y.y.y.y.y.y.y.y.y.y.y.y.y.y.y.y.y.y.y.y.y.y.y.y.y.y.y.y.y.y.y.y.y.y.y.y.y.y.y.y.y.y.y.",
"y.y.y.y.y.y.y.y.y.y.y.y.y.y.y.y.y.y.y.y.y.y.y.y.y.y.y.y.y.y.y.y.y.y.y.y.y.y.y.y.y.y.y.y.y.y.y.y.y.y.y.y.y.y.y.y.y.y.y.y.y.y.y.y.",
"y.y.y.y.y.y.y.y.y.y.y.y.y.y.y.y.y.y.y.y.y.y.y.y.y.y.y.y.y.y.y.y.y.y.y.y.y.y.y.y.y.y.y.y.y.y.y.y.y.y.y.y.y.y.y.y.y.y.y.y.y.y.y.y.",
"y.y.y.y.y.y.y.y.y.y.y.y.y.y.y.y.y.y.y.y.y.y.y.y.y.y.y.y.y.y.y.y.y.y.y.y.y.y.y.y.y.y.y.y.y.y.y.y.y.y.y.y.y.y.y.y.y.y.y.y.y.y.y.y.",
"y.y.y.y.y.y.y.y.y.y.y.y.y.y.y.y.y.y.y.y.y.y.y.y.y.y.y.y.y.y.y.y.y.y.y.y.y.y.y.y.y.y.y.y.y.y.y.y.y.y.y.y.y.y.y.y.y.y.y.y.y.y.y.y.",
"y.y.y.y.y.y.y.y.y.y.y.y.y.y.y.y.y.y.y.y.y.y.y.y.y.y.y.y.y.y.y.y.y.y.y.y.y.y.y.y.y.y.y.y.y.y.y.y.y.y.y.y.y.y.y.y.y.y.y.y.y.y.y.y.",
"y.y.y.y.y.y.y.y.y.y.y.y.y.y.y.y.y.y.y.y.y.y.y.y.y.y.y.y.y.y.y.y.y.y.y.y.y.y.y.y.y.y.y.y.y.y.y.y.y.y.y.y.y.y.y.y.y.y.y.y.y.y.y.y.",
"y.y.y.y.y.y.y.y.y.y.y.y.y.y.y.y.y.y.y.y.y.y.y.y.y.y.y.y.y.y.y.y.y.y.y.y.y.y.y.y.y.y.y.y.y.y.y.y.y.y.y.y.y.y.y.y.y.y.y.y.y.y.y.y.",
"y.y.y.y.y.y.y.y.y.y.y.y.y.y.y.y.y.y.y.y.y.y.y.y.y.y.y.y.y.y.y.y.y.y.y.y.y.y.y.y.y.y.y.y.y.y.y.y.y.y.y.y.y.y.y.y.y.y.y.y.y.y.y.y.",
"y.y.y.y.y.y.y.y.y.y.y.y.y.y.y.y.y.y.y.y.y.y.y.y.y.y.y.y.y.y.y.y.y.y.y.y.y.y.y.y.y.y.y.y.y.y.y.y.y.y.y.y.y.y.y.y.y.y.y.y.y.y.y.y.",
"y.y.y.y.y.y.y.y.y.y.y.y.y.y.y.y.y.t.y.t.e.y.y.y.y.t.8.8.e.t.y.y.y.y.y.y.y.y.y.y.t.y.t.e.y.y.y.y.y.y.y.y.y.y.y.y.y.y.y.y.y.y.y.y.",
"y.y.y.y.y.y.y.y.y.y.y.y.y.y.y.y.y.e.L h h z E E z f g f f g x O.O.P P L ! t.y.y.>.v g h g P ^ t.y.y.y.y.y.y.y.y.y.y.y.y.y.y.y.y.",
"y.y.y.y.y.y.y.y.y.y.y.y.y.y.y.y.y.~ ( 9.1.( g _ $.1.7.7.1.*. .x x &.<.&.g >.y.y.u N %.1.&.} n w H t.y.t.y.y.y.y.y.y.y.y.y.y.y.y.",
"y.y.y.y.y.y.y.y.y.y.y.y.y.y.y.y.y.| E q.3.3.q.r.9.9.1.9.9.3.9.q.1.3.9.1.x 8.y.y.v b 1.1.9.q.q.3.l 0 e.y.y.y.y.y.y.y.y.y.y.y.y.y.",
"y.y.y.y.y.y.y.y.y.y.y.y.y.y.y.y.y.>.L r.7.q.3.3.3.9.9.9.7.9.7.9.9.3.7.%.g y.y.y.t.d j  .1.1.7.7.t._ 0 t.y.y.y.y.y.y.y.y.y.y.y.y.",
"y.y.y.y.y.y.y.y.y.y.y.y.y.y.y.y.y.y.P } q.3.3.9.9.9.3.9.9.9.3.9.9.9.9.) G y.t.y.y.t.Y i k / #.q.9.t._ F y.y.y.y.y.y.y.y.y.y.y.y.",
"y.y.y.y.y.y.y.y.y.y.y.y.y.y.y.y.y.y.>.h 9.1.1.3.9.9.3.9.3.3.1.3.3.9.&.i >.y.y.y.y.y.y.e.^ z 0 x ' 1.t.v ^ y.y.y.y.y.y.y.y.y.y.y.",
"y.y.y.y.y.y.y.y.y.y.y.y.y.y.y.y.y.y.-.E q.8.q.3.3.9.9.1.1.7.q.q.1.7.*.p e.y.y.y.y.y.y.y.y.y.e.^ x p +.3.f y.y.y.y.y.y.y.y.y.y.y.",
"y.y.y.y.y.y.y.y.y.y.y.y.y.y.y.y.y.y.! ` t.Z C q.7.3.9.7.3.0.X.A 9.1.1.c :.y.y.y.y.y.y.t.t.t.y.y.y.w.d <.z ;.y.y.y.y.y.y.y.y.y.y.",
"y.y.y.y.y.y.y.y.y.y.y.y.y.y.y.y.y.y.R  .0.B & 6.7.,.q.7.,.5.- - 2.9.1.n -.y.y.y.y.y.y.y.y.y.y.y.y.y.;.v [ ! y.y.y.y.y.y.y.y.y.y.",
"y.y.y.y.y.y.y.y.y.y.y.y.y.y.y.y.y.y.~ W t.V * 5.9.3.9.7.9.4.= ; >.1.1.x 2.y.y.y.y.y.y.y.y.y.y.y.y.y.y.L ( ! y.y.y.y.y.y.y.y.y.y.",
"y.y.y.y.y.y.y.y.y.y.y.y.y.y.y.y.y.y.e.d ;.4.=.q.1.3.q.9.,.7.Z D q.9.' f y.y.y.y.y.y.y.y.y.y.y.y.y.y.t.L I ~ y.t.y.y.y.y.y.y.y.y.",
"y.y.y.y.y.y.y.y.y.y.y.y.y.y.y.y.y.y.y.2.f ( 7.3.1.8.3.7.3.9.8.<. .b j e.y.y.y.y.y.y.y.y.y.y.y.y.y.y.O.P n >.y.y.y.y.y.y.y.y.y.y.",
"y.y.y.y.y.y.y.y.y.y.y.y.y.y.y.y.y.y.y.y.t.W 9 v q.q.e.q.q.' p a z | t.y.y.y.y.y.y.y.y.y.y.y.y.t.y.5.h { L y.y.y.y.y.y.y.y.y.y.y.",
"y.y.y.y.y.y.y.y.y.y.y.y.y.y.y.y.y.y.y.y.t.y.P x b ' } ` c j } g >.y.y.y.y.t.y.y.y.y.y.y.t.y.y.y.:.h [ h e.y.y.y.y.y.y.y.y.y.y.y.",
"y.y.y.y.y.y.y.y.y.y.y.y.y.y.y.y.y.y.y.y.y.w.v %./ c k b ) x 1.W ^ y.y.y.y.y.y.y.t.y.y.y.y.y.>.P L _ f -.y.t.y.y.y.y.y.y.y.y.y.y.",
"y.y.y.y.y.y.y.y.y.y.y.y.y.y.y.y.y.y.t.y.y.O.I ) { q.9. .x o.q.$.f { :.8.t.y.y.y.y.y.e.>.~ H v T g f 8.y.y.y.y.y.y.y.y.y.y.y.y.y.",
"y.y.y.y.y.y.y.y.y.y.y.y.y.y.y.y.y.y.y.>.H g p } b q.+.z 3.<.j +.x r j g x v I I I b v x b I I d ! y.y.t.y.y.y.y.y.y.y.y.y.y.y.y.",
"y.y.y.y.y.y.y.y.y.y.y.y.y.t.y.y.t.y.E j c c 7 x j 9.n b b g } q.} r T z g a i i i k g g v T O.t.y.y.y.y.y.y.y.y.y.y.y.y.y.y.y.y.",
"y.y.y.y.y.y.y.y.y.y.y.y.y.y.y.y.t.h / v U | I } } 9.&./  .1.r.9.q.g e.t.e.8.2.>.>.;.>.e.y.y.y.y.y.y.y.y.y.y.y.y.y.y.y.y.y.y.y.y.",
"y.y.y.y.y.y.y.y.y.y.y.y.y.y.y.y.z Y j | y.O.( t.q.3.9.q.9.3.1.3.q._ z y.y.y.y.y.y.y.y.y.y.y.y.y.y.y.y.y.y.y.y.y.y.y.y.y.y.y.y.y.",
"y.y.y.y.y.y.y.y.y.y.y.y.y.t.y.R I v ;.y.y.W ` q.3.9.9.9.3.<.9.3.3.7.f ;.y.t.y.y.y.y.y.y.y.y.y.y.y.y.y.y.y.y.y.y.y.y.y.y.y.y.y.y.",
"y.y.y.y.y.y.y.y.y.y.y.y.y.y.;.x P | y.t.y.! _ r.3.9.1.q.[ { 9.3.3.q.` P y.y.y.y.y.y.y.y.y.y.y.y.y.y.y.y.y.y.y.y.y.y.y.y.y.y.y.y.",
"y.y.y.y.y.y.y.y.y.y.y.y.y.y.L E P y.t.y.y.U x q.3.9.9.3.x 1.9.3.9.9.%.g y.y.y.y.y.y.y.y.y.y.y.y.y.y.y.y.y.y.y.y.y.y.y.y.y.y.y.y.",
"y.y.y.y.y.y.y.y.y.y.y.y.y.e.v I ;.y.y.y.y.g y 1.9.3.9. .v q.1.3.3.9.*.g t.y.y.y.y.y.y.y.y.y.y.y.y.y.y.y.y.y.y.y.y.y.y.y.y.y.y.y.",
"y.y.y.y.y.y.y.y.y.y.y.y.y.:.n U t.y.y.y.e.G / k 9.9.r.} I q.3.9.3.9.&.0 t.y.y.y.y.y.y.y.y.y.y.y.y.y.y.y.y.y.y.y.y.y.y.y.y.y.y.y.",
"y.y.y.y.y.y.y.y.y.y.y.y.y.;.n E y.y.y.y.y.z } c j %.q.<.j 1.9.1.3.9.] l y.y.y.y.y.y.y.y.y.y.y.y.y.y.y.y.y.y.y.y.y.y.y.y.y.y.y.y.",
"y.y.y.y.y.y.y.y.y.y.y.y.y.:.P ! y.t.y.y.y.8.g $.M i k M y y &.q.9.*./ E y.y.y.y.y.y.y.y.y.y.y.y.y.y.y.y.y.y.y.y.y.y.y.y.y.y.y.y.",
"y.y.y.y.y.y.y.y.y.y.y.y.y.e.I v e.y.y.y.y.y.:.f *...7 U v g j g _ *.b | y.y.y.y.y.y.y.y.y.y.y.y.y.y.y.y.y.y.y.y.y.y.y.y.y.y.y.y.",
"y.y.y.y.y.y.y.y.y.y.y.y.y.t.L n | y.t.y.y.y.K ) #.i -.y.| / / g ' %.u t.y.y.y.y.y.y.y.y.y.y.y.y.y.y.y.y.y.y.y.y.y.y.y.y.y.y.y.y.",
"y.y.y.y.y.y.y.y.y.y.y.y.y.y.E I h 8.y.y.y.-.z  .g ;.y.y.v ) x h 1.j ! y.y.y.y.y.y.y.y.y.y.y.y.y.y.y.y.y.y.y.y.y.y.y.y.y.y.y.y.y.",
"y.y.y.y.y.y.y.y.y.y.y.y.y.y.e.h ` g e.y.y.! p v >.y.y.+.x ( x Y %.u t.y.y.y.y.y.y.y.y.y.y.y.y.y.y.y.y.y.y.y.y.y.y.y.y.y.y.y.y.y.",
"y.y.y.y.y.y.y.y.y.y.y.y.y.y.y.;.z ' g { e.t.8.y.y.e.! j / z ;.g g ;.y.y.y.y.y.y.y.y.y.y.y.y.y.y.y.y.y.y.y.y.y.y.y.y.y.y.y.y.y.y.",
"y.y.y.y.y.y.y.y.y.y.y.y.y.y.t.y.:.z I n v I T I I g N ) j e.y.-.;.y.y.y.y.y.y.y.y.y.y.y.y.y.y.y.y.y.y.y.y.y.y.y.y.y.y.y.y.y.y.y.",
"y.y.y.y.y.y.y.y.y.y.y.y.y.y.y.y.y.e.^ z v m m b M m k u | -.-.2.w.e.e.y.t.y.y.y.y.y.y.y.y.y.y.y.y.y.y.y.y.y.y.y.y.y.y.y.y.y.y.y.",
"y.y.y.y.y.y.y.y.y.y.y.y.y.y.y.y.y.e.y.e.! e 6 3 2 , < 4 1 4 6 q J Q ^ w.y.y.y.y.y.y.y.y.y.y.y.y.y.y.y.y.y.y.y.y.y.y.y.y.y.y.y.y.",
"y.y.y.y.y.y.y.y.y.y.y.y.y.y.y.y.y.y.e.^ F 6 < $ @ + o X O + # $ > 1 q J -.w.y.y.y.y.y.y.y.y.y.y.y.y.y.y.y.y.y.y.y.y.y.y.y.y.y.y.",
"y.y.y.y.y.y.y.y.y.y.y.y.y.y.y.y.y.y.w.K 6 1 : # O . .       . o + $ > 5 F -.t.y.y.y.y.y.y.y.y.y.y.y.y.y.y.y.y.y.y.y.y.y.y.y.y.y.",
"y.y.y.y.y.y.y.y.y.y.y.y.y.y.y.y.y.y.e.-.K e 6 1 > : $ $ # $ $ : > 1 5 e K >.y.y.y.y.y.y.y.y.y.y.y.y.y.y.y.y.y.y.y.y.y.y.y.y.y.y.",
"y.y.y.y.y.y.y.y.y.y.y.y.y.y.y.y.y.y.y.t.e.-.Q K e e q q q q e e F Q ^ -.e.y.y.y.y.y.y.y.y.y.y.y.y.y.y.y.y.y.y.y.y.y.y.y.y.y.y.y.",
"y.y.y.y.y.y.y.y.y.y.y.y.y.y.y.y.y.y.y.y.y.y.t.e.5.>.-.-.-.-.-.>.w.w.e.y.y.y.y.y.y.y.y.y.y.y.y.y.y.y.y.y.y.y.y.y.y.y.y.y.y.y.y.y.",
"y.y.y.y.y.y.y.y.y.y.y.y.y.y.y.y.y.y.y.y.y.y.y.y.y.y.y.y.y.y.y.y.y.y.y.y.y.y.y.y.y.y.y.y.y.y.y.y.y.y.y.y.y.y.y.y.y.y.y.y.y.y.y.y.",
"y.y.y.y.y.y.y.y.y.y.y.y.y.y.y.y.y.y.y.y.y.y.y.y.y.y.y.y.y.y.y.y.y.y.y.y.y.y.y.y.y.y.y.y.y.y.y.y.y.y.y.y.y.y.y.y.y.y.y.y.y.y.y.y.",
"y.y.y.y.y.y.y.y.y.y.y.y.y.y.y.y.y.y.y.y.y.y.y.y.y.y.y.y.y.y.y.y.y.y.y.y.y.y.y.y.y.y.y.y.y.y.y.y.y.y.y.y.y.y.y.y.y.y.y.y.y.y.y.y.",
"y.y.y.y.y.y.y.y.y.y.y.y.y.y.y.y.y.y.y.y.y.y.y.y.y.y.y.y.y.y.y.y.y.y.y.y.y.y.y.y.y.y.y.y.y.y.y.y.y.y.y.y.y.y.y.y.y.y.y.y.y.y.y.y.",
"y.y.y.y.y.y.y.y.y.y.y.y.y.y.y.y.y.y.y.y.y.y.y.y.y.y.y.y.y.y.y.y.y.y.y.y.y.y.y.y.y.y.y.y.y.y.y.y.y.y.y.y.y.y.y.y.y.y.y.y.y.y.y.y.",
"y.y.y.y.y.y.y.y.y.y.y.y.y.y.y.y.y.y.y.y.y.y.y.y.y.y.y.y.y.y.y.y.y.y.y.y.y.y.y.y.y.y.y.y.y.y.y.y.y.y.y.y.y.y.y.y.y.y.y.y.y.y.y.y.",
"y.y.y.y.y.y.y.y.y.y.y.y.y.y.y.y.y.y.y.y.y.y.y.y.y.y.y.y.y.y.y.y.y.y.y.y.y.y.y.y.y.y.y.y.y.y.y.y.y.y.y.y.y.y.y.y.y.y.y.y.y.y.y.y.",
"y.y.y.y.y.y.y.y.y.y.y.y.y.y.y.y.y.y.y.y.y.y.y.y.y.y.y.y.y.y.y.y.y.y.y.y.y.y.y.y.y.y.y.y.y.y.y.y.y.y.y.y.y.y.y.y.y.y.y.y.y.y.y.y.",
"y.y.y.y.y.y.y.y.y.y.y.y.y.y.y.y.y.y.y.y.y.y.y.y.y.y.y.y.y.y.y.y.y.y.y.y.y.y.y.y.y.y.y.y.y.y.y.y.y.y.y.y.y.y.y.y.y.y.y.y.y.y.y.y."
};
