/* XPM */
static char *pokemon[] = {
/* columns rows colors chars-per-pixel */
"64 64 228 2 ",
"   c #010002",
".  c #090501",
"X  c #01010B",
"o  c #09050D",
"O  c #0D0A06",
"+  c #120B03",
"@  c #180E06",
"#  c #1A1408",
"$  c #010213",
"%  c #0A0A14",
"&  c #0A0C1B",
"*  c #04051A",
"=  c #130D15",
"-  c #13121A",
";  c #1D151D",
":  c #0F101E",
">  c #231603",
",  c #271A06",
"<  c #241713",
"1  c #38250A",
"2  c #292618",
"3  c #342918",
"4  c #36311A",
"5  c #141522",
"6  c #181728",
"7  c #1A1D32",
"8  c #0D0F24",
"9  c #251C25",
"0  c #1F2231",
"q  c #22232D",
"w  c #2A2127",
"e  c #31252C",
"r  c #352A2B",
"t  c #3A2D2C",
"y  c #352925",
"u  c #3D302B",
"i  c #2A2C3D",
"p  c #262936",
"a  c #2D303A",
"s  c #353638",
"d  c #49350C",
"f  c #463817",
"g  c #5F3E02",
"h  c #413634",
"j  c #5A4615",
"k  c #554412",
"l  c #664C15",
"z  c #6B591B",
"x  c #755817",
"c  c #6E4E09",
"v  c #74641D",
"b  c #4B4239",
"n  c #58482D",
"m  c #67542B",
"M  c #72582C",
"N  c #373945",
"B  c #282B40",
"V  c #454649",
"C  c #4B4D54",
"Z  c #464855",
"A  c #555759",
"S  c #4F545D",
"D  c #5F625F",
"F  c #726E4E",
"G  c #585A63",
"H  c #5E6270",
"J  c #666768",
"K  c #6C6D72",
"L  c #666978",
"P  c #6E7077",
"I  c #74767A",
"U  c #835B09",
"Y  c #9A6C08",
"T  c #84661E",
"R  c #98751B",
"E  c #90730D",
"W  c #AB7911",
"Q  c #816828",
"!  c #9C7823",
"~  c #8C752E",
"^  c #E87E7B",
"/  c #A05658",
"(  c #B48D17",
")  c #988527",
"_  c #9D8632",
"`  c #A28D28",
"'  c #AC9433",
"]  c #B59D33",
"[  c #B08E26",
"{  c #BCA62C",
"}  c #BFA834",
"|  c #D89806",
" . c #C1971E",
".. c #EAA904",
"X. c #F7B705",
"o. c #F0B110",
"O. c #CB9C24",
"+. c #C39322",
"@. c #C5AB2D",
"#. c #D6A223",
"$. c #DAA422",
"%. c #DEAA25",
"&. c #D4B734",
"*. c #CCB32F",
"=. c #E3AA22",
"-. c #E7AD25",
";. c #E7B125",
":. c #ECB324",
">. c #EBBA29",
",. c #EBB926",
"<. c #F4BC28",
"1. c #F6BA24",
"2. c #F3A938",
"3. c #D5A318",
"4. c #FAC705",
"5. c #FDD303",
"6. c #FFDB04",
"7. c #ECCB05",
"8. c #FFE204",
"9. c #FFEE19",
"0. c #DFC437",
"q. c #E9C42B",
"w. c #FDC325",
"e. c #F3C42C",
"r. c #FCCA2D",
"t. c #F8C42B",
"y. c #FBD525",
"u. c #FBD62C",
"i. c #FEDA2A",
"p. c #F4D52E",
"a. c #E7C934",
"s. c #F2CD32",
"d. c #F9CC31",
"f. c #F5D335",
"g. c #FAD533",
"h. c #FDDB36",
"j. c #FEDD39",
"k. c #F6D838",
"l. c #EED237",
"z. c #FFE336",
"x. c #FFEA36",
"c. c #FEE239",
"v. c #FFEB3A",
"b. c #FFF239",
"n. c #FFE92F",
"m. c #968D52",
"M. c #BE8B48",
"N. c #85876D",
"B. c #828570",
"V. c #FAB24F",
"C. c #FF967E",
"Z. c #FE867F",
"A. c #C1BB77",
"S. c #FDAA64",
"D. c #F38758",
"F. c #FBCC42",
"G. c #FDD744",
"H. c #FFC25B",
"J. c #FFE748",
"K. c #FFF459",
"L. c #F0DC61",
"P. c #FFF563",
"I. c #FEF376",
"U. c #FDE971",
"Y. c #797B85",
"T. c #FC7C86",
"R. c #7F818A",
"E. c #84868C",
"W. c #85868A",
"Q. c #989B83",
"!. c #8B8D92",
"~. c #868892",
"^. c #949598",
"/. c #969799",
"(. c #8C909A",
"). c #ADB091",
"_. c #9E9EA1",
"`. c #A4A6A9",
"'. c #AEAFB2",
"]. c #B7B9BA",
"[. c #FE8282",
"{. c #FF8986",
"}. c #FF9182",
"|. c #BFC0BF",
" X c #D3D19E",
".X c #E7D38A",
"XX c #FBEA95",
"oX c #FFFD95",
"OX c #FFF78C",
"+X c #D7DBA4",
"@X c #D9DDA5",
"#X c #DADEA8",
"$X c #D1D3A3",
"%X c #DDE1AC",
"&X c #DEE1B3",
"*X c #E2E5AE",
"=X c #E7EAAD",
"-X c #FFFEAA",
";X c #EAEDB3",
":X c #E1E5BA",
">X c #E7E8B4",
",X c #FCFCB7",
"<X c #BABCC2",
"1X c #BFC1C2",
"2X c #C2C3C5",
"3X c #CBCCCC",
"4X c #C7C8C9",
"5X c #DBDCDC",
"6X c #D3D4D5",
"7X c #CECED0",
"8X c #DFE0DE",
"9X c #E7EAC8",
"0X c #E8EAD7",
"qX c #EEF1D9",
"wX c #F7F8DB",
"eX c #FFFFC5",
"rX c #D6D8E2",
"tX c #DFE0E0",
"yX c #ECECEB",
"uX c #E4E4E4",
"iX c #EFF0EF",
"pX c #F3F5E5",
"aX c #F4F6EB",
"sX c #F6F8ED",
"dX c #F5F5F4",
"fX c #F9FBF4",
"gX c #FDFFFE",
"hX c #F7F9F6",
/* pixels */
"gXgXgXgXgXgXgXgXgXgXgXgXgXgXgXgXgXgXgXgXgXgXgXgXgXgXgXgXgXgXgXgXgXgXgXgXgXgXgXgXgXgXgXgXgXgXgXgXgXgXgXgXgXgXgXgXgXgXgXgXgXgXgXgX",
"gXgXgXgXgXgXgXgXgXgXgXgXgXgXgXgXgXgXgXgXgXgXgXgXgXgXgXgXgXgXgXgXgXgXgXgXgXgXgXgXgXgXgXgXgXgXgXgXgXgXgXgXgXgXgXgXgXgXgXgXgXgXgXgX",
"gXgXgXgXgXgXgXgXgXgXgXgXgXgXgXgXgXgXgXgXgXgXgXgXgXgXgXgXgXgXgXgXgXgXgXgXgXgXgXgXgXgXgXgXgXgXgXgXgXgXgXgXgXgXgXgXgXgXgXgXgXgXgXgX",
"gXgXgXgXgXgXgXgXgXgXgXgXgXgXgXgXgXgXgXgXgXgXgXgXgXgXgXgXgXgXgXgXgXgXgXgXgXgXgXgXgXgXgXgXgXgXgXgXgXgXgXgXgXgXgXgXgXgXgXgXgXgXgXgX",
"gXgXgXgXgXgXgXgXgXgXgXgXgXgXgXgXgXgXgXgXgXgXgXgXgXgXgXgXgXgXgXgXgXgXgXgXgXgXgXgXgXgXgXgXgXgXgXgXgXgXgXgXgXgXgXgXgXgXgXgXgXgXgXgX",
"gXgXgXgXgXgXgXgXgXgXgXgXgXgXgXgXgXgXgXgXgXgXgXgXgXgXgXgXgXgXgXgXgXgXgXgXgXgXgXgXgXgXgXgXgXgXgXgXgXgXgXgXgXgXgXgXgXgXgXgXgXgXgXgX",
"gXgXgXgXgXgXgXgXgXhXgXgXgXgXgXgXgXgXgXgXgXgXgXgXgXgXgXgXgXgXgXgXgXgXgXgXgXgXgXgXgXgXgXgXgXgXgXgXgXgXgXgXgXgXhXgXgXgXgXgXgXgXgXgX",
"gXgXgXgXgXgXgXgXgXgXgXgXgXgXgXgXgXgXgXgXgXgXgXgXgXgXgXgXgXgXgXgXgXgXgXgXgXgXgXgXgXgXgXgXgXgXgXgXgXgXgXhXgXgXgXgXgXgXgXgXgXgXgXgX",
"gXgXgXgXgXgXgXgX2XI 1XgXgXgXhXgXgXgXgXgXgXgXgXgXgXgXgXgXgXgXgXgXgXgXgXgXgXgXgXgXgXgXgXgXgXgXgXgXgXgXgXgXhX2XI `.gXgXgXgXgXgXgXgX",
"gXgXgXgXgXgXgXgXs   X a `.gXgXgXgXgXgXgXgXgXgXgXgXgXgXgXgXgXgXgXgXgXgXgXgXgXgXgXgXgXgXgXgXgXgXhXgXgXuXR.q X   - yXgXgXgXgXgXgXgX",
"gXgXgXgXgXgXgXgXp ; r o   a ].gXgXgXgXgXgXgXgXgXgXgXgXgXgXgXgXgXgXgXgXgXgXgXgXgXgXgXgXgXgXhXgXgX5XJ %   = r 9 - yXgXgXgXgXgXgXgX",
"gXgXgXgXgXgXgXgXN % h t r %   H yXgXgXgXgXgXgXgXgXgXgXgXgXgXgXgXgXgXgXgXgXgXgXgXgXgXgXgXgXgXyXI % X 9 t h t % q gXgXgXgXgXgXgXgX",
"gXgXgXgXgXgXgXgXA X h r t t 9   9 4XgXgXgXgXgXgXgXgXgXgXgXgXgXgXgXgXgXgXgXgXgXgXgXgXgXgXgX/.6   ; e e t r r X C gXhXgXgXgXgXgXgX",
"gXgXgXgXgXgXhXgX!.  h r y n b e % X /.gXgXgXgXgXgXgXgXgXgXgXgXgXgXgXgXgXgXgXgXgXgXgXgX8XV   : t m _ m e t 9   W.gXgXgXgXgXgXgXgX",
"gXgXgXgXgXgXgXgX4XX r r e a.h.' h <   Y.gXgXgXgXgXgXgXgXgXgXgXgXgXgXgXgXgXgXgXgXhXgX'.% % e Q &.k.b.] w r ; X 3XgXgXgXgXgXgXgXgX",
"gXgXgXgXgXgXgXgXhX9 ; t y a.z.z.a.~ Q   I gXgXgXgXgXgXgXgXgXgXgXgXgXgXgXgXgXgXgXgXE.  P &X&.c.c.h.c.] w w o a gXgXgXgXgXgXgXgXgX",
"gXgXgXgXgXgXgXgXgXK   t t a.z.g.j.z.d.!   W.gXgXgXgXgXgXgXgXgXgXgXgXgXgXgXgXgXgXP   /.,Xc.z.h.h.h.c.' 9 w   !.gXgXgXgXgXgXgXgXgX",
"gXgXgXgXgXgXgXgXgX4XX w r &.z.h.h.h.k.r.Q   '.gXhXgXgXgXgXgXgXgXgXgXgXgXgXgXgXK   '.-Xu.g.h.h.h.k.v.Q 5 = 5 yXgXgXgXgXgXgXgXgXgX",
"gXgXgXgXgXgXgXgXgXgXV % e _ b.h.h.h.h.f.<.j & uXgXgXgXgXgXgXgXgXgXgXgXgXhXgXI   ].-Xy.h.j.j.h.h.h.f.t 9   W.gXgXgXgXgXgXgXgXgXgX",
"gXgXgXgXgXgXgXgXgXgX].  9 m c.j.h.h.h.h.d.;.> C gXgXgXgXgXgXgXgXgXgXgXgXgX_.  `.-Xy.j.h.h.h.h.g.v.` 6 o p hXgXgXgXgXgXgXgXgXgXgX",
"gXgXgXgXgXgXgXgXgXgXgXC X e @.x.h.h.h.h.j.r.[ X '.gXgXgXgXgXgXgXgXgXhXgX7X  W.eXp.h.h.h.h.h.h.z.s.y -   <XgXgXgXgXgXgXgXgXgXgXgX",
"gXgXgXgXgXgXgXgXgXgXgX7X$ y %.h.h.h.h.h.j.f.1.d p gXgXgXgXgXgXgXgXgXgXhXw V wXh.h.h.h.h.h.h.j.k.1.m   W.gXgXgXgXgXgXgXgXgXgXgXgX",
"gXgXgXgXgXgXgXgXgXgXgXgXE.  +.<.k.j.h.h.h.h.r.+.  `.gXgXgXgXgXgXgXhXgXI o 0XP.i.j.h.h.h.h.z.f.w.O.+ C gXgXgXgXgXgXgXgXgXgXgXgXgX",
"gXgXgXgXgXgXgXgXgXgXgXgXgXZ + #.<.k.c.h.h.h.g.<.f i ^.C N p i V L $X7XX ^.-Xy.j.h.h.h.h.h.s.w.+.  N hXgXgXgXgXgXgXgXgXgXgXgXgXgX",
"gXgXgXgXgXgXgXgXgXgXgXgXgXyXp # #.<.d.c.j.h.j.w.W $ 7 Z J J J C p * X N wXj.h.h.h.h.j.g.e.<.!   V dXgXgXgXgXgXgXgXgXgXgXgXgXgXgX",
"gXgXgXgXgXgXgXgXgXgXgXgXgXgXuXp + [ 1.>.s.j.i.G..X$XXXI.K.K.K.K.U..XF ].OXi.j.h.h.h.d.<.$.k   P gXgXgXgXgXgXgXgXgXgXgXgXgXgXgXgX",
"gXgXgXgXgXgXgXgXgXgXgXgXgXgXgXyXV   x :.:.:.U.,XU.c.i.y.u.g.u.u.g.h.J.I.j.h.h.g.r.<.=.x . 5 '.gXgXgXgXgXgXgXgXgXgXgXgXgXgXgXgXgX",
"gXgXgXgXgXgXgXgXgXgXgXgXgXgXgXgXgX~.$ < R XXXXh.i.h.h.h.h.j.j.z.j.h.h.u.h.s.,.=.( k . * Y.dXgXgXgXgXgXgXgXgXgXgXgXgXgXgXgXgXgXgX",
"gXgXgXgXgXgXgXgXgXgXgXgXgXgXgXgXhXgX/.  !.OXy.h.j.h.z.h.h.h.h.h.h.h.h.j.h.g.<.z X B !.yXgXgXgXgXgXgXgXgXgXgXgXgXgXgXgXgXgXgXgXgX",
"gXgXgXgXgXgXgXgXgXgXgXgXgXgXgXgXgXgXq A oXi.j.h.h.h.h.h.h.h.h.h.h.h.h.h.h.h.r.[ X '.gXgXhXgXgXgXgXgXhXgXiXN ~.gXgXgXgXgXgXgXgXgX",
"gXgXgXgXgXgXgXgXgXgXgXgXgXgXgXgXgX^.X +Xz.g.h.h.h.h.h.h.h.h.h.h.h.h.j.h.h.h.h.w.d N gXgXgXgXgXgXgXgXgXyXa   G gXgXgXgXgXgXgXgXgX",
"gXgXgXgXgXgXgXgXgXgXgXgXgXgXgXgXgXq D P.u.v.v.v.h.h.h.h.h.h.h.h.h.c.v.v.j.h.j.r.! $ 8XgXgXgXgXgXhXgXuX7 > + Y.gXhXgXgXgXgXgXgXgX",
"gXgXgXgXgXgXgXgXgXgXgXgXgXgXgXgX3X$ A.x.x.` z *.v.h.h.h.h.h.h.h.c.&.m ) z.k.c.f.$.X `.gXhXgXgXhXgX8X6 3 3.+ ^.gXgXgXgXgXgXgXgXgX",
"gXgXgXgXgXgXgXgXgXgXgXgXgXgXhXgX/.& L.x.` 6 rXs 0.c.h.h.h.h.h.h.f.# <XL E v.h.g.1.# Y.gXgXgXgXgX5X6 r p.|   '.gXgXgXgXgXgXgXgXgX",
"gXgXgXgXgXgXgXgXgXgXgXgXgXgXgXgXP w J.x.v * P % { x.k.z.j.c.h.c.@.X J i k x.h.k.<., L gXhXhXgX5X: t k.6.W X 4XgXhXgXgXgXgXgXgXgX",
"gXgXgXgXgXgXgXgXgXgXgXgXgXgXgXgXH 2 v.c.] X   2 f.h.k.c.c.k.j.z.f.2     ' J.z.g.<.> L gXhXgX6X& s k.6.4.Y * uXgXgXgXgXgXgXgXgXgX",
"gXgXgXgXgXgXgXgXgXgXgXgXgXgXhXgXY.# H.{.Z.M.) 0.c.s.k u 4 z v.k.z.0.) M.C.[.S.p.;.O !.gXgX7X% s z.6.5.4.U 8 hXgXgXgXgXgXgXgXgXgX",
"gXgXgXgXgXgXgXgXgXgXgXgXgXgXgXgX`.  ^ {.T.C.J.z.j.c.) ) ~ { c.h.h.z.v.C.T.[.[.V. .X ].gX4X% b c.5.5.5.X.g B gXgXgXgXgXgXgXgXgXgX",
"gXgXgXgXgXgXgXgXgXgXgXgXgXgXgXgXuX$ / {.T.[.F.h.h.j.b.v.v.c.h.h.h.h.g.[.T.{.^ 2.c 6 gX2X$ V z.5.5.5.5.X.1 Z gXgXgXgXgXgXgXgXgXgX",
"gXgXgXgXgXgXgXgXgXgXgXgXgXgXgXgXgXS < }.T.S.z.h.h.h.h.h.h.h.h.h.h.h.z.S.[.T.D.=.  ~.5X  F b.5.5.5.5.4.X.> J gXhXgXgXgXgXgXgXgXgX",
"gXgXgXgXgXgXgXgXgXgXgXgXgXgXgXgXgX6X$ Q F.j.h.h.h.h.h.h.h.h.h.h.h.h.h.z.F.2.1.d 5 gX1X  k 7.8.6.5.5.6.Y   ^.gXgXgXgXgXgXgXgXgXgX",
"gXgXgXgXgXgXgXgXgXgXgXgXgXgXgXgXgXgX!.  R g.j.c.h.h.h.h.h.h.h.h.h.z.c.g.,.:.l $ 1XgXgX2X7 @ ( 8.5.8.R   K gXgXgXgXgXgXgXgXgXgXgX",
"gXgXgXgXgXgXgXgXgXgXgXgXgXgXgXgXgXgXgXS + $.>.f.h.h.h.h.h.h.h.h.h.g.e.=.=.-.1 p gXgXgXgXI X m.6.5.X.W > 0 3XgXgXgXgXgXgXgXgXgXgX",
"gXgXgXgXgXgXgXgXgXgXgXgXgXgXgXgXgXgXyX8 x w.:.e.h.h.h.h.h.z.h.h.h.f.e.e.e.t.O.  W.gXgXY.X m.9.5.4.| ..| d X `.gXgXgXgXgXgXgXgXgX",
"gXgXgXgXgXgXgXgXgXgXgXgXgXgXgXgXgXgXE.. $.j *.c.h.h.h.h.z.h.h.h.h.h.z.j.j.h.z.v $ dX2X  F 9.4.5.7.4.X.| j   P gXhXgXgXgXgXgXgXgX",
"gXgXgXgXgXgXgXgXgXgXgXgXgXgXgXgXgXgX7 l #.X *.c.h.h.h.h.h.h.h.h.h.h.h.h.j.j.h.f.O R.gXZ # E ....X.| g   7 `.gXgXgXgXgXgXgXgXgXgX",
"gXgXgXgXgXgXgXgXgXgXgXgXgXgXgXgXgX|.X O.R % k.h.h.h.h.h.h.h.h.i.h.h.h.h.>.l.h.x.v 6 gX(.  c X.| c   8 ^.hXgXgXgXgXgXgXgXgXgXgXgX",
"gXgXgXgXgXgXgXgXgXgXgXgXgXgXgXgXgXY.@ r.l 2 z.h.h.h.h.h.h.h.h.h.h.h.g.x.Q 2 x.x.@.% J $ E ..c . 8 E.hXgXgXhXgXgXgXgXgXgXgXgXgXgX",
"gXgXgXgXgXgXgXgXgXgXgXgXgXgXgXgXgXY.. t.l 3 x.h.h.h.h.h.h.h.h.h.h.h.h.c.O.$ ) z.! $ X U Y   & Y.iXgXgXhXgXgXgXgXgXgXgXgXgXgXgXgX",
"gXgXgXgXgXgXgXgXgXgXgXgXgXgXgXgXgXrX5 + $ f g.j.j.h.h.h.h.h.h.h.h.h.c.e.1.x X f - $ 1 > * Y.yXgXgXgXgXgXgXgXgXgXgXgXgXgXgXgXgXgX",
"gXgXgXgXgXgXgXgXgXgXgXgXgXgXgXgXgXgX5XE.B 3 :.,.f.j.c.c.c.j.h.h.j.h.e.=.=.:.l $ X   & L uXgXgXgXgXgXgXgXgXgXgXgXgXgXgXgXgXgXgXgX",
"gXgXgXgXgXgXgXgXgXgXgXgXgXgXgXgXgXgXhXgXR.@ :.=.=.;.>.t.e.s.t.e.>.-.=.=.=.1.v X - P tXgXgXhXgXgXgXgXgXgXgXgXgXgXgXgXgXgXgXgXgXgX",
"gXgXgXgXgXgXgXgXgXgXgXgXgXgXgXgXgXgXhXgX`.X $.:.=.-.=.#.#.#.#.#.#.$.-.=.=.1.d B yXgXgXhXgXgXgXgXgXgXgXgXgXgXgXgXgXgXgXgXgXgXgXgX",
"gXgXgXgXgXgXgXgXgXgXgXgXgXgXgXgXgXgXgXgX6X$ ( :.=.$.; X . X X o o X R 1.#.1.# Y.gXgXgXgXgXgXgXgXgXgXgXgXgXgXgXgXgXgXgXgXgXgXgXgX",
"gXgXgXgXgXgXgXgXgXgXgXgXgXgXgXgXgXgXaXpXwX7 j w.w.x & Q.Q.N.).Q.).V @ ;.w.O.  ).wX0XqXpXsXfXhXgXgXgXgXgXgXgXgXgXgXgXgXgXgXgXgXgX",
"gXgXgXgXgXgXgXgXgXgXgXgXgXfX9X9X&X%X#X+X=XB.X d d   B.,X>X>X>X=X;X$X- # j + e +X+X+X+X@X#X#X%X>X9X0XfXgXgXgXgXgXgXgXgXgXgXgXgXgX",
"gXgXgXgXgXgXgXgXgXgXgXgXgX9X#X@X@X@X@X%X@X*XN.s s N.*X+X+X+X+X+X+X%X).V s D  X%X#X#X#X+X+X+X@X+X+X@XpXgXgXgXgXgXgXgXgXgXgXgXgXgX",
"gXgXgXgXgXgXgXgXgXgXgXgXgXgXfXpXqX9X9X:X&X&X;X;X;X;X@X%X#X%X@X@X+X%X*X;X=X;X%X+X%X%X*X:X:X9X0XqXsXgXgXgXgXgXgXgXgXgXgXgXgXgXgXgX",
"gXgXgXgXgXgXgXgXgXgXgXgXgXgXgXgXgXgXgXgXgXgXhXfXhXsXsXaXaXpXpXpXpXpXpXpXsXpXpXsXfXfXgXgXgXgXgXgXgXgXgXgXgXgXgXgXgXgXgXgXgXgXgXgX",
"gXgXgXgXgXgXgXgXgXgXgXgXgXgXgXgXgXgXgXgXgXgXgXgXgXgXgXgXgXgXgXgXgXgXgXgXgXgXgXgXgXgXgXgXgXgXgXgXgXgXgXgXgXgXgXgXgXgXgXgXgXgXgXgX",
"gXgXgXgXgXgXgXgXgXgXgXgXgXgXgXgXgXgXgXgXgXgXgXgXgXgXgXgXgXgXgXgXgXgXgXgXgXgXgXgXgXgXgXgXgXgXgXgXgXgXgXgXgXgXgXgXgXgXgXgXgXgXgXgX",
"gXgXgXgXgXgXgXgXgXgXgXgXgXgXgXgXgXgXgXgXgXgXgXgXgXgXgXgXgXgXgXgXgXgXgXgXgXgXgXgXgXgXgXgXgXgXgXgXgXgXgXgXgXgXgXgXgXgXgXgXgXgXgXgX",
"gXgXgXgXgXgXgXgXgXgXgXgXgXgXgXgXgXgXgXgXgXgXgXgXgXgXgXgXgXgXgXgXgXgXgXgXgXgXgXgXgXgXgXgXgXgXgXgXgXgXgXgXgXgXgXgXgXgXgXgXgXgXgXgX",
"gXgXgXgXgXgXgXgXgXgXgXgXgXgXgXgXgXgXgXgXgXgXgXgXgXgXgXgXgXgXgXgXgXgXgXgXgXgXgXgXgXgXgXgXgXgXgXgXgXgXgXgXgXgXgXgXgXgXgXgXgXgXgXgX"
};
