/* XPM */
static char *pokemon2[] = {
/* columns rows colors chars-per-pixel */
"64 64 230 2 ",
"   c #020103",
".  c #02020C",
"X  c #0D0905",
"o  c #1B1815",
"O  c #100E0F",
"+  c #241F1C",
"@  c #3A3606",
"#  c #2E2B06",
"$  c #272526",
"%  c #3B3A39",
"&  c #36322B",
"*  c #4D2E0D",
"=  c #6F3E0E",
"-  c #403D3E",
";  c #7B3120",
":  c #454207",
">  c #4F490B",
",  c #696305",
"<  c #7D5E50",
"1  c #63635C",
"2  c #5A5C6B",
"3  c #706E6D",
"4  c #6B6A64",
"5  c #8C301E",
"6  c #9C1B24",
"7  c #B9152C",
"8  c #8B2B26",
"9  c #A82823",
"0  c #BB2F20",
"q  c #AB3537",
"w  c #C8192C",
"e  c #D41330",
"r  c #DA0E2F",
"t  c #EC1C31",
"y  c #E51434",
"u  c #EF1C30",
"i  c #D33825",
"p  c #EA272D",
"a  c #E6282E",
"s  c #E92831",
"d  c #995B0D",
"f  c #94541B",
"g  c #A75517",
"h  c #AF411A",
"j  c #BE7713",
"k  c #B86E04",
"l  c #B84521",
"z  c #816D27",
"x  c #AE7D3B",
"c  c #8C720B",
"v  c #C44B1B",
"b  c #C47B08",
"n  c #CC781C",
"m  c #AA465B",
"M  c #987758",
"N  c #B8656A",
"B  c #97870D",
"V  c #978F14",
"C  c #B5850C",
"Z  c #AB9C0C",
"A  c #BD9C0C",
"S  c #B69405",
"D  c #B98B16",
"F  c #B49A10",
"G  c #ACA70B",
"H  c #BBAE0B",
"J  c #B5AB0B",
"K  c #BEBB0A",
"L  c #BDB308",
"P  c #B4A817",
"I  c #BCB110",
"U  c #AD8F2B",
"Y  c #ABA324",
"T  c #DB8509",
"R  c #C09C0E",
"E  c #DE910B",
"W  c #CF8714",
"Q  c #E28C01",
"!  c #EB8B00",
"~  c #E49205",
"^  c #ED9303",
"/  c #EF9904",
"(  c #EC970A",
")  c #F39403",
"_  c #F29A03",
"`  c #F19309",
"'  c #F69B05",
"]  c #E29517",
"[  c #F2970F",
"{  c #C5A809",
"}  c #C3B30A",
"|  c #C6BA06",
" . c #CCB912",
".. c #F3AC04",
"X. c #F6A505",
"o. c #E9B602",
"O. c #F2B304",
"+. c #F6BD06",
"@. c #EEA504",
"#. c #CA8B35",
"$. c #DAA63C",
"%. c #CFAE24",
"&. c #CDC50A",
"*. c #C8C609",
"=. c #D4CC06",
"-. c #D4CB0A",
";. c #D7C908",
":. c #DAD609",
">. c #EAC706",
",. c #F5C603",
"<. c #F5CB04",
"1. c #F9CB03",
"2. c #F8C608",
"3. c #E3DB04",
"4. c #E1D60B",
"5. c #E4DB0D",
"6. c #E8DB08",
"7. c #F9DC02",
"8. c #F7D705",
"9. c #E7DD18",
"0. c #EDE404",
"q. c #ECE309",
"w. c #E8E509",
"e. c #F3E501",
"r. c #FBE503",
"t. c #F5EA01",
"y. c #FEEF02",
"u. c #F4EB0A",
"i. c #FBEE08",
"p. c #F1E70C",
"a. c #F5F402",
"s. c #FEF203",
"d. c #FEFB04",
"f. c #FDF409",
"g. c #FFF909",
"h. c #F3F707",
"j. c #ECE318",
"k. c #EFEB0C",
"l. c #CAC224",
"z. c #DBD526",
"x. c #DFD739",
"c. c #CAC332",
"v. c #E5DA28",
"b. c #E4DD3A",
"n. c #E2D833",
"m. c #EBE426",
"M. c #E7E025",
"N. c #DE9F42",
"B. c #CD9F50",
"V. c #DAA758",
"C. c #D6AF54",
"Z. c #D1B46F",
"A. c #DDD648",
"S. c #D4C955",
"D. c #E5DC47",
"F. c #E3DA59",
"G. c #E6E154",
"H. c #ECE652",
"J. c #DBD66A",
"K. c #D4CE79",
"L. c #DEDA75",
"P. c #DAD378",
"I. c #E1DA6A",
"U. c #E2DC75",
"Y. c #E5E169",
"T. c #E7E374",
"R. c #DB7588",
"E. c #CF618C",
"W. c #E56B9C",
"Q. c #EB7892",
"!. c #F87B9A",
"~. c #9B9998",
"^. c #929189",
"/. c #A1948B",
"(. c #B8A185",
"). c #9C9BAA",
"_. c #BAB7AF",
"`. c #F88196",
"'. c #DEBF8D",
"]. c #DBD788",
"[. c #D8C798",
"{. c #DCDA9A",
"}. c #CFC184",
"|. c #E0C181",
" X c #E2DD82",
".X c #E1DC9B",
"XX c #E0DC95",
"oX c #E4C89A",
"OX c #E6E297",
"+X c #E8E589",
"@X c #DBC5A4",
"#X c #D9C7A7",
"$X c #DEDBA2",
"%X c #DBD9AC",
"&X c #DDCEB0",
"*X c #DAD9B6",
"=X c #C9C5AA",
"-X c #E2CCA3",
";X c #E3DEA9",
":X c #E3D9B7",
">X c #F2D7A1",
",X c #E7E3A5",
"<X c #E7E7B7",
"1X c #BEBCCF",
"2X c #C8C8CC",
"3X c #D7D6D8",
"4X c #DDCEC4",
"5X c #E4DACB",
"6X c #E5D9C7",
"7X c #E6DBD4",
"8X c #EAE7C7",
"9X c #E5E4D4",
"0X c #E8E6D8",
"qX c #EEF1C7",
"wX c #E5DFE0",
"eX c #E5E5E4",
"rX c #ECEBE5",
"tX c #EDECEB",
"yX c #E6E8E9",
"uX c #F0EEEB",
"iX c #F1ECE6",
"pX c #F3F1EC",
"aX c #ECEBF5",
"sX c #F3F3F2",
"dX c #FCFCF5",
"fX c #F5F4FD",
"gX c #F6FBFE",
"hX c #FFFFFF",
"jX c #F8F6FA",
"kX c #EEF4F8",
/* pixels */
"hXhXhXhXhXhXhXhXhXhXhXhXhXhXhXhXhXhXhXhXhXhXhXhXhXhXhXhXhXhXhXhXhXhXhXhXhXhXhXhXhXhXhXhXhXhXhXhXhXhXhXhXhXhXhXhXhXhXhXhXhXhXhXhX",
"hXhXhXhXhXhXhXhXhXhXhXhXhXhXhXhXhXhXhXhXhXhXhXhXhXhXhXhXhXhXhXhXhXhXhXhXhXhXhXhXhXhXhXhXhXhXhXhXhXhXhXhXhXhXhXhXhXhXhXhXhXhXhXhX",
"hXhXhXhXhXhXhXhXhXhXhXhXhXhXhXhXhXhXhXhXhXhXhXhXhXhXhXhXhXhXhXhXhXhXhXhXhXhXhXhXhXhXhXhXhXhXhXhXhXhXhXhXhXhXhXhXhXhXhXhXhXhXhXhX",
"hXhXhXhXhXhXhXhXhXhXhXhXhXhXhXhXhXhXhXhXhXhXhXhXhXhXhXhXhXhXhXhXhXhXhXhXhXhXhXhXhXhXhXhXhXhXhXhXhXhXhXhXhXhXhXhXhXhXhXhXhXhXhXhX",
"hXhXhXhXhXhXhXhXhXhXhXhXhXhXhXhXhXhXhXhXhXhXhXhXhXhXhXhXhXhXhXhXhXhXhXhXhXhXhXhXhXhXhXhXhXhXhXhXhXhXhXhXhXhXhXhXhXhXhXhXhXhXhXhX",
"hXhXhXhXhXhXhXhXhXhXhXhXhXhXhXhXhXhXhXhXhXhXhXhXhXhXhXhXhXhXhXhXhXhXhXhXhXhXhXhXhXhXhXhXhXhXhXhXhXhXhXhXhXjXhXhXhXhXhXhXhXhXhXhX",
"hXhXhXhXhXhXhXhXhXhXhXhXhXhXhXhXhXhXhXhXhXhXhXhXhXhXhXhXhXhXhXhXhXhXhXhXhXhXhXhXhXhXhXhXhXhXhXhXhXjXhXhXhXhXhXhXhXhXhXhXhXhXhXhX",
"hXhXhXhXhXhXhXhXhXhXhXhXhXhXhXhXhXhXhXhXhXhXhXhXhXhXhXhXhXhXhXhXhXhXhXhXhXhXhXhXhXhXhXhXhXhXhXhXhXhXhXeX2X~.3XdXhXhXhXhXhXhXhXhX",
"hXhXhXhXhXhXhXhXhXhXhXhXhXhXhXhXhXhXhXhXhXhXhXhXhXhXhXhXhXhXhXhXhXhXhXhXhXhXhXdXhXhXhXhXhXhXhXfX<X/.- $   $ 3XhXhXhXhXhXhXhXhXhX",
"hXhXhXhXhXhXhXhXhXhXhXhXhXhXhXhXhXhXhXhXhXhXhXhXhXhXhXhXhXhXhXhXhXhXsXfXgXjXhXhXhXhXhXhXgX0X].b.0.@ X   % eXhXhXhXhXhXhXhXhXhXhX",
"hXhXhXhXhXhXhXhXhXhXhXhXhXhXhXhXhXhXhXhXhXhXhXhXhXhXhXhXhXhXhXhXhXhX[.%.D.G.I.U.,XqXrX9XI.9.t.d.=.O X % eXhXdXhXhXhXhXhXhXhXhXhX",
"hXhXhXhXhXhXhXhXhXhXhXhXhXhXhXhXhXhXhXhXhXhXhXhXhXhXhXhXhXhXhXhXdXhX-X! ..7.s.s.y.L Y j.a.s.f.d.V . % eXhXdXhXhXhXhXhXhXhXhXhXhX",
"hXhXhXhXhXhXhXhXdXhXhXhXhXhXhXdXhXhXhXhXhXhXhXhXhXhXhXhXhXhXdXhXhXhX7X! ) [ 2.4.G &.s.s.s.s.y.g.: O =XhXjXhXhXhXhXhXhXhXhXhXhXhX",
"hXhXhXhXhXgXhXhXhXhXhXhXhXhXhXhXhXhXhXhXhXhXhXjXhXhXjXhXhXhXhXhXhXhXtX] _ _ b H u.g.i.i.s.t.d.=.: &.p.x.].8XfXhXhXhXhXhXhXhXhXhX",
"hXhXhXhXhXhXhXjX3X&X.XXXXXXXXX;X;X8X0X0XuXaXfXgXeX;XL.J.+X.X;X8X9XrXyX#.^ j =.g.s.y.y.y.i.d.5.Z w.d.s.s.y.q.b.XXeXdXhXhXhXhXhXhX",
"hXhXhXhXaX_.4 & . , d.e.t.t.t.e.y.t.0.j.z.l.S.S.9.e.s.s.s.t.t.e.6.p.v.Z c 5.d.a.y.y.t.d.s.L J f.f.t.y.f.i.s.s.t.9.U.0XhXhXhXhXhX",
"hXhXjXhX~.O   X o o -.g.f.s.s.s.s.s.s.s.s.s.s.s.s.s.f.i.s.s.s.s.s.s.s.s.q.f.i.s.d.g.f.-.J =.s.s.y.y.y.y.y.y.y.f.s.t.j.L.uXhXhXhX",
"hXhXhXhXhX3X3 + X   @ h.g.s.i.y.f.i.s.s.s.y.y.i.i.y.s.y.s.i.y.y.s.s.s.y.s.i.s.s.8.{ C b @.f.s.y.f.y.y.y.s.y.s.y.y.f.s.n.uXhXhXhX",
"hXhXhXhXhXhXhXeX~.1 $ * =.y.y.s.s.s.y.e.6.s.t.d.s.f.y.s.y.y.y.s.s.y.y.s.i.t.d.} d b ! X.` @.t.s.y.s.y.s.s.y.y.y.f.s.p.9XhXhXhXhX",
"hXhXhXhXhXhXhXhXhXhXkX2X_.+XT.G.D.C.C.B.3.g.u. .9.s.y.y.y.y.y.y.y.y.s.s.s.s.s.:.C X._ / ) ^ ..s.s.y.y.y.y.y.y.y.i.t.].hXhXhXhXhX",
"hXhXhXhXhXhXhXjXdXjXhXhXgX%X9XaXgXjXgX{.t.g.> ).dX:.s.i.y.y.y.y.y.s.s.m.l.t.s.f.R ! ) _ / / ^ O.s.y.s.y.y.y.y.f.y.D.fXhXhXhXhXhX",
"hXhXhXhXhXhXhXhXhXhXhXhX].0.5.A.sXdXgXI.d.J   4 ^.| g.y.y.s.s.s.y.s.| 0X1X, d.d.R ^ _ ) ) _ _ ) ,.s.i.s.y.y.i.s.9.9XhXhXhXhXhXhX",
"hXhXhXhXhXhXhXhXhXhXhX0X4.s.s.s.H.sXfXb.d.*.o   : s.i.y.y.e.t.s.y.d.G 2 1 o 6.d.S Q ' ' ( _ _ _ ( 8.s.s.s.y.s.e.{.hXdXhXhXhXhXhX",
"hXhXhXhXhXhXhXhXhXhXhX*Xq.s.i.s.s.H.*Xh.d.d.=.L u.s.y.y.i.&.6.s.y.s.0.# . > f.g.c (.$.E ) _ / / ) @.r.s.y.i.s.F.fXhXhXhXhXhXhXhX",
"hXhXhXhXhXhXhXhXhXhXhXaXv.s.s.y.s.u.V D D 0.d.d.s.s.s.d.d.g.d.f.t.y.g.w.I k.s.s.S @XgX#XB.~ ) / _ ( ..s.i.s.v.rXhXhXhXhXhXhXhXhX",
"hXhXhXhXhXhXhXhXhXhXhXgXD.s.s.i.d.K 6 y r h 0.s.t.&.:.:.R g { h.d.s.t.s.g.d.k.h.| #.dXhXgX6XV.~ ^ / [ <.g.0.;XhXhXhXhXhXhXhXhXhX",
"hXhXhXhXhXhXhXhXhXhXhXhX Xy.i.y.d.J e s p e R d.s.:.f 6 8 q 8 d F G ;.s.a.R l v f k :XhXdXhXfX6XV.~ ` ' e.L.jXhXhXhXhXhXhXhXhXhX",
"hXhXhXhXhXhXhXhXhXhXhXhX<Xt.s.y.d.{ w p s e C d.i.g.d m R.R.R.m ; :.g.g.{ 7 t p 7 k V.gXhXdXhXhXgX6XV.Q $.sXhXhXhXhXhXhXhXhXhXhX",
"hXhXhXhXhXhXhXhXhXhXhXhXrXj.s.y.s.:.9 u u 7 &.d.t.d.P W.!.Q.!.W.Y d.i.a.g y s p w k ~ 7XhXdXhXhXhXhXgX6X7XhXjXhXhXhXhXhXhXhXhXhX",
"hXhXhXhXhXhXhXhXhXhXhXhXjXD.s.i.s.d.B 9 0 A d.y.s.s.:.N !.Q.!.N 3.s.i.a.l t a p w j ' Z.hXjXhXhXhXjXhXhXhXhXhXhXhXhXhXhXhXhXhXhX",
"hXhXhXhXhXhXhXhXhXhXhXdXhX Xy.i.y.s.:.G t.s.s.y.y.i.d.U W.!.E.P s.y.i.d.j r a t 5 C [ >XhXjXhXhXhXhXhXhXhXhXhXhXhXhXhXhXhXhXhXhX",
"hXhXhXhXhXhXhXhXhXhXhXhXhX9X6.s.f.y.g.*.=.d.i.s.s.y.s.=.N W.U s.s.s.i.s.6.n i 5 =.L Z.gXhXhXdXhXhXhXhXhXhXhXhXhXhXhXhXhXhXhXhXhX",
"hXhXhXhXhXhXhXhXhXhXhXhXhXgXC.y.s.y.y.f.L 6.g.y.y.y.y.d.} %.a.f.y.y.s.y.g.g.K *.g.s.u.n.{.yXhXdXhXhXhXhXhXhXhXhXhXhXhXhXhXhXhXhX",
"hXhXhXhXhXhXhXhXhXhXhXhXhXhX4Xo.g.i.t.s.f.H -.s.y.s.y.i.s.g.i.y.y.s.s.s.6.H 3.g.y.i.s.s.t.z.;XjXhXhXhXhXhXhXhXhXhXhXhXhXhXhXhXhX",
"hXhXhXhXhXhXhXhXhXhXhXhXhXhXgXB.,.g.y.s.s.t.-.t.s.y.s.y.i.i.y.s.s.s.t.| I q.s.y.y.s.y.y.s.s.t.G.,XiXhXhXhXhXhXhXhXhXhXhXhXhXhXhX",
"hXhXhXhXhXhXhXhXhXhXhXhXhXdXhX5XQ 1.f.y.s.f.s.s.s.y.s.s.s.s.d.s.y.s.u.6.s.s.s.i.y.y.y.y.s.y.s.s.0.[.hXhXhXhXhXhXhXhXhXhXhXhXhXhX",
"hXhXhXhXhXhXhXhXhXhXhXhXhXhXhXhX'.k +.s.y.y.y.y.y.y.s.7.,.<.<.8.y.s.y.s.y.y.f.t.g.s.y.y.y.y.i.f.d.c.aXhXhXhXhXhXhXhXhXhXhXhXhXhX",
"hXhXhXhXhXhXhXhXhXhXhXhXhXhXhXhXkXx <.g.y.y.y.y.y.s.y.e.O./ O.7.s.y.s.y.s.y.s.>.,.r.s.g.s.s.s.y.t.K.fXhXhXhXhXhXhXhXhXhXhXhXhXhX",
"hXhXhXhXhXhXhXhXhXhXhXhXhXhXhXdXdXZ.y.f.y.y.s.y.y.y.y.s.s.y.s.s.y.y.s.y.s.y.d. .) X...o.>.j.b.D.J.gXhXhXhXhXhXhXhXhXhXhXhXhXhXhX",
"hXhXhXhXhXhXhXhXhXhXhXhXhXhXhXhXsXb.s.y.y.y.y.y.y.y.s.y.s.s.s.y.y.s.y.y.y.y.d.| = = M 6X6XiXjXgXfXjXhXhXhXhXhXhXhXhXhXhXhXhXhXhX",
"hXhXhXhXhXhXhXhXhXhXhXhXhXhXhXhXrXj.s.y.y.y.y.y.y.y.y.y.s.y.y.s.s.y.y.y.y.y.s.&.* * ^.jXdXhXhXdXhXhXhXhXhXhXhXhXhXhXhXhXhXhXhXhX",
"hXhXhXhXhXhXhXhXhXhXhXhXhXhXhXhX8Xt.s.s.s.y.y.y.y.y.s.y.y.y.y.y.y.y.y.y.y.y.s.p.* M jXjXhXhXhXhXhXhXhXhXhXhXhXhXhXhXhXhXhXhXhXhX",
"hXhXhXhXhXhXhXhXhXhXhXhXhXhXhXhX.Xt.s.y.y.y.y.y.y.y.y.y.y.y.y.y.y.y.y.s.s.y.y.s.z 3XdXhXhXhXhXhXhXhXhXhXhXhXhXhXhXhXhXhXhXhXhXhX",
"hXhXhXhXhXhXhXhXhXhXhXhXhXhXhXhXU.s.s.s.y.y.s.y.y.s.y.y.y.y.y.s.y.y.y.y.y.y.y.y.P.hXjXhXhXhXhXhXhXhXhXhXhXhXhXhXhXhXhXhXhXhXhXhX",
"hXhXhXhXhXhXhXhXhXhXhXhXhXhXhXgXD.s.y.y.y.y.y.y.y.s.y.y.y.s.y.y.y.y.y.y.y.y.s.s.F.hXhXhXhXhXhXhXhXhXhXhXhXhXhXhXhXhXhXhXhXhXhXhX",
"hXhXhXhXhXhXhXhXhXhXhXhXhXhXhXpXM.s.i.y.y.s.y.y.y.y.y.y.y.y.y.y.y.s.y.y.y.y.y.s.v.sXhXhXhXhXhXhXhXhXhXhXhXhXhXhXhXhXhXhXhXhXhXhX",
"hXhXhXhXhXhXhXhXhXhXhXhXhXhXhX0Xp.s.s.y.y.y.y.y.y.y.s.y.y.y.y.y.y.y.y.s.y.y.y.s.u.0XhXhXhXhXhXhXhXhXhXhXhXhXhXhXhXhXhXhXhXhXhXhX",
"hXhXhXhXhXhXhXhXhXhXhXhXhXjXhX,Xt.s.y.y.y.y.s.y.y.y.y.y.y.y.y.y.y.y.y.y.s.y.y.i.t.OXhXhXhXhXhXhXhXhXhXhXhXhXhXhXhXhXhXhXhXhXhXhX",
"hXhXhXhXhXhXhXhXhXhXhXhXhXhXhXU.y.i.y.y.y.y.y.y.y.y.y.y.y.y.y.s.y.s.y.y.y.y.y.f.s.Y.jXhXhXhXhXhXhXhXhXhXhXhXhXhXhXhXhXhXhXhXhXhX",
"hXhXhXhXhXhXhXhXhXhXhXhXhXhXgXF.s.i.s.y.y.y.y.y.y.y.y.s.y.y.y.y.y.y.y.y.y.y.y.y.s.b.gXhXhXhXhXhXhXhXhXhXhXhXhXhXhXhXhXhXhXhXhXhX",
"hXhXhXhXhXhXhXhXhXhXhXhXhXhXfXD.s.s.y.y.y.y.y.y.y.y.y.y.s.y.y.y.y.y.y.y.y.y.s.y.s.m.sXhXhXhXhXhXhXhXhXhXhXhXhXhXhXhXhXhXhXhXhXhX",
"hXhXhXhXhXhXhXhXhXhXhXhXhXhXjXF.s.s.y.y.y.y.y.y.y.s.s.s.d.s.s.d.s.s.y.y.y.y.y.s.s.m.sXhXhXhXhXhXhXhXhXhXhXhXhXhXhXhXhXhXhXhXhXhX",
"hXhXhXhXhXhXhXhXhXhXhXhXhXjXhX|.,.f.s.s.d.s.s.s.s.y.7.1.1.<.<.<.8.r.y.s.g.s.g.s.d.v.jXhXhXhXhXhXhXhXhXhXhXhXhXhXhXhXhXhXhXhXhXhX",
"hXhXhXhXhXhXhXhXhXhXhXhXhXhXhX0XE X.>.,.<.2.<.,.+..._ ) ) ) ) ) ) X...+.2.2.,.,.O.K.hXhXhXhXhXhXhXhXhXhXhXhXhXhXhXhXhXhXhXhXhXhX",
"hXhXhXhXhXhXhXhXhXhXhXhXhXhXgXhX#XW ) ( ` ) ! ! ! Q E ] ] E E ~ ~ ! Q ! ! ! ^ ^ n wXhXjXhXhXhXhXhXhXhXhXhXhXhXhXhXhXhXhXhXhXhXhX",
"hXhXhXhXhXhXhXhXhXhXhXhXhXhXgXhXeXD ^ ' T W Z.@X:X5XeXyXrX9X8X8X:X&X@X[.[.V.Q ..,.U.jXdXhXhXhXhXhXhXhXhXhXhXhXhXhXhXhXhXhXhXhXhX",
"hXhXhXhXhXhXhXhXhXhXhXhXhXhXhX0X%.K { N.#XtXhXhXhXhXhXhXhXhXhXhXhXhXhXhXhXgX-Xv.a.t. XhXhXhXhXhXhXhXhXhXhXhXhXhXhXhXhXhXhXhXhXhX",
"hXhXhXhXhXhXhXhXhXhXhXhXhXhXhX}.V K.qXsXhXhXdXhXdXhXhXhXhXhXhXhXhXhXhXhXdXhXhXsX$XA.z.tXhXhXhXhXhXhXhXhXhXhXhXhXhXhXhXhXhXhXhXhX",
"hXhXhXhXhXhXhXhXhXhXhXhXhXhXjXtXtXhXhXhXhXhXhXhXhXhXhXhXhXhXhXhXhXhXhXhXhXhXdXhXhXjXuXdXhXhXhXhXhXhXhXhXhXhXhXhXhXhXhXhXhXhXhXhX",
"hXhXhXhXhXhXhXhXhXhXhXhXhXhXhXhXhXdXhXhXhXhXhXhXhXhXhXhXhXhXhXhXhXhXhXhXhXhXhXhXhXhXhXhXhXhXhXhXhXhXhXhXhXhXhXhXhXhXhXhXhXhXhXhX",
"hXhXhXhXhXhXhXhXhXhXhXhXhXhXhXhXhXhXhXhXhXhXhXhXhXhXhXhXhXhXhXhXhXhXhXhXhXhXhXhXhXhXhXhXhXhXhXhXhXhXhXhXhXhXhXhXhXhXhXhXhXhXhXhX",
"hXhXhXhXhXhXhXhXhXhXhXhXhXhXhXhXhXhXhXhXhXhXhXhXhXhXhXhXhXhXhXhXhXhXhXhXhXhXhXhXhXhXhXhXhXhXhXhXhXhXhXhXhXhXhXhXhXhXhXhXhXhXhXhX",
"hXhXhXhXhXhXhXhXhXhXhXhXhXhXhXhXhXhXhXhXhXhXhXhXhXhXhXhXhXhXhXhXhXhXhXhXhXhXhXhXhXhXhXhXhXhXhXhXhXhXhXhXhXhXhXhXhXhXhXhXhXhXhXhX",
"hXhXhXhXhXhXhXhXhXhXhXhXhXhXhXhXhXhXhXhXhXhXhXhXhXhXhXhXhXhXhXhXhXhXhXhXhXhXhXhXhXhXhXhXhXhXhXhXhXhXhXhXhXhXhXhXhXhXhXhXhXhXhXhX"
};
