/* XPM */
static char * s_xpm[] = {
"64 64 126 2",
"  	c #FFFFFF",
". 	c #EDEDED",
"+ 	c #D0D0D0",
"@ 	c #ADADAD",
"# 	c #848484",
"$ 	c #6D6D6D",
"% 	c #555555",
"& 	c #2E2E2E",
"* 	c #262626",
"= 	c #454545",
"- 	c #585858",
"; 	c #717171",
"> 	c #909090",
", 	c #A8A8A8",
"' 	c #BEBEBE",
") 	c #DADADA",
"! 	c #F2F2F2",
"~ 	c #FAFAFA",
"{ 	c #CCCCCC",
"] 	c #7D7D7D",
"^ 	c #000000",
"/ 	c #4D4D4D",
"( 	c #979797",
"_ 	c #C7C7C7",
": 	c #EBEBEB",
"< 	c #D8D8D8",
"[ 	c #E9E9E9",
"} 	c #FBFBFB",
"| 	c #A2A2A2",
"1 	c #FCFCFC",
"2 	c #8A8A8A",
"3 	c #A5A5A5",
"4 	c #222222",
"5 	c #8E8E8E",
"6 	c #C5C5C5",
"7 	c #DFDFDF",
"8 	c #F8F8F8",
"9 	c #FEFEFE",
"0 	c #F9F9F9",
"a 	c #F1F1F1",
"b 	c #E8E8E8",
"c 	c #D1D1D1",
"d 	c #B3B3B3",
"e 	c #8B8B8B",
"f 	c #DBDBDB",
"g 	c #161616",
"h 	c #A7A7A7",
"i 	c #F4F4F4",
"j 	c #AAAAAA",
"k 	c #797979",
"l 	c #D6D6D6",
"m 	c #D4D4D4",
"n 	c #8C8C8C",
"o 	c #EAEAEA",
"p 	c #E7E7E7",
"q 	c #CACACA",
"r 	c #BBBBBB",
"s 	c #727272",
"t 	c #949494",
"u 	c #D7D7D7",
"v 	c #5D5D5D",
"w 	c #E0E0E0",
"x 	c #666666",
"y 	c #7F7F7F",
"z 	c #B4B4B4",
"A 	c #9B9B9B",
"B 	c #565656",
"C 	c #C8C8C8",
"D 	c #9E9E9E",
"E 	c #EFEFEF",
"F 	c #0D0D0D",
"G 	c #E4E4E4",
"H 	c #FDFDFD",
"I 	c #9C9C9C",
"J 	c #7A7A7A",
"K 	c #C0C0C0",
"L 	c #3B3B3B",
"M 	c #424242",
"N 	c #8D8D8D",
"O 	c #B8B8B8",
"P 	c #F3F3F3",
"Q 	c #5A5A5A",
"R 	c #ECECEC",
"S 	c #757575",
"T 	c #C4C4C4",
"U 	c #353535",
"V 	c #E5E5E5",
"W 	c #9A9A9A",
"X 	c #E3E3E3",
"Y 	c #999999",
"Z 	c #4F4F4F",
"` 	c #2A2A2A",
" .	c #CDCDCD",
"..	c #ACACAC",
"+.	c #808080",
"@.	c #1C1C1C",
"#.	c #E6E6E6",
"$.	c #C2C2C2",
"%.	c #858585",
"&.	c #F5F5F5",
"*.	c #383838",
"=.	c #F7F7F7",
"-.	c #606060",
";.	c #5F5F5F",
">.	c #B6B6B6",
",.	c #A3A3A3",
"'.	c #626262",
").	c #A0A0A0",
"!.	c #DEDEDE",
"~.	c #C9C9C9",
"{.	c #6A6A6A",
"].	c #F0F0F0",
"^.	c #C1C1C1",
"/.	c #F6F6F6",
"(.	c #818181",
"_.	c #919191",
":.	c #ABABAB",
"<.	c #CFCFCF",
"[.	c #EEEEEE",
"}.	c #CECECE",
"|.	c #494949",
"1.	c #AFAFAF",
"2.	c #DDDDDD",
"3.	c #3D3D3D",
"4.	c #7E7E7E",
"5.	c #BDBDBD",
"                                                                                                                                ",
"                                                                                                                                ",
"                                                                                                                                ",
"                                                                                                                                ",
"                                                                                                                                ",
"                                                                                                                                ",
"                                                                                                                                ",
"                                                                                                                                ",
"                                                                                                                                ",
"                                                  . + @ # $ % & * = - ; > , ' ) !                                               ",
"                                            ~ { ] ^ ^ ^ ^ ^ ^ ^ ^ ^ ^ ^ ^ ^ ^ ^ ^ / ( _ :                                       ",
"                                          < - ^ ^ ^ ^ ^ ^ ^ ^ ^ ^ ^ ^ ^ ^ ^ ^ ^ ^ ^ ^ ^ ^ [                                     ",
"                                      } | ^ ^ ^ ^ ^ ^ ^ ^ ^ ^ ^ ^ ^ ^ ^ ^ ^ ^ ^ ^ ^ ^ ^ ^ [                                     ",
"                                    1 2 ^ ^ ^ ^ ^ ^ ^ ^ ^ ^ ^ ^ ^ ^ ^ ^ ^ ^ ^ ^ ^ ^ ^ ^ ^ [                                     ",
"                                    3 ^ ^ ^ ^ ^ ^ ^ 4 5 6 7 ! 8 9 0 a b c d e & ^ ^ ^ ^ ^ [                                     ",
"                                  f ^ ^ ^ ^ ^ ^ g h i                         } ) j / ^ ^ [                                     ",
"                                  k ^ ^ ^ ^ ^ & l                                   1 m n o                                     ",
"                                p ^ ^ ^ ^ ^ ^ q                                                                                 ",
"                                r ^ ^ ^ ^ ^ s                                                                                   ",
"                                t ^ ^ ^ ^ ^ '                                                                                   ",
"                                ; ^ ^ ^ ^ ^ u                                                                                   ",
"                                v ^ ^ ^ ^ ^ w                                                                                   ",
"                                x ^ ^ ^ ^ ^ l                                                                                   ",
"                                y ^ ^ ^ ^ ^ z                                                                                   ",
"                                A ^ ^ ^ ^ ^ B ~                             9 9 9                                               ",
"                                C ^ ^ ^ ^ ^ ^ D 9                           9 1 1 9                                             ",
"                                E F ^ ^ ^ ^ ^ ^ y G                         H } 0 H                                             ",
"                                  I ^ ^ ^ ^ ^ ^ ^ ^ J K o 9               9 H 1 0 ~                                             ",
"                                  . L ^ ^ ^ ^ ^ ^ ^ ^ ^ ^ M N O < P             8 0 9                                           ",
"                                    < F ^ ^ ^ ^ ^ ^ ^ ^ ^ ^ ^ ^ ^ ^ Q D q R     ~ ~ 9   9                                       ",
"                                      < = ^ ^ ^ ^ ^ ^ ^ ^ ^ ^ ^ ^ ^ ^ ^ ^ ^ S T i 1 9 9 H 9                                     ",
"                                        E t ^ ^ ^ ^ ^ ^ ^ ^ ^ ^ ^ ^ ^ ^ ^ ^ ^ ^ U O 0 9 } ~ 1 9                                 ",
"                                            V W & ^ ^ ^ ^ ^ ^ ^ ^ ^ ^ ^ ^ ^ ^ ^ ^ ^ - X } 8 H                                   ",
"                                                8 { Y Z ^ ^ ^ ^ ^ ^ ^ ^ ^ ^ ^ ^ ^ ^ ^ ` + 9                                     ",
"                                                        R  ...+.U ^ ^ ^ ^ ^ ^ ^ ^ ^ ^ ^ @.7                                     ",
"                                                                H #.$.%.F ^ ^ ^ ^ ^ ^ ^ ^ / &.                                  ",
"                                                                        a @ ` ^ ^ ^ ^ ^ ^ ^ d                                   ",
"                                                                            o $ ^ ^ ^ ^ ^ ^ *.=.                                ",
"                                                                              i -.^ ^ ^ ^ ^ ^ l                                 ",
"                                                                                u ^ ^ ^ ^ ^ ^ @                                 ",
"                                                                                  ;.^ ^ ^ ^ ^ 2                                 ",
"                                                                                  | ^ ^ ^ ^ ^ S                                 ",
"                                                                                  >.^ ^ ^ ^ ^ v                                 ",
"                                                                                  >.^ ^ ^ ^ ^ x                                 ",
"                                                                                  ,.^ ^ ^ ^ ^ y                                 ",
"                                                                                  '.^ ^ ^ ^ ^ ).                                ",
"                                                                                !.^ ^ ^ ^ ^ ^ C                                 ",
"                                , ~.}                                         ~ {.^ ^ ^ ^ ^ F ].                                ",
"                                n ^ % ^./.                                  =.(.^ ^ ^ ^ ^ ^ 5                                   ",
"                                n ^ ^ ^ 4 _.+ 0                         H  .% ^ ^ ^ ^ ^ ^ g V                                   ",
"                                n ^ ^ ^ ^ ^ ^ * J :.<.V [./.9 ~ i p }.h |.^ ^ ^ ^ ^ ^ ^ ^ z                                     ",
"                                n ^ ^ ^ ^ ^ ^ ^ ^ ^ ^ ^ ^ ^ ^ ^ ^ ^ ^ ^ ^ ^ ^ ^ ^ ^ ^ ^ W 9                                     ",
"                                n ^ ^ ^ ^ ^ ^ ^ ^ ^ ^ ^ ^ ^ ^ ^ ^ ^ ^ ^ ^ ^ ^ ^ ^ ^ ^ 1.9                                       ",
"                                &._ # F ^ ^ ^ ^ ^ ^ ^ ^ ^ ^ ^ ^ ^ ^ ^ ^ ^ ^ ^ ^ ^ s 2.                                          ",
"                                      ! ~.A / ^ ^ ^ ^ ^ ^ ^ ^ ^ ^ ^ ^ ^ ^ ^ & t < 9                                             ",
"                                              [ + >.( S ;.= g 4 3.-.4.D 5.2.~                                                   ",
"                                                                                                                                ",
"                                                                                                                                ",
"                                                                                                                                ",
"                                                                                                                                ",
"                                                                                                                                ",
"                                                                                                                                ",
"                                                                                                                                ",
"                                                                                                                                "};
