/* XPM */
static char *seamless3[] = {
/* columns rows colors chars-per-pixel */
"64 64 256 2 ",
"   c #44052C",
".  c #440933",
"X  c #4A0A37",
"o  c #560A39",
"O  c #6F0D3D",
"+  c #570E42",
"@  c #5C1046",
"#  c #4E114C",
"$  c #670D48",
"%  c #68124A",
"&  c #780E55",
"*  c #781458",
"=  c #6F0F4F",
"-  c #791566",
";  c #6C196E",
":  c #58186B",
">  c #850D5A",
",  c #8A175D",
"<  c #941450",
"1  c #A81958",
"2  c #B61B5A",
"3  c #A81B4E",
"4  c #871768",
"5  c #961C68",
"6  c #8A1B76",
"7  c #971B79",
"8  c #940E61",
"9  c #A71868",
"0  c #B91A67",
"q  c #B81B76",
"w  c #A71770",
"e  c #8A2279",
"r  c #9A2176",
"t  c #8C206C",
"y  c #B62179",
"u  c #AB2178",
"i  c #BE205F",
"p  c #C81C6D",
"a  c #D41E79",
"s  c #CC1D70",
"d  c #D62268",
"f  c #CF2075",
"g  c #E62679",
"h  c #F02774",
"j  c #D31D6C",
"k  c #312FAE",
"l  c #2F2FAB",
"z  c #592E98",
"x  c #6A2A8C",
"c  c #792689",
"v  c #772B94",
"b  c #6B3199",
"n  c #5933A5",
"m  c #583EBB",
"M  c #512DAE",
"N  c #733FAC",
"B  c #7A3CA9",
"V  c #693DB9",
"C  c #743CB4",
"Z  c #773AB7",
"A  c #6B32AD",
"S  c #7D1F84",
"D  c #5941BC",
"F  c #6442BA",
"G  c #7A43BB",
"H  c #7841AD",
"J  c #2E3AD3",
"K  c #1A3EED",
"L  c #293DE9",
"P  c #343CE5",
"I  c #3A3BE5",
"U  c #4B3DCA",
"Y  c #5B3EC4",
"T  c #553DC9",
"R  c #493AD9",
"E  c #5C35D5",
"W  c #5436DA",
"Q  c #543BDB",
"!  c #5938D8",
"~  c #7B2FCA",
"^  c #772EC8",
"/  c #693AC7",
"(  c #7432CD",
")  c #7B31CB",
"_  c #7739C5",
"`  c #6B33D2",
"'  c #6538D7",
"]  c #7738D5",
"[  c #6C2FCE",
"{  c #463CE4",
"}  c #583DE3",
"|  c #673EE3",
" . c #773EE0",
".. c #2A44DB",
"X. c #3842D8",
"o. c #3D43CD",
"O. c #0C46EE",
"+. c #1C42EC",
"@. c #1545E9",
"#. c #0B43F4",
"$. c #0146FA",
"%. c #0548F9",
"&. c #1441F2",
"*. c #1948F6",
"=. c #1552F1",
"-. c #2B42E3",
";. c #2644E7",
":. c #3945E7",
">. c #2B55E8",
",. c #2647F6",
"<. c #3749F7",
"1. c #2A55F6",
"2. c #3752F3",
"3. c #3556E8",
"4. c #1F43DE",
"5. c #4B41C5",
"6. c #4C42CC",
"7. c #4542CD",
"8. c #5341C5",
"9. c #5343CC",
"0. c #5B43CB",
"q. c #5A41C4",
"w. c #4743D8",
"e. c #5646D6",
"r. c #6743C8",
"t. c #7747C5",
"y. c #6648D5",
"u. c #7146D6",
"i. c #4344E3",
"p. c #4745EA",
"a. c #5343EB",
"s. c #5847E8",
"d. c #4853ED",
"f. c #4748F6",
"g. c #5A4BF5",
"h. c #4953F4",
"j. c #5651F1",
"k. c #6843E9",
"l. c #7545E9",
"z. c #694BF6",
"x. c #754AF3",
"c. c #6051F8",
"v. c #9B1B86",
"b. c #971C8E",
"n. c #AA1A8A",
"m. c #AA1E97",
"M. c #B91B99",
"N. c #872687",
"B. c #992886",
"V. c #88349A",
"C. c #9C3A9C",
"Z. c #97389B",
"A. c #912B95",
"S. c #A92587",
"D. c #B72386",
"F. c #B3378D",
"G. c #BA348E",
"H. c #A62495",
"J. c #B9249A",
"K. c #AC3893",
"L. c #AA369B",
"P. c #A33999",
"I. c #A73798",
"U. c #B73698",
"Y. c #AF378F",
"T. c #B81EA5",
"R. c #873AA8",
"E. c #9639A6",
"W. c #9B2ABD",
"Q. c #962CB9",
"!. c #8539B6",
"~. c #9635B8",
"^. c #8F2DB8",
"/. c #AB28AA",
"(. c #BD25A5",
"). c #B323AC",
"_. c #BC25AB",
"`. c #B72AA9",
"'. c #A637A6",
"]. c #AC26B5",
"[. c #AC2AB3",
"{. c #A729B8",
"}. c #B425B3",
"|. c #BC25B4",
" X c #B62AB6",
".X c #A635B7",
"XX c #B934AF",
"oX c #D6158A",
"OX c #C41B9B",
"+X c #C81896",
"@X c #D2148C",
"#X c #E61E88",
"$X c #E61B95",
"%X c #F81B9D",
"&X c #C82489",
"*X c #D8268B",
"=X c #C8249A",
"-X c #D82699",
";X c #C9328B",
":X c #E82587",
">X c #E62398",
",X c #F02190",
"<X c #C31DA3",
"1X c #C323A4",
"2X c #CA24A3",
"3X c #C225AA",
"4X c #C927AA",
"5X c #D825A8",
"6X c #C429B6",
"7X c #C828B5",
"8X c #D72BB6",
"9X c #D933BB",
"0X c #C637B7",
"qX c #E524A5",
"wX c #EB23A6",
"eX c #EC24AA",
"rX c #E627AC",
"tX c #F425AB",
"yX c #F627A8",
"uX c #ED2BB5",
"iX c #E42DBB",
"pX c #E72BB6",
"aX c #F32AB3",
"sX c #F72CB5",
"dX c #E631BC",
"fX c #F231B8",
"gX c #EB1EA0",
"hX c #8741A7",
"jX c #9541AA",
"kX c #8842B6",
"lX c #9641B3",
"zX c #852DC5",
"xX c #8B2DC4",
"cX c #852EC8",
"vX c #932BC2",
"bX c #982CC3",
"nX c #8634C7",
"mX c #9435C8",
"MX c #8539D6",
"NX c #963BD8",
"BX c #A837C8",
"VX c #B835C9",
"CX c #AA3DD8",
"ZX c #B63BD4",
"AX c #AE2FC2",
"SX c #863FE2",
"DX c #C835C8",
"FX c #D833C5",
"GX c #C937CB",
"HX c #E733C4",
"JX c #F333C1",
"KX c #9343D1",
"LX c #A941DD",
"PX c #8743E4",
"IX c #9543E4",
"UX c #A142E0",
/* pixels */
"  X 8 a @X@XM.+X+XM.M.b.v.M.T.<X3X3X].W.zX) ] ' ' ' } } { f.{ <.} SXAXiXtXqX<XOX=X(.=X2XJ.<X1XJ.H.7 * # + + @ o o @ @ % * * = o ",
"+   . > @X@XM.@X@X+XOXM.b.b.m.<X3X<X|.{.vXcX( ` ' | } } g.{ f.| SXCXHXtXeX<X<X<X(.=X(.T.1X1X(.1X2X(.H.v.- % @ % % @ o @ % * > & ",
"& $ . . > @X+XM.+X+X+XOXT.m.b.m.T.T.|.}.{.bXnX] ' ' } } } } | MXAXFXtXwX2X<XOX2X1X1X(.1X(.(.(.(.(.(.1X4X=Xu , * % % @ @ o % * * ",
"& & $ X . & @XM.M.+XOXT.T.T.m.m.m.T.T.).].bXmX) ] ` | | }  .NXBXDXsXtX5X2X=X<X1X1XJ.(.1X(.(.(.(._._.4X5X8X9X2XS., * * % % $ % * ",
"& - & $ # X & n.M.+X+XT.T.T.T.).m.m./.).}.].bXxXMXMX] ] MXNXBXDXuXtXqX5XOX2X1X(.(.`.(.`.1X`.`.4X4X4X8X8XpXfXJXfX;X9 t * * % % % ",
"= - 4 - % # # - b.OX+XM.T.T.).).).)./.m./.].{.bXvXvXmXmXBXVX0XpXtXqX5X=X2X1X1X1X1X(.(.J.`.3X4X4X8XiXdXfXfXfXJXJXJXdX;Xu , * * * ",
"& & * 4 - - @ # ; b.+XT.T.T.).).).].}.}.T.].].{.bXBX{.AX X7XiXaXeX5X2X2X2X1X1X1X`.=X`.4X=X4X5X8XpXuXfXfXJXHXFXFXGXGXHX;Xy t , * ",
"4 * * 4 6 ; - $ : : n.+XT.T.m.).).).].}.}.}. X X X X6X0X8XpXyXrX5X5X2X=X1X1X1X1X1X4X2X4X4X5X5XrXaXfXfXdXHXFXFXGXGXGXGXGX9Xf 9 t ",
"5 , , , 4 6 6 - & : ; n.OX<XT.T.).}.].).}.}. X6X6X6X6X5XrX>XyXwX5X2X2X1X;X4X3X4X4X2X5X5XrXpXrXuXrXiXiXFXFXFXDXDXGXLXLXLXGX9X*Xy ",
"f r 5 4 4 4 6 7 8 : : - v.M.3XT.T.}.}.}.|.|.|.6X6X7X7X8XrX>X-X-X-X=X1X1X1X4X4X2X5XrXrXpXeXaXsXaXpX8X8X0X7X9XFXFXFXGXGXLXLXLXGX:X",
"rX;Xu 7 5 5 r 7 7 6 ; ; 4 7 M.<X3X_.|.|.|.|.|.6X6X7X8X8XaXwX-X+X=X=X2X1X4X4X4X5XrXyXaXsXsXsXuXpXiX9X9X8X9X8X8X9XHXFXFXGXLXLXLXZX",
"LX0X;XB.N.e ; 6 7 7 6 S 6 6 7 n.T.<X|.|.|.|.|.6X6X8X8XpXeXyXoX+XD.D.=X-X4X5X5XrXpXsXyXsXsXuXdXpX9XFX9XiXiXiXpXiXdXdX9XFXGXLXUXUX",
"IXKX0XL.V.v x z x c N.x N.6 6 7 v.J.(.3X|.|.6X7X7X8X8XuXtXeXgX+XD.D.D.=X-XqXrXyXyXaXsXsXsXfXpXdXiXHXiXpXdXiXiXiXFXiX9X9XHX0XLXLX",
"KXIXIX0XL.Z.N.b z x x z z S ; v.7 v.H.J.<X|.7X7X7X8XpXeXtXeXrX5X&XD.n.D.&X-XeXyXyXyXyXyXaXyXaXfXpXpXuXpXuXuXuXHXHXFXFXGXGXGXLXLX",
"IXPXx.PX.XjXR.v b b v b M z x c c 6 b.m.M.3X3X7X5X7XrXeXtXeXgX5X5X&Xn.D.D.&X-X>XyXyXyXyXyXyXyXyXeXuXuXuXuXsXaXaXuXpX9XFXGXGX0XLX",
"LXLXPXx.PXKX!.B A n b v z M b v x c c N.H.M.<X7X<X5XrXeXeXgXeXrXqX5X&Xq y y &XoX>X>XyX>XyXyXyXyXtXeXrXpXiXpXpXuXuXuXdXHX9XFXFXGX",
"DXGXCXNXIXIXBX~.!.A N v b n n v v v c c N.m.=X2X5X5XwXtXwXwXeXgXwXrXqX*Xy u u D.D.=X-X-XqX>X>XyXtXyXtXrXrX8X8X9X9X8X9XiXFXFXDXDX",
"VXLXCXCXIXNXUXXX.X~.!.R.R.A n b v v c c N.N.H.=X5XqXwXwXwXwXgXeXwXwXeXtX>X&Xr r u y f s a *Xg oX#XgXwXtXrX8X8X7X7XDX XDXDXVXVXVX",
"KXNXNXNXSXPXPXKXXX.X~.~./.E.^.A A v c c e N.e S.=X>XwXqXwXqXeXgXeXtXtXeXrX>Xf 2 < < < 3 2 0 0 p p s a *X-X5X8X4X7XDXVXVXBXBXCXNX",
"PXl.l.l.l.k.l.l.NXBX~.~.'././.'.Q./.A.A.N.N.e r D.&X>XqXqXqXqXeXeXeXeXyXgX>XoXs 3 < < < < 1 2 0 q p p y &X;X4X0X0X X XBXBXBXNXSX",
"] l.k.s.a.a.a.s.s.PXmXmX~.[.[./.[..X/.H.A.N.e t r y &X>XgXrXrXrXrXrXgX$X#XoX#XoXg d 2 1 1 1 1 0 p s a q q S.S.1X0X X{.BXBXmXmXPX",
"] | s.a.f.p.d.i.p.s.] _ nX~.~.[./.[.[.`.J.H.B.e t 5 u f $XwX8X5XqX$XoX$X$X$X$X%X-XqX-Xf 0 1 9 0 p s g a f D.S.H.'. X.X.XbXmXnXnX",
"u.u.s.a.p.f.:.:.i.X.e.' ] ] !..X.X[.[. XXX1XD.S.e t 5 5 q *X,XqX+X-X-X$XgXgXqXrXrX5X8X5X>X*Xp p 0 p f g *X&XS.B.A.E.~.~.~.mXKX_ ",
"_ ] y.w.p.p.:.i.p.w.i.0.` / ) mX~.[.[.[. X_.2X=XD.r 5 , 1 0 j g -XOX5X5X5X7X7X5X8X8X5X7X7X5X$X$Xg d d g h :X;XS.A.A.R.!.KX!.nXt.",
"t./ y.e.i.i.i.:.p.i.w.Q / / ` ) ^.W.{.[.}.}.T.2X>Xa 0 1 < 3 2 p ,X>X4X6X6X6X7X7X7X8X5X5X5X6X}.}.2X:X:Xg h g *XG.S.Z.V.R.!._ _ t.",
"/ 0.0.T e.w.w.w.{ { i.Q ! [ ( ( nXvXW.{.].].|.|.2X-X:Xf 2 3 3 2 p g -X6X X X|.|.|.6X7X5X7X<X|.].vXQ.Q.U.;X&X;X&XF.I.V.R.Z Z t._ ",
"r.Y 0.e.9.6.9.9.w.R Q Q W ' [ ^ cXzXQ.W.].].].].}.).=X:Xg j i 1 2 p g >X4X{.AX]. X X}.}.|.}.}.}..XcX` ' ` !.E.P.I.A.Z.V.B R.C / ",
"/ q.q.U 9.6.0.Y r.T 9.R R W ` ^ cXzXQ.W.W.].].].{.{.{. X2X:Xg j i 2 p d ,X2X].bXbX{.bXW.bXW.W.bXbXbXzX` { :.I T V B R.V.B H Z V ",
"F F 8.8.5.8.q.m V V / / T W W E ( zXxXW.{.].].].{.W.W.vXW.].-X:Xh d d d h h *X/.xX) ) ) ~ ( ( ( ^ ) ) ( [ } L K +.J m V N B N C ",
"V V D D 8.U U Y V V A C C V T R E [ ^.Q.{.].}.].].W.vXvXzXzXxX].=X:Xg h h h h ;X/.Z E ! W E } } W W ! ' ' E E I +.%.O...5.D V H ",
"D D m D U U U m T V A C Z Z Z [ ! W ` zXW.].}.}.}.].W.vXzX~ [ ( nXE.U.*Xh h h :X&X'.Z Q P L P P P I I { R R W W Q P K $.@...D D ",
"D m D m D 5.5.5.U Y / C Z B ^.Z Z [ E E ~ W.}.|.|.}.].bXxX~ [ ' E E _ !.'.G.;X;X;XG.E.Z U L #.&.K K K L P I R R W W R K #.%.4.o.",
"..D D D D 8.8.7.6.6.T / V C Z !.!.!.!._ ' ` xX].|.|.|.].bXzX[ E W { { R E C R.E.I.Y.I.Z.H 6...O.%.O.O.@.K K L I R R W R J K K K ",
"O.>.o.D 8.8.8.7.6.6.6.T Y r._ Z !.!.E.~.!.[ ' ( bX}.|.|.].bXxX[ E { I L L L R Y H R.V.Z.hXH D o.@.%.$.#.K K K L I J R W W I K K ",
"%.O.>.7.9.9.8.9.6.9.6.w.0.T Y / / Z !.'.'.E.!.' ' cX{.}.}.].bXzX[ W { L K &.#.@...7.D H B V.B F D ..O.$.$.K &.@.L P I W W W P K ",
"=.%.=.3.o.9.9.0.0.0.0.0.0.9.Q e.Q / G ~./.'.'.~.[ W E cXbX].{.bXzX[ W I L &.#.$.$.O.;.o.D H B B H D o.@.%.$.#.@.K L P { { { } { ",
"p.,.%.=.3.7.e.9.0.r.F t.r.r.e.w.i.w.Q _ ~.E.'.L.Q.Z W I ! cXW.{.bXxX~ E { L K %.$.$.$.O...o.D A H N F D 4.O.%.O.*.K L P { } } } ",
"s.f.=.O.>.w.w.e.0.r.G G G G 0.e.i.:.X.e.r.!.~.'.L.'.R./ :.I W ~ bXbXxX~ ` R I K #.$.$.$.%.O...J D N N H D J O.%.$.*.,.,.L { { } ",
"a.s.f.=.=.d.d.e.e.r.G G kXhXG y.i.:.;.i.i.' _ !.E.'.L.E.V J &.L W ~ xXvXcX( ' { P K #.$.$.$.K K o.D n H b D o.=.$.%.*.*.,.<.f.} ",
"g.k.g.<.=.>.e.e.e.y.t.kXhXjXjXkXy.i.-.:.:.i.! / !.E.Z.E.E.N 8...K L W ~ xXcX~ [ W { L &.#.$.K K O.4.D D H H F D ;.%.%.*.,.<.<.f.",
"g.| k.g.<.=.d.e.e.y.u.G kXjXjXjXG 0.7.3.:.:.i.Q Y / Z !.R.V.B F P O.%.L W ~ cXzX~ ` W { L K K K $.O.;.R F B R.H 0.:.=.*.1.<.<.f.",
"g.z.x.z.g.1.1.h.j.y.y.G kXjXjXjXkXG F 0.s.i.i.:.{ R 0.V H H R.B N m X.#.%.;.W ~ xXzX~ [ W R L L K &.#.;.w.r.R.R.kXr.:.*.,.<.f.h.",
"g.z.z.x.z.d.>.3.h.j.y.t.kXlXjXjXkXkXG KXKXr.} I -.;.-.X.7.m F N H B N D X.@.#.P E cXzXzX^ [ E R P P L ,.;.w._ kXhXkXr.:.1.<.<.h.",
"f.c.x.x.x.c.3.3.2.2.d.y.t.kXjXjXjXkXjX'.'.~./ R -.+.&.@.;...5.D F B B B Z m o.@.K { [ xX^.zX^ [ W R I I L :.w./ kXE.kXy.<.1.<.h.",
"h.c.c.x.x.x.j.>.3.2.2.e.t.kXjXjXjX'.'.U.U.'.E./ U -.*.#.O.@.;.o.D m N R.R.Z.R.V U L L R ^ xXvXzX^ ` W { { I <.p.r.!.kXkXe.2.2.h.",
"h.c.c.x.x.x.c.3.>.3.>.<.e.t.jXL.;XU.XX1XU.L.'.R.V 6.X.+.#.#.O.+...7.Y V R.R.Z.Z.R.C U L P E zXvXvXzX( ' } } { <.p.u.kXkXt.s.1.2.",
"2.h.c.c.x.l.x.d...3.>.2.2.y.jX;X;XU.U.XXU.U.K.I.E.C Y 7...&.O.O.+...J 9.V C R.Z.Z.C.E.C R L I [ vXvXcXcX` } } f.<.i.y.kXkXy.h.1.",
"1.h.h.c.z.x.x.g.3.>.-.3.s.u.jXK.B.K.K.L.L.L.L.K.I.C.R.V U o.-.+.+.+.-.X.o.T V !.R.C.I.C.V.C R J W cXbXmXMX] | a.f.<.d.y.t.KXy.h.",
"1.3.h.h.c.c.x.c.j.3.3.p.l.mX~.b x ; b.L.'.L.L.K.K.K.I.E.B F Y 7.X.-.;.-.P w.R q.V !.E.C.I.P.R./ P I [ bXbXMX] | } f.<.<.y.t.t.j.",
"h.>.3.h.j.c.x.x.z.y.s.l.NXAXQ.n z x N.P.L.L.L.L.L.F.Y.Y.P.Z.R.V Y U I ..-.-...R U Y V R.Z.P.K.P.Z W P W cXmXMX| } { f.1.2.k.t.y.",
"d.1.>.3.h.c.x.PXPXKXKXCXVXVXQ.A k z z S P.L.L.L.K.K.K.Y.F.Y.I.Z.R.C / q.R X.:...:.R U / V R.E.P.C.R.T -.I ] cX] | } f.<.=.2.e.y.",
"y.d.3.3.h.c.PXUXLXLXGXDXDX XQ.A z l l z V.A.L.L.L.I.K.Y.F.F.F.F.K.P.R.R.C q.6.w.X.:.:.X.R T F H R.Z.R./ P L | MX .| f.<.2.=.3.d.",
"y.t.j.d.c.x.IXLXGXFXHX7X|.{.Q.Z M M l l z V.C.I.L.L.I.Y.Y.F.F.F.F.F.F.I.jXhXH r.9.X.X.-.;...w.8.C R.Z.C.R.R ;.} MXSX| } f.f.1.h.",
"u.KXKXPXx.IXLXGXHXdX8X|.].W.W.^.A M k l k M R.Z.L.I.I.I.I.K.F.F.F.F.F.F.Y.P.C.hXC r.7.:.;.;...w./ R.L.G.;XG.!.Q ` cXNXMXl.k.g.f.",
"PXLX0X9XLXZX9XJXfX8X4X_./.W.W.^.zXA M k J l M A E.P.P.I.I.K.K.K.K.K.Y.Y.Y.K.P.C.jXH F 0.e.y.r.t.~.`.*X:Xh h g +XvXbX XAXBXNXNXSX",
"ZX0X:X:XfXfXJX9X8X4X3X).).{.W.^.zXZ [ k l J J M N E.E.C.P.I.K.K.K.K.K.I.K.P.C.Z.hXhXhXC.;X;X-X:X:X$X,Xg p 2 3 2 a 5X7XrXrX8X8XDX",
"tXsXtX&XD.&X5X7X3X3X3X_._.[.Q.Q.^.~ ^ / M J J J U / Z R.E.P.I.P.I.P.P.C.C.C.hXhXhXjX;Xh d i 3 1 0 q p p 0 8 < O $ < oX%X%X%X%X%X",
"qX>X5X+X7 7 m.T._.(.3X3X_.}.{.Q.^.zX~ ( [ m U J 4.J 0.V H hXE.P.P.C.C.Z.hXhXhXhXK.g d 3 O O O o $ & > 8 w 1 > & o o O 0 $XoX$XgX",
"@X+X+X=Xn.6 6 n.(.(.(.3X3X_.[.Q.xXnX~ ) [ E E T J P ;.P w.r.V Z hXhXjXhXhXH hX;Xh p < % + o . .   o $ > 8 8 8 > = o   O w oX@X@X",
"@X@X+X+X+Xn.6 7 m.(.(.3X3X3X`.{.^.^.nX^ [ ` E E ! Q I ;.,.;.:.i.e.0.r.F F hX;Xg 3 = O o X . .         o = > 8 8 > O o   o 8 @X@X",
"@X@X@X+XOX+Xn.6 v.m.(.(.1X3X3X X{.xXnX) ( ` ' ! Q } } { <.,.*.*.*.=.,.;.e.lX,Xp , = o . . . . . . . . . o @ = > 8 > $ o   o 8 oX",
"@X@X@X+X+XOX+Xn.7 v.m.<X3X1X1X_.[.Q.zX) ) ] ` ' ! } { { { I L ,.*.=.%.,.s.0XyX;Xw 4 & $ + X . . . . . . X o + $ & > > $ o   o 8 ",
"8 @XoX@X+XM.+XOXn.v.v.m.3X3X3X3X|.{.vXnX( ( ` ' ' } } { { <.P <.,.<.f. .VXpXtX5X=XM.n.7 6 - % # # X X X X o o + $ = > > = o     ",
"  8 @XoX@X+XOX+XOXn.v.v.m.<X<X2X3X[.W.xX) ( ` ` | } } a.{ f.<.<.<.f. .VXpXtXqX=XOX2XOX<XOXn.v.- = + . # X + o o o + = & > = O   "
};
