/* XPM */
static char *seamless2[] = {
/* columns rows colors chars-per-pixel */
"64 64 256 2 ",
"   c #030001",
".  c #0C0103",
"X  c #130204",
"o  c #1B0306",
"O  c #1D0208",
"+  c #150208",
"@  c #230405",
"#  c #2B0504",
"$  c #24030A",
"%  c #2C040B",
"&  c #340605",
"*  c #3A0705",
"=  c #3D0904",
"-  c #34050B",
";  c #3B050D",
":  c #360805",
">  c #3D0510",
",  c #450905",
"<  c #4C0A05",
"1  c #43060D",
"2  c #4A060C",
"3  c #4B090A",
"4  c #430809",
"5  c #530B05",
"6  c #5C0D05",
"7  c #530A0C",
"8  c #5C0B0B",
"9  c #53070D",
"0  c #5A1205",
"q  c #430411",
"w  c #4C0512",
"e  c #480911",
"r  c #530513",
"t  c #5A0614",
"y  c #550912",
"u  c #5C0A11",
"i  c #5D0518",
"p  c #461003",
"a  c #630D04",
"s  c #6B0F04",
"d  c #640C0C",
"f  c #6B0D0C",
"g  c #720F05",
"h  c #730E0D",
"j  c #7B0F0B",
"k  c #6B110B",
"l  c #661207",
"z  c #741004",
"x  c #7C1104",
"c  c #74110C",
"v  c #7C120C",
"b  c #7B1B07",
"n  c #630615",
"m  c #640A12",
"M  c #6C0A13",
"N  c #64051A",
"B  c #6C051B",
"V  c #6C0B1A",
"C  c #660816",
"Z  c #740C13",
"A  c #7B0C13",
"S  c #73061C",
"D  c #7B071E",
"F  c #7C0A1B",
"G  c #730A1B",
"H  c #7B1214",
"J  c #7A2104",
"K  c #7C0621",
"L  c #791021",
"P  c #841304",
"I  c #8C1404",
"U  c #84120B",
"Y  c #8B130C",
"T  c #891B07",
"R  c #941504",
"E  c #9D1605",
"W  c #94140D",
"Q  c #9C150C",
"!  c #9C180B",
"~  c #961A08",
"^  c #830D13",
"/  c #8B0E16",
"(  c #83091B",
")  c #8C0B1B",
"_  c #84071E",
"`  c #940E14",
"'  c #930C1B",
"]  c #9B0D1B",
"[  c #8A1213",
"{  c #831213",
"}  c #941513",
"|  c #9C1313",
" . c #9D121A",
".. c #951319",
"X. c #820F0D",
"o. c #A31705",
"O. c #A51903",
"+. c #AC1904",
"@. c #A4160C",
"#. c #AB160B",
"$. c #A41A0D",
"%. c #AC190C",
"&. c #AA1704",
"*. c #B31A04",
"=. c #BB1B06",
"-. c #B31A0C",
";. c #BB1B0C",
":. c #B7160D",
">. c #A60E1C",
",. c #A31413",
"<. c #AB1413",
"1. c #AB1B15",
"2. c #A3121B",
"3. c #AC131B",
"4. c #A51915",
"5. c #B31513",
"6. c #B41B13",
"7. c #BC1C13",
"8. c #B4131B",
"9. c #BC131B",
"0. c #B91817",
"q. c #B70F1E",
"w. c #8C2204",
"e. c #A72407",
"r. c #B82707",
"t. c #AB2016",
"y. c #B82012",
"u. c #BC3003",
"i. c #840622",
"p. c #8B0623",
"a. c #8C0922",
"s. c #870924",
"d. c #920625",
"f. c #940A22",
"g. c #9B0A24",
"h. c #990828",
"j. c #9C0E2F",
"k. c #A30C22",
"l. c #AC0C25",
"z. c #A50A29",
"x. c #AB092B",
"c. c #A7072B",
"v. c #B30C24",
"b. c #BC0D25",
"n. c #B4092C",
"m. c #BB092C",
"M. c #B4072E",
"N. c #AB1022",
"B. c #A91126",
"V. c #B41223",
"C. c #BA1224",
"Z. c #BC0A32",
"A. c #B70834",
"S. c #B30B35",
"D. c #C41D04",
"F. c #CB1E04",
"G. c #C41C0D",
"H. c #CB1D0D",
"J. c #D31F04",
"K. c #D41D0C",
"L. c #DB1E09",
"P. c #C21C12",
"I. c #CB1B14",
"U. c #C5141D",
"Y. c #CB151C",
"T. c #C51B1B",
"R. c #C81815",
"E. c #D31D13",
"W. c #DB1A1B",
"Q. c #D6191A",
"!. c #C10F1F",
"~. c #E31E0A",
"^. c #E31C15",
"/. c #E31B1C",
"(. c #EC1C1C",
"). c #E91B18",
"_. c #F31E15",
"`. c #F91C1B",
"'. c #F21E0F",
"]. c #CC2C05",
"[. c #C5220E",
"{. c #CC220D",
"}. c #C62A06",
"|. c #DC2103",
" X c #D4230C",
".X c #DC230B",
"XX c #D3290A",
"oX c #DB2B09",
"OX c #D72905",
"+X c #C32111",
"@X c #CC2211",
"#X c #CE201D",
"$X c #D32212",
"%X c #DD2313",
"&X c #D12219",
"*X c #C33105",
"=X c #E52206",
"-X c #EB2305",
";X c #E92906",
":X c #E3230A",
">X c #EB230C",
",X c #E3280B",
"<X c #EB280A",
"1X c #E42906",
"2X c #F42403",
"3X c #FB2502",
"4X c #F4240B",
"5X c #F9260C",
"6X c #E32113",
"7X c #EC2314",
"8X c #E5201A",
"9X c #F42313",
"0X c #FB2315",
"qX c #F92714",
"wX c #C40B2D",
"eX c #CC0C2D",
"rX c #C70E26",
"tX c #D70D2C",
"yX c #CC1223",
"uX c #C51427",
"iX c #DC1229",
"pX c #D71624",
"aX c #C40A33",
"sX c #CB0A34",
"dX c #C90836",
"fX c #D30B33",
"gX c #DB0C34",
"hX c #D30B3B",
"jX c #DC0A3B",
"kX c #D8063A",
"lX c #C91234",
"zX c #D81136",
"xX c #E20D2D",
"cX c #E31A22",
"vX c #EA1A24",
"bX c #E71427",
"nX c #F81628",
"mX c #E30C35",
"MX c #E40A3C",
"NX c #EB0B3B",
"BX c #EA0C35",
"VX c #F40C3C",
"CX c #F80E38",
"ZX c #E71235",
"AX c #F51134",
"SX c #B40B4D",
"DX c #C60B4A",
"FX c #D90B49",
"GX c #C80A52",
"HX c #D70D4A",
"JX c #E30B44",
"KX c #ED0A42",
"LX c #E40A49",
"PX c #E90B49",
"IX c #F30A42",
"UX c #F70944",
/* pixels */
"s 5 , , ; 1 1 i M.dXA.A.M.m.rXU.L.;.6 & @ @ @ o # 1 t h 8 X X X $ % > e V G M B S _ c.MXKXGXLXMXdXr o 1 r d f h x R D.~.-X=X=X%.",
"U a 5 5 9 2 r B M.kXkXMXdXsXrXU.E.@.g , # @ @ @ # y C / M X o o % $ > i S F ( F D p.h.aXKXGXSXLXMXr o - w n C Z g P W F.-X=X:X|.",
"=.g 6 6 8 n B D c.dXNXKXBXxXiXQ.E.} c 5 : # # @ * C _ ] ^ O + o $ > N K p.d.' ] ^ ) g.M.kXVXGXDXFX1 o % w i B Z j U P E F.=X=X:X",
"J.o.s a a d S _ h.c.kXMXmXZXbX(.7.U c 0 6 5 , 3 B _ h.b.2.O o o e j.Z.Z.M.x.l.v.:.] >.b.sXNXVXFXaX% . o 1 i S D ( X.Y Y @.{.|. X",
";.F.I s s g A _ g.m.gXfXzXZXvX8X! H k 0 h f Z ] l.x.l.tXb.$ $ % S sXjXIXNXsXeXrX).:.<.q.rXtXBXCXx.- # - B d._ p.a.) / [ { | y.y.",
"G.=XD.P z z v / ] V.eXtXtXpX8X+XU H l l c h >.b.eXgXwXZXyX: ; r a.zXKXHXKXNXmXiX(.^.:.R.Y.Q.bXnX>.1 r t k.mXfXc.g.f.' [ [ W @.y.",
"G.|.|.+.P P X./ '  .V.uXyXW.8X! v v l s h v k.wXsXjXgXgXV.- q B h.fXVXJXMXNXBXbXW.L.H.D.K.K.^.).A u n C d.NXVXNXaXB.g...| Q o.[.",
"1.=.G.=.! Y [ [ ..2.0.T.#X%X+X[ b v k d d C a.Z.A.hXgXsX..1 N _ x.fXMXFXhXlXtXQ.I.H.F.F.K.!.Q.R.Z Z Z F ) wXNXVXNXwXl.k.| | ! %.",
"%.;.;.;.G.6.,...4.1.P.I.&X%X$.U b k 7 9 y C p.M.m.sXeXuXY 9 A g.aXBXmXzXlXuXuX+X+Xy.r.XXL.R.E.| A { ^ ( D p.sXDXSXiXwXV.3.,.@.%.",
"1.;.-.;.I.W.I.8.0.9.&X8X7X%X$.b 6 4 3 u t B a.z.m.uXyX0.v f ' 3.yXxXZXbXcXY.+Xr.}.r.t.u.=XR.A y u d A M S _ c.dXSXhXiXeX8.,.$.$.",
"4.;.#.1.R.W.W.T.T.#X&X%X6X&XW 0 = , 5 t N S a.g.v.9.0.$.U ` 8.yXpXvX`.0X4X:X[.}.r.e.u.oX:XW d m 8 7 - % - n h.aXZ.aXiXiXyX5.4.4.",
"7.P.1.1.T.^.W.uXC.C.uX+XT.4.c 5 , 5 8 d Z ) ] ] ..W ~ +.5.U.Y.W./.(.0X>X;X.XOX}.u.r.}. X;.h 2 3 7 ; $ % X X q i.b.lXZ.uXyXR.P.;.",
"I.7.<.1.P.Q.pXC.B.B.V.V.4.} v 0 < l a d Z ^ [ } | ! 6.W.T.yXpXpX)._.7X<X1XoX].e.E O.O.O.I < # % - - % % O + % w B ' B.N.6.P.y.D.",
";.6.<.<.8.8.>.f.z. ...{ H U v 0 a z f h A ^ } ,.$.$.&X/.pX#XpX8X(.:X1XoXoXoXe.~ E E o.+.R < # - q > % % O O w N S D ' ,.4.y.y.e.",
"-.=.-.5.` F S C C t y u V c k 7 6 8 ; 2 7 m c v U 4.pXpXpXcXcX/.%XXXoXXXXX%.c z z Y E o.P < # ; e e % % $ ; K d.d.h.g.>.<.#.+.$.",
"+.@.U 8 ; - % % > e y m c c c l 6 3 ; ; r u m M { 9.vXiXvXcX/.6X.XoX}.e.~ 7 % : < 6 z I P 5 # ; e y - $ % w h.M.A.M.n.l.8.6.7.-.",
"T f & . . X $ $ q w n Z H H { b 7 7 e 7 M V H / <.pXnXbXcX`.^. X Xr.T T j > % % ; 4 9 s z a 2 9 n G r % ; i M.kXS.A.sXwX9.0.G.%.",
"l & X . X o $ - y C F ' ....! [ k m u m Z A / 2.Y.vXvXvX/.^. X Xe.b T o.8 % % - ; 1 3 a P ,.' ( ( a.F ; > N dXKXDXFXhXeXpXI.L.%.",
"= .   . . X ; V ) f...B.2.8.,.W v Z h Z ^ / | U.cXnXvX^.6X6XXXe.J T %.R 4 $ % - ; 4 < d ` Y.b.n.n.k.k.t r K dXNXLXLXMXgXpXE.6XE ",
"o   .   X @ B x.j.j.j.V.C.V.! } { / / / '  .3.Y.vX(.6X%X:XXXe.J ~ *.+.P - $ % - ; 4 9 h >.iXiXaXlXeXwXZ n i.aXJXLXLXNXBXvX8X:X~ ",
". . . . o 1 d.x.j.j.S.lXuXC.! ! } 2.N.N.N.k.1.Q.6X X:X>X.Xr.w.O.=.*.*.z # @ % ; e 7 M / 9.iXsXS.Z.eXiX` D h.wXBXVXCXCXnXnX0XqXU ",
"X X o % ; B c.S.SXhXzXlXuX0.e.t. .V.N.2.2.3.0.&XXX.X,XoXr.e.r.D.=.D.*.s @ o # 1 9 M ) >.b.v.x.m.m.wXyX2.^ >.eXxXZXAXAXnX9X>X,Xl ",
"& & * 1 n d.wXdXhXzXzXuX#Xy.-.y.t.C.N.8.8.y.+X%X].OX].r.r.D.D.F.D.D.*.s & & 3 n Z / >.b.b.g.c.b.eXyXQ.,.X.>.rXtXvXnXvX8X%X%XXX5 ",
"3 3 9 n _ x.fXmXZXpXpX#X@Xy.[.@XI.T.0.7.@X$X7X,X}.}.}.D.F.D.F.J.|.|.D.P 8 8 f j ` >.9.Y.k.] l.rXpXW.^.;.E :.9.R.pX9X0X7X8XqX@X8 ",
"8 d f X.>.rXiXBXbXpX$XXX X]. X4X%XI.+X@X.X7X,XoX]..X|.D.F.F.F.J.|.|.L.=.Y X.Y Q <.:.R.E.8.U.Y.Q.I.I.;.#.:.F.G.T.E.).9X7X7XqX+Xc ",
"c c X.@.U.Q.).).^. XXX.X].XX4X'..XK.$X.X,X7X,X%X>XF.+.O.O.=.{.L.L.=X4XL.:.&.#.:.G.H.~.~.G.,.v 3 & & , 6 P J.L.L.4X5X5XqXqX7X@XW ",
"W Y } :.K.~.7X7XXX].XXoX,X:XL.:X{.H.[.{. X X@X=.R a 5 6 z O.J.=X-X3X3X'.-X~.L.~.-XK.! 5 % $ + + $ - 9 f X.@.@.} ,.1.1.6.0.6.+XG.",
"6.,.@.G.K.'.4X>X}.r.].<X-X:X=X=X.X X.X:X.X;.U < o o # = s O.|.;X3X3X3X3X3X3X3X~.P & .   O % % $ % w n X.W @.w > e e 8 V { } G. X",
"7.7.P.>X4X4X>X].u.].-X-X-X=X=X=X-X-X2XJ.R = o . X X # 3 P D.-X<X=X.X:X:X~.=X=.&   . . . O % $ $ - i F ' 5.X.% w e 7 m G F { 6.$X",
"[.7.+X4X4X;X;XoX1X3X2X=X-X=X=X-X-XJ.R = .     . X o = z -.-X;X7X$X+XP.P.G.6.7   .       + + + % y K h.l.Y.3 $ q e r n Z H H } G.",
":X.X.X=X1X.X.X|.-X2X-X:X=X-X-X|.O.5 X         . . # a #.~.2X].<X$XG.@X[.+X[ -           X + q i.c.M.wXeXU.o o O % 1 u M j W O.F.",
"=X2X=X=X.X{.{.OX-X2X-X|.>X|.+.g # .           . o 6 Q K.2X=X].<X{.+X[.@X-.d %           X q x.MXKXKXNXCX(   o + % w C A / o.=.F.",
"=X2X=X=X.X{. X.X-X-X=X.X-.x < o . .         . o 9 ` I._.4XOX*XoX@XG.+X[.Q e %         . % i.kXKXFXLXUXVX% . + + > N D p.>.:.D.J.",
";X5X=X=X.X XK.L.-X-X{.U 6 & o + . .     o % % w ( >.Y.^.1X].}. X+X+X[.P.[ 2 %     X o ; N c.UXGXSXGXFXS.  . X q i.h.c.M.rXY.K.~.",
"2X;X2X2X-X=X-X-X-X=.a 4 @ . . X         % r r _ g.9.Q./..Xu.]. X[.P.{.G.T e > o @ & 2 B d.dXVXFXHXDXFXw   . - M.KXKXKXkXxXbX~.'.",
"2X].;X3X2X-X-X-X+.5 = @ . . . X   . . o w D D p.l.yX/.8XXXu.-XXX+X{.P.;.[ d 5 = , d Z ) M.gXVXKXFXFXi     $ N jXUXFXLXUXCXnX'.3X",
";XOX-X3X-X=XJ.+.5 = - + + X X .   X $ q i.c.d.g.wXiX).7X].].3X|.D.D.F.:Xy.x a a g Y ` q.rXxXAXAXZXm   .   O B sXLXGXHXKXBXnX_.'.",
"5XoX;X3X-X=X=.5 * - $ O + X . .   $ r d.m.sXm.b.yXvX).qX].r.I l 6 s I D.|.*.I I R o.:.H.Q.(.`.nXk     $ > B p.h.jXIXmXCXAX).).~.",
"5XOX2X2X2X=Xx @ # o . X + + + $ % N M.kXMXgXeXrXpX(.9XqX~ & X   X = 6 I D.J.r.&.#.=.=.G.K.W.0XQ . + . % N S.dXZ.M.gXxXCXnX`._.'.",
"<XoX2X3X2XF., O # o + o O + - N K M.MXJXMXmXtXpX/.9XqX$..       . : 6 v @.H.L.H.G.F.:.:.R.K.1.1 e e % w i.aXhXKXjXM.b.CXnX`.0X0X",
"-.OX3X2X2X&.& @ # o X + + o r K d.FXKXFXMXmXyXU.E.qX%.-         X = a U @.G.:X:X=X2X$X{.L.E.f 7 t y w B i.A.KXPXIXfXB.C.3.1.6.1.",
"U *.-X3X2XO.* @ # @ . X o - S d.aXKXLXJXNXzXC.P.{.R X .         @ < j ! #.G.=X=X:X5X%X:X5X%.m d d f C S p.x.jXPXUXmXs.y y m M v ",
"[ E F.3X2X&., * * * @ % > N d.A.kXKXKXKXsXuXT.$.f * .         . ; m ^ Q 1.;.%X:X.X=X+X{. X-.{ h h Z A ( a.h.x.mXzXL V N V G H { ",
"/ o.=.~.3XD.a < 5 9 1 2 n p.c.sXMXVXMXZ.B.2.3 @ < =           $ N F .. . .4.7.6X.X=X+X+XH.H.%.Y U v U / f.g.z.d.y e L V G F ( / ",
"` @.*.F.3X~.I a a f d M ( k.n.wXmXZXwXk.M +   : d *           q D ' k.2. .1.7.6X,X=X[.[.H.{.H.-.} Y R W 2.3.C ; - e V K L s.a.' ",
">.,.#.;.~.2X:.P z X.X.^ ] v.v.wXyX2.V - . + % r A -         % S h.x.b.8.1.7.I.>X=X:X+X+XH.P.H.{.-.Q o.o.#.f ; ; > w h.aXz.h.h.h.",
">.>.<.#.P.~.K.#.W Q Q ` <.9.Y.9.u $     + % w G ' - . . . w h.dXZ.eXeXY.I.K.7X<X2X-X=X=X-X=X-X=X=XL.D.*.s 4 y y r N z.hXZ.S.x.z.",
"x.>.<.5.:.K.^.I.5.#.#.-.-.;.W % X .   X - q S h.x.> . + i dXKXKXMXgXiXcX^.7X5X;X2X3X3X3X3X3X2X:X=X=X~.! l m m i N B d.sXaXMXsXn.",
"m.v.q.:.;.I.>XL.$X;.;.;.@.f o + $ X . % r K c.Z.dX; X - c.NXLXGXVXCXAXvX_.4X5X1X2X2X2X3X2X3X2X|.:XL.=XD.P f h M B S i.x.sXKXKXfX",
"fXrX9.9.P.I.6X.X X XXX;.d ; > q > % $ r M.FXJXMXmXt % i dXPXGXGXUXCXnX`.0X5X5X1X2X3X3X2X3X3X-X:X~.=X|.:X-.v h h A F _ d.x.FXPXKX",
"eXl.>. . .7.:X=X X{.%X! 3 w q q q > ; h.IXUXFXIXCX( r p.sXKXHXHXJXZXcX8X>X1X].1X3X3X3X3X3X3X2X.X:X:X=X=X:X*.P P x X.) h.z.Z.hXmX",
"tXb.k. . .P.:X>X X{.{.%.f y 9 r y r C M.KXGXGXKXCXk.S c.fXVXKXHXlXlX&X$XXX}.u.;X3X2X3X3X3X3X2X:X~..X@X X{.{.@.I U Y ` ] k.z.z.eX",
"tXiXyX8.2.I.4X4X|.[.[.[.X.8 7 u u C _ n.KXFXJXNXAXb.' b.fXCXCXzXpX#X@XXX].*X}.{. X=X2X3X3X3X2X:X=XH.t.t.1.1.y.@.Y Y R Q 2.g.g.v.",
"iXnX`./.T.%X;X;XoXOXOX|.o.c f f Z ( g.n.BXVXZXAXnXQ.<.!.tXnXnXpX&X@XXX*X*Xw.6 < 6 z O.J.3X3X2X|.-XH.t.t.6.t.+X{.#.E E E <.3.N.b.",
"Y.(.`.0X7X.X}.].=X=X-X2X[.W U j Y ` >.b.xXnXAXpXQ.E.;.I.~.`.'.>X%XXX*X*X0 . . X @ & 5 z *.~.3X~.-X X6.y.7.y.y.H.R.D.*.o.&.#.2.8.",
"P.W.`.0X0X}.T P R *.F.=X{.+.o.W W ,.3.V.Y.C.q.8.T.E.;.H.~.'.4X4XoXXXu.p   . . . X @ = < a R J.2X:XH.t.1.1.t.1.+XH.-X-XD.=.&.,.6.",
"6.I.I.1.{ , # * < 6 z o.*.F.D.=.=.D.7.} H / 2.0.T.&X+X.X4X2X;XOX].*X5   . . . . . @ & , 6 a I =..X{.t.1.4.t.1.P.I.=X3X3X|.=.1.-.",
"e - - % - # @ & * , 5 6 x &.J.~.|.F.R M H } 4.0.@X%X X<X;X1XoXOX,X~ X . . . . . . o % = 5 a g P -.+Xt.t.t.t.1.P.H.=X3X3X2XO.d 7 ",
"      . X X o % & , < 5 6 s R J.-X=.P H H } 1.P.%X%X@X=X;X2X-X:X Xg .             . % ; 9 a g x I @...t.t.t.4.P.G.-X3X3X-XR & . ",
"      . . X X $ - ; 3 9 a s x E |.|.~ T ~ t.6.y.1.4.P.-X<XD.Y 0 < , X   . .       . $ q t n h j U A h } 6.y.G. X-X2X3X3X2X+.< o ",
"X     . . + . O % w t i C h U R +.F.O.E Y v d 8 m H } G.o.4 o X X @ o . X X . X . X - w i S Z X.{ Z 8 M X.,.7. X2X3X3X3X3XF.a & ",
"# o . . . . X + - t N B Z ( Y W o.|.O.5 ; - - ; e r m g 4   . X . X @ @ o O O X + - B i.K D i.( / Z u m M H } G.2X3X3X3X3X-XP , ",
"< : @ o X . + O > N K B i.) ] #.*.|.s # - - ; ; q t n a & . . .     X & * & - ; > N Z.MXkXc.h.d.] m ; u d f c W J.3X=X-X-X=X+.a ",
"6 , & & % O O - B p.d.d.d.k.q.5.G.|.0 o @ o O o % 1 9 f 4 + o o X . o ; y 7 r t i S Z.UXUXKXdXM.v.t $ 2 7 d h c R J.=X=X=X-X{.P "
};
