/* XPM */
static char *seamless1[] = {
/* columns rows colors chars-per-pixel */
"64 64 256 2 ",
"   c #0C0402",
".  c #040101",
"X  c #130604",
"o  c #1C0906",
"O  c #170A09",
"+  c #141C1B",
"@  c #1B1C1C",
"#  c #1C1814",
"$  c #1B1209",
"%  c #230B07",
"&  c #240C09",
"*  c #2B0E0A",
"=  c #330E0D",
"-  c #3A0D0D",
";  c #25140A",
":  c #33110B",
">  c #3C140C",
",  c #351B0C",
"<  c #330B11",
"1  c #390A13",
"2  c #2C1D1D",
"3  c #251C19",
"4  c #361918",
"5  c #240E12",
"6  c #1E290C",
"7  c #3A260B",
"8  c #283609",
"9  c #37380D",
"0  c #29211B",
"q  c #39241C",
"w  c #312C0D",
"e  c #291C20",
"r  c #381922",
"t  c #3D0E23",
"y  c #3B2023",
"u  c #43150E",
"i  c #48190E",
"p  c #460C16",
"a  c #570E17",
"s  c #431312",
"d  c #4C1514",
"f  c #4C1911",
"g  c #451A1A",
"h  c #541B12",
"j  c #5C1D14",
"k  c #54131A",
"l  c #5C1A1B",
"z  c #571618",
"x  c #4A130E",
"c  c #631D15",
"v  c #641B1A",
"b  c #6B1C1B",
"n  c #681819",
"m  c #76191C",
"M  c #6E0C19",
"N  c #48280D",
"B  c #46370B",
"V  c #56370E",
"C  c #48271A",
"Z  c #542A13",
"A  c #5A2616",
"S  c #463813",
"D  c #583915",
"F  c #512A0F",
"G  c #642115",
"H  c #6C2316",
"J  c #6B2219",
"K  c #672A19",
"L  c #722517",
"P  c #742B16",
"I  c #742419",
"U  c #7B251C",
"Y  c #752B1A",
"T  c #7C2A1A",
"R  c #7A2C16",
"E  c #683616",
"W  c #7B331B",
"Q  c #773618",
"!  c #662D0D",
"~  c #451A24",
"^  c #481824",
"/  c #5A1727",
"(  c #530A27",
")  c #660C29",
"_  c #770E2B",
"`  c #6C1B23",
"'  c #671628",
"]  c #721525",
"[  c #741B23",
"{  c #7B1B24",
"}  c #74132B",
"|  c #741C2C",
" . c #7B1C29",
".. c #7A142B",
"X. c #7A0E34",
"o. c #7B1832",
"O. c #640E30",
"+. c #492322",
"@. c #532322",
"#. c #542A20",
"$. c #592425",
"%. c #6A2626",
"&. c #7C2423",
"*. c #7B2C23",
"=. c #73232B",
"-. c #782727",
";. c #7D3223",
":. c #763323",
">. c #7D2531",
",. c #6C3023",
"<. c #36430E",
"1. c #494713",
"2. c #594314",
"3. c #4B430D",
"4. c #684517",
"5. c #774618",
"6. c #7A5017",
"7. c #85181E",
"8. c #860A1E",
"9. c #84241E",
"0. c #842C1C",
"q. c #8C2D1D",
"w. c #88241D",
"e. c #922E1E",
"r. c #92261F",
"t. c #84321C",
"y. c #8C321D",
"u. c #8B3C1C",
"i. c #843A18",
"p. c #94331D",
"a. c #99331E",
"s. c #983B1C",
"d. c #A63B1E",
"f. c #83152D",
"g. c #841C2A",
"h. c #891B28",
"j. c #951928",
"k. c #860C34",
"l. c #881734",
"z. c #961935",
"x. c #930D2F",
"c. c #A51827",
"v. c #B61A2A",
"b. c #A61B38",
"n. c #B81B37",
"m. c #AB0A2E",
"M. c #832323",
"N. c #8B2424",
"B. c #842C23",
"V. c #8C2B23",
"C. c #8B242A",
"Z. c #85262B",
"A. c #932B24",
"S. c #9A2C25",
"D. c #94232B",
"F. c #9B242B",
"G. c #9C2A2B",
"H. c #952727",
"J. c #833324",
"K. c #8B3524",
"L. c #943424",
"P. c #9C3323",
"I. c #943924",
"U. c #9C3A25",
"Y. c #9D3529",
"T. c #882533",
"R. c #9C2433",
"E. c #9C2934",
"W. c #952634",
"Q. c #A52C2B",
"!. c #A6292A",
"~. c #B5292C",
"^. c #A33523",
"/. c #AC3624",
"(. c #A43B22",
"). c #AB3A24",
"_. c #AB342A",
"`. c #AC3B29",
"'. c #A43929",
"]. c #B33B25",
"[. c #BB3C26",
"{. c #B43C29",
"}. c #BC3D29",
"|. c #B23429",
" X c #A22431",
".X c #AB2B35",
"XX c #A82737",
"oX c #B32B34",
"OX c #BB2C3B",
"+X c #B72838",
"@X c #A83134",
"#X c #B83636",
"$X c #C7182D",
"%X c #D71936",
"&X c #CC1332",
"*X c #E91139",
"=X c #C13E27",
"-X c #C33F29",
";X c #CC3C2B",
":X c #C32C3D",
">X c #C7293B",
",X c #C73239",
"<X c #D4333D",
"1X c #DB343E",
"2X c #D13033",
"3X c #E3383E",
"4X c #88451B",
"5X c #96451D",
"6X c #A2461F",
"7X c #994722",
"8X c #8D4420",
"9X c #AB4223",
"0X c #A64723",
"qX c #B44324",
"wX c #BB4325",
"eX c #BC412A",
"rX c #B84627",
"tX c #C34227",
"yX c #C5422A",
"uX c #CC432A",
"iX c #C84B29",
"pX c #D3442C",
"aX c #DB462D",
"sX c #D44A2C",
"dX c #DC492D",
"fX c #DC4530",
"gX c #D94830",
"hX c #CB492C",
"jX c #E44A2E",
"kX c #E84A2F",
"lX c #E24931",
"zX c #EE4C30",
"xX c #EC4E30",
"cX c #921A42",
"vX c #B21A43",
"bX c #962042",
"nX c #B82545",
"mX c #D61A45",
"MX c #E91344",
"NX c #CD2C41",
"BX c #C62843",
"VX c #D42D42",
"CX c #DB2D43",
"ZX c #D9294A",
"AX c #CD3242",
"SX c #D53142",
"DX c #DC3243",
"FX c #D43945",
"GX c #DD3656",
"HX c #DC2B52",
"JX c #E42D48",
"KX c #E33343",
"LX c #E8334A",
"PX c #E63555",
"IX c #F63553",
"UX c #EB2F50",
/* pixels */
"{ ` a - = * & * : : > s s s s > p ^ l A K C 7 B 9 B 3.4.5.Q i.s.p.t.0.I b j > > = * * : : o X h h j T q.q.M.) ) n.ZX>Xb.k._ _ { ",
"v d - & O O O & ; * * * = = < < 1 p ~ 4 q C Z G K ! B B B 9 B Q t.0.T m n , : > * % o X     > j h G T 9.9.) _ +XZXb._ ) ) ] [ ] ",
"f > o O O X % & * * * & & < 1 1 p _ | ` J &.H.F.c.j.7.L F N 6 9 D I w.h.h $ : * o     . X & u i f J I { ) k.BXNXk.) ) ) { { m b ",
"s * o O O * * < 1 1 < < 1 p ( ) { z.oX~. X.XG.C.7.7.c.c.j.j.m 7.7.!.v.c.x % o X         X o : > f H b ] x.VX>X_ ) { m g.M.U I A ",
"s * * < s d d k k z k k a ] h.j.b.+XOX+XF. .A q w 7 C G { j.m.&X*X*X*Xm.p o X X X X X       % : f v ] b.VXb._ _ M.N.V.V.0.T J j ",
"f d z [  .g.g.h.h.z.j.f.l.R.+XVXVX:Xb.b...' / K ,.D S 9 9 N H H.$X*X$Xa * % % % o o X   . . X * d ] b.<Xb._ { N.V.V.q.0.0.U H l ",
"[ h.j.R. XXX+X>XCXCX<XOXOXNXDXDXVX>Xn.b.l.{ M.V.L.P.I.L.K.W W J.v.~.c , x > - * % X . . .   o - [ XX1XXXh.g.w.V.q.0.0.V.V.9.&.[ ",
"XXBXNX:XOX:X<XCXKXDXDXDXDXKX<X:X2XOX.X!.N.N.N.e.L.^.).).)./.P.S./.w.F h f > : %   . .   o o = 9.+XCX>Xx.h.9.B.T T V.A.H.N.M.g.z.",
"OXBX,XBX:XBXAXAXAXSXSXFXKXDX<X<XOXoXQ.G.H.V.A.L.Y.^.(.).)./.a.L.w.H c h i > %     X o % % = 7.:X1X<X Xg.M.&.Y *.V.G.H.Z...} l.XX",
"OXOXAX,X,X,XAX<XSXSXDXKX,XA.E.V.&.*.&.B.V.A.A.S.S.^.^.(./.^.p.R ! L c h x %   X % % * * = n .X1X1X+XN.&.I J *.C.F.C. .O.) l. XOX",
"OX,X<XFXDXDXKX1XDX1X<X,X*.A A A f z v J M.N.H.F.S.S.P.^.P.p.R R P H h x * X o * : : > : h H.2X3X>Xj.%.f z %.V.F.j.} ) } l.XX+X+X",
"OXFX1X3XKX3X2X,X#XQ.N.V.B.*.G C A v &.U &.C.N.F.F.S.L.y.y.t.t.L h u : % X o > u u u > x M.,X1X:XN.l s s %.M.D.D.} ' l.E.nX+XR. X",
"Q.oX2X<X,X_.H.N.&.J K.`.L.*.%.A ` =.&.Z.C.C.H.F.!.A.0.t.t.0.H > * % o o : i i i x i h 9.oX,XQ.%.s 4 g ` C.F.z.l.} l..X:X#XR.D.F.",
"B.A.S.S.V.U b H l M.#X`.@XV.=.| Z.T.W.E.XXE.j.j.H.!.S.T R h * = u u u h j j j j h j M.Q.Q.w.l < 5 g [ D.F.l.l.h.W..XoXoXE.D.H.V.",
"I U I H G l G j J #X#X@X@X#XOX:XBXFXKXJX<X>Xn.+X>Xj.h > * & u j H H H H H H H c H w.S.V.J g 5 O g &. Xj.| } l.W.E.F.Q. XF.S.A.w.",
"H G j j v J I I #X#X@XE.@XnXFXFXAXSXDX%XJXmX*Xv.M % * - i c Y T P L P Y T T L T q.r.T c u O 5 `  X X>.| } T.Z.g.C.F.F.F._.^.A.0.",
"J G %.[ M.H.H.@X@XT.Z.Z.T.W.W.E.E.E.XX@X.XoX~.m h c L 0.q.p.y.q.t.0.0.0.0.0.q.a.V.I G i # r @X#X@X%.C | g.>.|  .H.!.!.|./.^.q.T ",
"%. .l.W.R.R.Z.%./ =.T.W.E.E.W.Z.=.*.;.Q L.'.(.).).).).(.(.P.L.y.y.V.q.q.y.S.a.0.Y K , # ^ @X#XZ.$./ =.' $.` M.A.Q./._././.P.0.I ",
"z.z.cXbXl.T.|  .D. X.XoX+X+XQ.L.J.Q 4.7XpX}.].[.[.{.].).(.^.P.a.P.P.a.d.^.p.T A N 3 3 $.#X@X=.$.%.=.$.~ C *.A.'.].].|.^.L.V.-.&.",
"z.cXbXbXBXVXCXJXCX2XOX.X@X_._.`.U.7XeXfXlXpX}.[.tX[.eX].{.).).).^./.d.a.R A 7 3 5 4 T.:X@X%.@.$./ ~ q A ;.'._.#X-X{./.L.B.&. .l.",
"cXbXnXLXLX:X XG.R.W.L.'.].wXeXwXyXgXfXpXgXgX;X}.=X-X-XtXeX[.].].d.y.! f , 3 2 k M.#XOXT.@.~ +.@.+.#.,.J.'.{.;XyX}._.Q.H.&.' k.cX",
"BXZXUX>XT.$.#.A E :.I.).wXtXuXpXfXlXfXfXgXgXgX-X-X-XuX;XtX[.].a.K 7 ; 4 g %.j.XX.XW.#.0 0 +.$.$.,.:.Y.{.eXyXgXyX}._.L.&.' l.BXBX",
"PXPXOX=.#.,.:.8X7X9XqXwXiXiXaXlXlXlXlXlXlXlXlXfXtXuXuXuXtX].s.Z 3 g %.W..X.XW.>.#.0 + q $.,.,.;.I.`.yXyXhXgXgXyX_.^.C./ cXHXGXPX",
"ZXz.%.,.:.I.9XrXyXhXhXpXpXpXlXdXlXlXlXlXfXlXlXaX;XpXpXuX].L.C 0 %..XOXoXE.=.+.0 + @ +.,.;.J.I.`.eXpXgXgXfXfXuX#XP.H./ cXPXGXPXHX",
" .%.;.I.'.rXuXfXaXfXpXyXuXaXdXlXfXlXdXlXjXaXpXuXuXuX}.`.;.C 0 W.>X.XT.%.+.@ + 0 y ,.J.I.I.`.yXuXpXfXfXfXgXpX}.^.B./ l.GXGXBXvXz.",
"B.I.`.}.uX;XfXfX;XfX}.0XuXlXaXpXpXpXpXaXaXuX].(.(.L.J.$.y +.@XBX=.+.y 0 0 y D ,.J.Y.9X{.yXhXpXfXfXjXfXaXpXeXP.%.^ T.PXHXz.X.} } ",
"{.}.yXuXpXaX1XpXyX#XI.I.d.^.e.T q.a.).[.eX].^.J.#.y 0 y =.AXnX@.0 y C #.:.Y.'.qXyXyXuXpXgXfXdXdXdXdXpXuX{.*.+.^ R.LXBXk.f.C.W.Y.",
"-X-X-XuXpXhXtX0X8X2.3.E I j x u h H 0.a.a.p.Y +.y @.>.+XFXT.y y :.I.0X`.yXhXgXgXdXdXfXdXfXfXdXaXpXuX{.L.$.~ | BXZXvXX.x.Q._.|.}.",
"}.}.-XyXqX0X8X4.1.<.S ! J c c H c c H 0.t.! C ^ T.nXDXnX%.0 #.Y.eXyXgXfXlXkXkXkXlXfXdXgXpXpXyX-X{.L.%.~ ' +XAXXXk.k.F.|.].}.[.=X",
").].).4X4.D 1.2.E A.~.v.w.Y Q i.i.L G G H H M..X,X:XT.y 0 #.'.hXlXzXxXzXzXkXfXgXhXyXyXyX{.{.'.K.%.g ^ R.VXXXO.O.l.!.|.|.}.[.[.|.",
"Y.K.D 9 9 D V.oX$X$X_.K.E 5.5X5Xs.p.0.L H H r.W.>.^ e 0 ,.Y.hXzXxXxXzXlXgXhXeX'.U.Y.I.J.-.%.@.r r | BXBX..( / D.~.|.|.[.[.].^.U.",
"P.Z N m c.*X*X&XV.4.5.5.4X0XrXrXwX6Xd.p.0.R h 4 3 0 #.J.0XhXlXzXxXlXhXrX'.I.J.:.,.#.+.0 e e r / XXCXXX' t ' F.|.).].]./.^.P.J.Y.",
"a p M h.v.>X!.D 6.7XrXiXiXiXsXsXpXtX=Xd.d.s.R Z %.;.U.}.pXlXzXzXdXqX8X,.#.#.#.y e @ e +.$.T.XXAXSXR./ t / H.|./.d./.^.S.A.V.~.%X",
"- h N w E ;.E 2.7XiXiXsXjXjXxXxXjXpXuXtX[.[.d.d.U.`.yXaXlXxXlXgXeX;.+.+ + + + + @ @.T.nXAXDXDXnXT.^ t / N.|.].^.!.F.j.N.!.%X*XM ",
"P ! w 9 E 4X4X5XiXsXsXxXxXxXsXxXjXaXpXuXtX=XtXtXyXuXpXjXlXjXhX{.J.y + e y y 0 y =.nXDXSXnXnXT./ r r / V./.].!.!.j.x.j.n.*XmX] h ",
"y.! B D i.s.d.qXiXsXsXxXsXiXiXiXsXdXpXpXtXtXtXtXpXpXaXdXpXyX0XJ.#.+ y %.>.T.K.bXAXSXXX>.%.~ e e ^ *.Y.{.[./.Q.l.8.b.%XMXMXj.H e.",
"T K E Q p.U.6X].rXiXiXhXrX6X5X6.5XiXiXwX[.].].d.].[.yXeX{.Y.:.#.@ e =.XXnXAXFXDXnXT.+.e @ 2 C -.(.}.;X=X|. Xk.x.%XMXMX*Xm.H 0.w.",
"L Y P t.a.^.^.(.0X0X(.0X4X2.3.3.3.5X6X6X6Xs.s.p.y.0.K.K.;.,.+.@ e %.E.SXGXFXOXE.%.y @ 0 @.%.I.}.pXpX-XoXF.k.m.mXUXMX*X%Xb R R L ",
"H L T q.e.a.L.P.t.W t.R K T M.7.R R 5X5Xi.i.R P P N 2 4 r r @ + +.bXSXSXnXbX>.$.e + y ,.K.{.uXdXpX}.Y.l.k.vXUXUX%X&X%Xw.L I H H ",
"G G L T 0.T E D D V V B Z >X*X%X&X$Xm ! b H H H H G C ^ r e @ r =.AXFXE.T.%.+.@ + +.,.I.}.sXjXpX}.V.' x.ZXIXmXm.j.!.A.I R H H c ",
"h h A j A F B w 9 B 9 9 ! !.%X%Xv.v.j.a M a a n n n 7.R.R.=.@.$.W.DXE.%.+.e @ @ +.,.I.{.sXkXaX{.-.~ k.UXPXn.f.N.G.S.0.U P H c j ",
"f u > , w 6 7 F H L t.0.r.H.S.@XQ B 3.Q T R P H c c b !.NXVXnXXXFXBX=.y + + 0 +.:.7X{.gXkXdX{.:.r X.PXPXvX} N.S.P.p.w.R L n G h ",
"> ; ; ; ; , j m 7.7.j.~.$Xp.E 4.4.1.1.6.6X5Xs.i.R ! c c >. XOXNXnXbX~ + + q @.:.Y.eXgXlXlXeX;.2 $.GXGXz.O.N.d./.^.e.q.U H H j i ",
"$ X & 1 x n M n H U w.r.a.u.4.5.5X0X0X0XiXiXqX6Xd.i.! ! N 2 r ^ +.r e + 0 +.%.K.qXpXxXlXyXJ.y ^ AXIXvXO.Z.^.].]./.a.q.0.m ! h , ",
"o < p a a a > i F ! P t.i.4X5X6X0XiXsXsXsXsXiXiXqX6Xs.i.! 7 q f y e @ @ 4 @.:.'.yXfXkXuXL.y r @XIXnXO.l./.[.=X[.d.a.q.0.P c u ; ",
"1 p p p p p = 7 Z E Q Q 4X6XqXtXsXsXjXjXxXjXdXiXiXtX].d.s.i.R 0.K.*.$.+.+.,.K.eXpXlXdX'.#.@ >.LXUXX.| @X=XuXtX=X|.d.e.w.L h : * ",
"< < 1 1 1 p s s A R i.u.s.6XtXsXdXjXjXjXjXjXjXdXsXuXtXtX[.d.d.a.'.'.A.*.B.L.}.uXlXjXyX;.0 ^ BXIXvXO.A.yXpX;X;X=X[.d.e.q.H > : - ",
"p 1 1 - - - u f j R t.p.d.d.wXuXdXdXdXsXsXsXjXjXjXaXaXaXpX=X[.[.{.{.{.{.{.eXpXdXjXpX'.#.e W.IXHXX.| {.pXpXpX;X=X[./.d.R i u a d ",
") ) d s : : : > h L 0.p.d.d.wXtXiXuXtX6X0X0XrXsXdXdXdXaXsXpXtXtX=X=X-X-X;XpXpXaXpX}.J.r / GXIXl./ Y.yXfXpXpXuXtX=Xd.L h v { _ ] ",
"f...z - * % & * > j R y.p.s.d.6XqXqX6X4X4.4.4.5XwXtXuXpXpXpXpXuXtXtX;XuXuXuXuXuX}.Y.@.r nXIXvXO.T.eXpXdXaXpXpX;Xd.H z h.l.f.k.f.",
"[ n d = & & o o ; > j P t.y.p.4X4X4X4X4.3.2.3.1.4.5X5X6XqXqXwXtX-X-X=X[.[.[.{./.L.%.^ R.IXBXO.=._.uXdXdXaXpXpX/.j v g.o.) _ { { ",
"l d > % & & & = - > x j L 0.0.t.R Q Q R p.!.A.K B V 4.Q Q i.s.d.d.d.(.^.P.^.A.Z.' ( bXPXGXX.' Y.}.pXdXdXaXaX[.c M [ ( ( ) ] ] b ",
"d u = * * = p ' g.h.b l c I U M.9.9.7.r.c.$X%X$Xr.P F V V F V ! P P P P E ,.[ / O.nXIXZXl.O.C.{.pXaXaXaXaXtXb b o.^ ^ ) { m I c ",
"x u = - p l  . XVX>X Xm a j G G H L U U P K 0.v.&X$Xc.m n H j N B 7 7 w , 2 4 t z.UXZXl./ &.{.uXpXpXpXaXtXL b T.^ p ` M.M.9.I j ",
"h d s k ` j.XXVXDX:X.XW.b x N 7 N N V B 3.<.<.3.U $X*Xm.8.8.8.m j h 7 , # 3 t ..VXCXz.' [ ^.=X;XpXpXpX;XR a &.^ r ` N.A.e.0.I j ",
"j a b { j.OXNXVXAXOXOXOXQ.{ v A N B B B 3.2.2.3.<.B 7.c.7.n n M 8.m m m [ g.b.>X>Xb.} ' A.].=X-X;XtXpXa.x n r g *.A.^./.a.q.L b ",
"b { h.n.BXVXVX>XNXAX1X<X,X#XQ.A.A.W E E 5.4X5X5X4X1.8 S F 8 8 7 h M f.j.j.c.z.z.g.} ' &.P.].].[.[.;X[.c v ^ g B.Y./.|./.a.q.U b ",
"l.b.nXNXVXVXSXVXSX1X1X3X3X,X~._.|.|./.^.d.].qXwXrX0X5.2.D D 9 8 6 w s l n l k z ' [ M.A.^././.].[.[.0.z ` r -.^.|.}.[./.a.w.{ { ",
"b.>XVXVXCXKX1XDXDX3XKXKX3X3X#XF.!.|.2X;X;X;XpXpXpXuXtX).7XU.u.E 9 6 6 w N g A [ U N.r.a.a.d.^./.].a.h b / / S.[.=X[.].^.A.{ ] k.",
"VXJXCXKXJXKXJXKXKXKX3X3X3X3X;X!.S.S.{.-X;X;X;X3X;XaXpXpX-X[.(.a.R ! N N A J I &.w.w.w.q.r.p.e.^.p.f - ' ^ M./.[.].|.^.A.{ ) k.+X",
"CXJXJXJXCXKXKX2X>X,X<X1X1X-X~.Q.^.S.P.P.).[.=XuXpXpXpXpXuX=X[./.a.0.P H b I m I L L U R 0.y.q.e.h o s p ` ^.].].^.A.g.] ( k.>XJX",
"b.>XVXCXJX1XOXF.M.H.Q.oX~.Q.A.A.S.S.A.y.i.s.d.d.].qXwXtXyXtX]./.d.e.0.I J H c j j j c L L U 0.c o : 4 / N.^./.A.M.` ( ( k.>XVXn.",
"z.b.n.>XOX X&.n c n m N.M.M.I I U B.V.y.t.Q 4X4Xu.5X6X9XqX].].).a.e.0.P H j j f x i x j c L A o : , p M.a.^.e.g.' ( ) z.VXNXz.k.",
"g.g.g.{ ` l p s s f h c n c l h v %.Y W Y E V E V 5.i.5X5Xd.).^.a.e.0.P n j h u > > > u h h o % G f b A.p.A.7./ ) k.>XJX>Xz.X.f."
};
