/* XPM */
static char *seamless4[] = {
/* columns rows colors chars-per-pixel */
"64 64 241 2 ",
"   c #136D5C",
".  c #1A6A69",
"X  c #157868",
"o  c #1F6C71",
"O  c #1B7A7B",
"+  c #1B7774",
"@  c #22757B",
"#  c #206C71",
"$  c #1A5F61",
"%  c #18846A",
"&  c #168776",
"*  c #19917A",
"=  c #1C906E",
"-  c #249677",
";  c #228C6B",
":  c #27A47C",
">  c #19906F",
",  c #1E7E81",
"<  c #257C83",
"1  c #1C8886",
"2  c #189687",
"3  c #1E8D91",
"4  c #1C9B9B",
"5  c #1C9694",
"6  c #228B8E",
"7  c #26848A",
"8  c #248C93",
"9  c #2A8E95",
"0  c #24939A",
"q  c #2B939B",
"w  c #239698",
"e  c #259985",
"r  c #19A698",
"t  c #1AB99C",
"y  c #18A18B",
"u  c #27AA8A",
"i  c #33AB87",
"p  c #39B58C",
"a  c #25A699",
"s  c #29B599",
"d  c #3DBB93",
"f  c #37B997",
"g  c #31AF90",
"h  c #1E9AA1",
"j  c #259CA3",
"k  c #2B9CA4",
"l  c #289BA4",
"z  c #309CA5",
"x  c #1DABA9",
"c  c #1CB6A9",
"v  c #1DB9B8",
"b  c #1EA9B5",
"n  c #23A5AC",
"m  c #2CA3AC",
"M  c #25ABAD",
"N  c #27A6A5",
"B  c #26B9A7",
"V  c #2DADB5",
"C  c #2EAFB8",
"Z  c #27AAB3",
"A  c #33ABB5",
"S  c #39ABB5",
"D  c #33AEB8",
"F  c #37AAB4",
"G  c #2BB3B6",
"H  c #25B3BB",
"J  c #2CB3BC",
"K  c #23BCBC",
"L  c #2BBABD",
"P  c #26B9B4",
"I  c #33B2BC",
"U  c #37B3BC",
"Y  c #34B1AC",
"T  c #44B88E",
"R  c #44BD92",
"E  c #4BBE94",
"W  c #41BF98",
"Q  c #52BE94",
"!  c #3CC29B",
"~  c #1EC7B8",
"^  c #1BD5BD",
"/  c #2AC3AA",
"(  c #3CC5A3",
")  c #3DCAA5",
"_  c #3DCCAB",
"`  c #33C9AA",
"'  c #3FD1AE",
"]  c #22C3BB",
"[  c #2AC7B6",
"{  c #3BCEB1",
"}  c #34CDB5",
"|  c #2BD5BD",
" . c #3DD3B4",
".. c #3CD6BA",
"X. c #3CD9BD",
"o. c #34D8BB",
"O. c #46C395",
"+. c #4AC295",
"@. c #45C69B",
"#. c #4AC49B",
"$. c #44C89E",
"%. c #51C096",
"&. c #51C29B",
"*. c #4BC6A1",
"=. c #43CAA4",
"-. c #49C9A4",
";. c #43CEAA",
":. c #47CAA7",
">. c #41D0AE",
",. c #46CEB0",
"<. c #42D2B3",
"1. c #41D6BB",
"2. c #43D6BC",
"3. c #1CB8C6",
"4. c #2BB7C1",
"5. c #24BBC3",
"6. c #2CBBC4",
"7. c #2CBEC9",
"8. c #24BCC8",
"9. c #34B6C1",
"0. c #33BAC5",
"q. c #33BDCA",
"w. c #39B9C5",
"e. c #1DC9C4",
"r. c #1DD7C5",
"t. c #1DD6D5",
"y. c #24C3C4",
"u. c #2BC2C5",
"i. c #23CAC3",
"p. c #25C4CB",
"a. c #2BC3CC",
"s. c #2BCBCD",
"d. c #24CBC9",
"f. c #33C1CD",
"g. c #33C7C8",
"h. c #24D4CC",
"j. c #29D2CC",
"k. c #29D8C7",
"l. c #35DCC4",
"z. c #3BDCC4",
"x. c #34DECA",
"c. c #3ADEC9",
"v. c #33D5C3",
"b. c #24C6D1",
"n. c #2BC6D2",
"m. c #26CBD4",
"M. c #2BCBD5",
"N. c #24CEDA",
"B. c #2ACDDA",
"V. c #32C5D3",
"C. c #31C9D6",
"Z. c #31CDDC",
"A. c #38C5D3",
"S. c #24D3D4",
"D. c #2AD3D4",
"F. c #24DDD3",
"G. c #2BDBD4",
"H. c #25D3DC",
"J. c #2BD3DD",
"K. c #25DCDD",
"L. c #2BDBDC",
"P. c #32DAD5",
"I. c #1DEBD5",
"U. c #1EEEDA",
"Y. c #1EE4D8",
"T. c #1DF2DC",
"R. c #1CF0D7",
"E. c #1EE4C9",
"W. c #29E3C9",
"Q. c #33E1C6",
"!. c #35E2CD",
"~. c #39E1CC",
"^. c #22E4D5",
"/. c #2CE5D3",
"(. c #24EAD5",
"). c #2CE9D6",
"_. c #23E5DB",
"`. c #2CE3DD",
"'. c #23ECDB",
"]. c #2DEADC",
"[. c #34E5D4",
"{. c #3AE3D3",
"}. c #32E8D6",
"|. c #33E6D9",
" X c #33EADD",
".X c #38E8DB",
"XX c #23F2DB",
"oX c #1EDEED",
"OX c #25D5E3",
"+X c #2AD3E2",
"@X c #24DBE4",
"#X c #2BDBE5",
"$X c #26DDEC",
"%X c #2BDBEB",
"&X c #2BD7E8",
"*X c #32D3E4",
"=X c #29DEF1",
"-X c #1DEAE8",
";X c #1EF4E3",
":X c #1EF9E5",
">X c #1EF5EB",
",X c #1EFAEC",
"<X c #1DFAF4",
"1X c #1DF6F8",
"2X c #1EE8F5",
"3X c #25E4E4",
"4X c #2CE3E5",
"5X c #24EBE3",
"6X c #2CEDE3",
"7X c #25E5EC",
"8X c #2BE3E9",
"9X c #24ECEA",
"0X c #2CECEC",
"qX c #32ECE3",
"wX c #34EBE6",
"eX c #22F3E4",
"rX c #2AF1E4",
"tX c #24F5EB",
"yX c #2CF3EC",
"uX c #22F9EC",
"iX c #26F8E9",
"pX c #32F1EC",
"aX c #25E4F4",
"sX c #2CE4F4",
"dX c #23EBF4",
"fX c #2BEAF4",
"gX c #23ECFA",
"hX c #2AEBF9",
"jX c #27E6F9",
"kX c #24F4F3",
"lX c #2BF5F2",
"zX c #24FAF4",
"xX c #2AF9F5",
"cX c #23F3FA",
"vX c #24FCFA",
"bX c #2BFBFA",
"nX c #2BF0FB",
"mX c #31F5F2",
"MX c #32F9F8",
"NX c #42DBC5",
"BX c #40E1CF",
/* pixels */
"k k Z 6.n.B.aXt.c kX7XwXv.[ W.Q.l./.l.f o.z... .' ;.$.R @.O.O.@.>.1.}.yXbXbXzXzXzX,X;XR.T.uXY.X 3.aX$X$XOXN.b.7.4.I A # @ 7 9 q ",
"m V f.M.B.$XcXr.v bXwX|.x.` o.Q.c.z.! ) >.:.:.=.=.$.$.+.+.O.+.-.<.~.qXxXvXuXeX;XT.I.U.;X<XcX7X. x B.n.n.7.8.4.G C C m o @ 9 k k ",
"7.M.+X$XaXkXeXr.B yX}.Q.l.l.o... .! #.*.#.O.O.@.#.#.&.#.@.#.#.;.1.!.qXbXxXuXT.I.I.;X>X1XaX&XN.. 0 J 4.J G Z C C A I k o 7 k m Z ",
"&X=XaXkXeXU.>X/.s /.[.l.l.z.;.=.E #.@.O.O.#.O.@.#.$.@.#.@.$.;.<.z.{.qXxXzXeX'.U.:XcXjX&XJ.M.6.. 9 A A C V G C G J I 0 o 0 n H n.",
"gX>X;XU.XXtXzXk.g l.c.1.<.>.=.O.O.#.O.$.#.:.) =.;.;.=.$.O.=.<...c.{.wXmXvXuX(.T.kXaXOXB.n.7.D . 9 F A J 4.8.7.a.6.a.6 + n 5.b.aX",
"eXT.'.yXyX6X X} g _ <.;.-.$.O.+.O.#.-.;.....z..... ._ ;.f ) NXNX[.qXpXbXbX;XU.;XaXOXB.a.6.4.C o q A 4.y.p.m.m.N.D.m.1 1 5.N.aXkX",
"XXyXyX X{.l.z.) d f =.$.@.@.+.O.*.=. .z.[.|. Xc.z.z.....f ( NXP.qXwXmXMXtX(._.7X&XB.a.6.4.4.D + k 9.a.m.H.OX@X&X#X$X2 3 N.2XeXXX",
"yXqXc...<. .' ! O.E O.#.#.+.+.@.;. .l.qX6XyXkX6X|.{.c.z.f g P.8XfXlXtX].(.eX@X+XM.n.7.6.L I G + m u.m.H.@X7XdXdXgXcXr 4 -X>XeXtX",
"~.X.<.>.) =.=.@.O.O.O.#.#.#.@.=...l.[.`.XX_.5XtXfXwXP.c.Y e P.lX6X(.(.9X8X8Xn.7.7.7.6.4.L L L 1 M s.H.@XaXgXcXzXzX,Xt y -XuXyXqX",
"<.-.=.$.@.@.O.O.@.@.@.@.@.;.) ..l./.6X^.T.eX;X^.0XpX#X.X[.- i.5X/.4X8X*XB.C.9.C 6.7.6.L L u.u.8 G J.#XaXdXtX;XR.W.(.t u F. X~.X.",
"=.@.+.+.#.#.@.@.@.=.=.=.;.{ } l.k.yXeX;XY.Y.-XY.3X0X8X#X0XB a 5X#X+XV.0.9.I m m 0.u.u.L u.s.M.N H #X8XdX5X(.W.| ^.6X[ i } X. .;.",
"+.O.+.$.=.@.! ;.,. .<.NXc.} v.j.5X>XU.9X7XH.e.d.F.4XwX8X0X] 4 #XC.0.U D A C V k 6.a.] u.s.M.J.N G 4X8X(.^.W.W.).).x.` f _ ;.$.#.",
"+.O.-.>.' ( o.c.~.!.[. X/.[ / _.eX;X-X-XH.m.OXH.] ] `.0X`.k.w V.0.D D D 4.6.a.N L s.u.M.D.M.L.G P 4X/.W.Q.W.!..Xc.z.{ ! ) @.#.E ",
"@.=...~.} [ /.].6X6X].6Xh.c d.9X5X-X@Xm.5.b.B.&X3Xe.v ] S.G.N 9.w.D I 7.n.M.+XH Z S.D.J.J.P.#X[ [ [.o.| W.[.!.z.<.,.:.@.O.#.O.+.",
")  ..X X/ | rXrXrXXXeX^.c x @XF.S.@Xm.5.8.n.M.B.#X3Xh.c v L.z S S D 7.B.&X$X7Xd.x S.#XL.L.L.4X[ ` Q.Q.Q.!.Q...>.;.=.#.+.O.+.O.-.",
"{ l.yX(.B ^.uXrXeX9XyX_.x r D.G.y.m.p.H 5.a.n.b.B.H.K.e.b n.z z w.9.B.=XdX2X9X_.M i.L.P.P.P..X} ` Q.Q.Q.X...' :.$.O.+.+.O.+.$.;.",
"v.k.iXuX] S.dX5X9X7XfXd.x r u.D.P n.8.Z H 8.7.7.a.m.B.8.h 9.z F w.n.$XcX>X;X>XcXK u.|.G.G.!.Q./ ` z. . .,.,.:.=.+.+.+.E O.@.;.z.",
"h.^.xXdXS.c S.8X#X#Xp.h K u.M a.V 7.4.H C 4.4.4.6.7.a.n 6 A z 9.V.%X9X;XeXeXuXxXk./ G./.!.Q.o.( (  .;.,.;.;.:.-.$.$.@.#.-. .c.qX",
"~ @XkXK.F.y.x H 5.x 4 M a.D.6.j Z 7.Z H 6.H H 4.J 4.J 8 7 F z q.&X7XeXeXuXtXrX].!.` } Q.o.X...d :.:.$.=.;._ _ ;.:.;.) _ l.[.yXyX",
"x S.L.S.S.D.s.j . + N a.B.Z.M.N j 4.Z 6.a.6.H G G G A + l m 9.*X7XeXtXyXrX6X X[.).Q.` ` X...W O.*.=.=.E =.;.<. .....l.qXyXzXeXtX",
"5 s.s.a.s.s.s.3 1 H 6.7.M.J.8.K n N G u.5.K L L J 0.N + m D Z.fXtXuXyXqX}.{.~.Q.z.z.z._ ( O.E @.O.*.=.@.d ) ..l.[.`.kXuX;XT.>X9X",
"r s.g.u.u.a.H O n J.&X#XS.] K K M w L a.u.6.u.6.6.a.0 7 V C.fXrXrXyX X!.X.<.<.,.<.,.:.=.R O.#.O.E =.;.<.! f l.6X`.(.eX;XuXdXgXv ",
"k q.6.6.6.a.N O 7.&X8X`.h.v ] H N N L g.a.u.a.p.n.B.w 1 7.sXyXeXuX XQ.<.>.-.=.=.$.-.$.O.O.+.+.#.=.=. .z.z.g | zX_.T.1XdXaXOXJ.3 ",
"q U 9.9.6.a.x O B.8X_.^.d.K L M s N L u.u.u.s.M.J.#X4 1 @XlXXXuXpX~.<.:.$.@.@.@.#.@.O.+.+.O.O.$._ ..z.[.wX/ ~ 1X-XdX$X+XM.n.7.< ",
"7 A 9.4.7.M.8.X 5.fXF.h.S.K L G Y Y G g.s.D.J.OX8XjXr 4 9X(.iXmX{.<.:.@.@.O.#.O.O.O.O.O.#.O.;.<.X.[.wXyXuX~ r 2X@XOXM.7.6.J 4.< ",
"@ A 0.a.B.H.$Xn + e._.G.G.y.P a.g.L [ D.`.`.9X5XyX5X& ~ XX].xX.X1.;.$.#.+.O.O.O.#.#.#.$.@.d <.c. XyXlXeXT.T.r 5.b.6.4.I G A I 8 ",
"$ V C.B.OX8X7XdXv * r d.L.s.L D.D.L.G.k.^.(.(.(.XXc * -XiXyX.X~. .$.+.O.#.&.&.#.*.-.'  .p ! ].0XxXuX;XI.T.zXe.5 H G C V C D J m ",
". 8 *X%XaXdX9X5XeX^.c 5 B D.p.L.4X)./.)./. X XqX[ - [ bXlXqXz.<.=.@.+.+.#.#.>.>.o.X.!./ : `.xXuXeXU.I.T.,XcX$X8 0 V A V C J 6.a.",
"4 . OXgXyX;X'.'._.(._.F.c r N 8X6X/.}.c.X. .;.f : ( }. X.XNX<.=.O.O.#.$.-.>. .Q.[.pX/ > r.<XeX;XXXU.;X:X1X2XOXZ < z C I 6.7.b.B.",
"OX  v <X(.I.I.Y.Y.Y.^.^.^.j.a ] ^.}.X.;.$.R T R ;...z.z.1.<.;.@.%.#.#.-.<.X.~.}.lXY.% x 1XtXkXzXuX,XuX<X1X=XB.J < q J 7.n.M.OX=X",
"1X* 2 ,X(.5X'._.^.^.^.F.F.9XL.| | z.;.#.E E +.#.$.:.>.>.>.=.+.+.O.$.:.<.z.[.qXmX<Xt X H.gXaXaXaXgXcXcXcX2XoXn.J < 9 6.M.OX$XaXgX",
"<Xr X <XuXxXzXtX5X_.^._.9XfXF.).} <.-.O.O.+.+.O.+.&.-.=.$.@.+.+.$.;.o.!. XpXbXiXR.2 & OX%X&X&X$X=XaXjXaX=XH.7.I 7 0 n.OXaXcXcX<X",
"XXy * vXbXbXbXbXkXuXlXkXnXlXk.[. .-.#.O.+.+.O.+.O.@.%.#.#.+.%.@.=.1.[.pXxXzXeXI.;X2 & N.OXB.B.+XOX&X$X&XOXM.4.D 7 j B.dXcX,X:XR.",
"uX2 c bXlXyXyXyXlXnXlXlX6X).| l.' $.$.#.+.+.O.O.+.O.O.O.O.%.@.>.X.~.pXzXeX'.R.uX>XX 5 N.M.M.M.M.B.B.+XN.b.5.C C < n $XzX:XR.I.T.",
"uX- k.mXqX X}.}. X).]./.W.!.l.{ _ @.O.O.+.+.#.O.O.%.#.O.@.$.;.<.~.pXzXT.R.;XzXvXp.. H n.7.7.n.7.a.a.8.8.4.G G m O 5.aX:XI.eXuXzX",
"G.g }..X!.Q.Q.Q.!.c.z.Q.~.Q.<.) :.$.O.O.O.O.+.+.O.$.@.$.=.>...{.pXxXT.:X<XgXaXjX0 + 7.7.7.7.4.5.5.H J C C A 9.7 1 OX2XR.;XvXbXlX",
"} f ~.NX.... .....1.NXX...,.;.#.@.-.#.#.+.O.O.O.O.$.;.:.<.z.~.pXzXT.;XcXaX$XOXB.@ 6 9.4.4.L J Z V V V A C 9.3 + b 2X,X;XvXlXwX.X",
"( ! <.;.>.) =.;.;.' ' ' ) ;.-.@.O.@.O.O.+.+.@.@.O.=.<.1.z.[.pXMXXXuXcX=XOXM.n.7.# q A C C Z V C C C 4.0.Z 1 + b oX1X<XxXmX.X{.z.",
"$.O.=.$.@.@.@.$.$.:.=.=.$.$.$.#.O.O.O.O.+.#.$.:.d ;.~.~. XmXlXXXuXgX=XB.n.7.6.C . q F V V H J 4.6.7.n.4.+ 1 3.2X<X<XvX0X X!.X...",
"O.O.+.+.+.@.@.#.$.#.$.$.=.=.$.$.O.E E E #.#.;...f  .qXpXbXuXXXiXcX%XB.a.6.4.I m $ q A C L 5.8.b.B.OXjXx % 3.1X1XvX<X6X).~.X.' :.",
"#.O.+.#.#.=.=.-.-.=.:.;.;.;.:.=.E R R O.:.<.z.c.s v.bXyXrXXXtXnX%XB.7.4.G A C V . q I 7.b.H.&X=XdXkX<Xr.> x oXzXtX]./.!.z.<.;.$.",
"O.R #.;.<.<.>.>.;.;.;.;.<.'  .;.T T (  .z.x.qX6Xa 5XiXXXXXuXhX%XC.q.J I C C C I @ l M.&X2X2X1X:X;XT.T.iX~ : s j.[.G.l.l...' -.+.",
"#.R =.<.X.z.z.X.1...<.<...X.NX .i ( c..X6XyXzXi.r xXrXhXfXsX*XM.q.9.D A A C C a.3 j jX1X:X;XT.T.;XkXxXxXrX/ i f } X.X...' ;.#.+.",
"@.$.p o.{.[.[.~.c.z.z.z.z.~.{.` g }.wXuXuX;XT.r 5.nX=X*XZ.A.q.w.U A A F A D 4.B.x x zXT.;XzXzXxXlXyXqX.X~.Q.) p ! { <.;.;.$.O.+.",
"$.<.( i x.wXwX.X{.z.NX~.{.}.W./ [ yXuX1X;XY.Y.4 n.*XV.0.9.9.9.S A A S F F C 7.&Xe.c zXlXlXpX X}.[.~.c.NX..' >.O.T =.-.-.$.O.%.O.",
":.<.[.` - B [ ` s g f v. X/.| | G.cX3XY.t.H.m.7 A.w.w.S S A A A S S S A D 4.M.aXt.c bXqX!.z.NX1.NXX.1.<.>.;.=.@.E #.$.@.@.+.+.#.",
"<.z..XxXs X ; ; ; - - g ].W.W.K.S.5X_.t.b.B.Z 6 w.w.S S A F A A S S S S U 7.B.cXI.c qXl... .'  . .>.<.;.=.$.O.O.+.+.+.O.O.O.@.=.",
"z.{.wXxX(.; X X - * - * ^.).K.S.] 3XOX8.8.n.k 7 S S S A A C D D D S U w.9.n.$XcXI.s c. .' ) =.) =.) ;.$.#.O.+.+.O.+.O.+.+.@.;.<.",
" XpXbXuXI.%   X % % & r 7X3X5.e.p.&XM.H Z 4.z < S S D w.0.6.q.0.9.9.w.9.q.B.aX:XeXB  .;.$.#.#.O.@.@.@.O.O.+.%.+.O.O.#.#.:. .X.c.",
"mXxXuX'.I.*   X & 2 c S.L.L.y.3 4.M.7.5.n V A < F w.q.C.+XJ.J.C.V.q.w.w.f.M.jX;XzX} ! :.&.%.%.E +.+.O.O.+.%.+.@.$.R =._ ..c.}.qX",
"zXiX'.I.T.y   5 p.D.D.s.n.B.n., q 0.7.6.H j C 6 z A.Z.=XhXnXfX%XZ.A.q.q.V.+XdX;XuX~.d $.#.%.O.+.O.O.O.O.+.@.-.*.>.) d ..!.qXlXbX",
"XXI.R.T.zX2 + M.C.u.0.a.n.4.5 j m q C 9.4.Z m l q *XsXlXeXrXuXhX%XZ.V.V.A.+XkXT.lX{.=.E Q +.+.+.+.+.+.%.@.$.-.<...~.! s `.kXzXeX",
"T.;X,XuXvX4 1 f.L 6.a.J 0 8 n 6.q.D 0 m 4.J V Z 8 %XyXXXXXeXXXiXhX%XZ.A.Z.%XxX;XlX~.>.$.O.O.+.+.+.%.%.#.$.=.>.1.c..X6Xs c 1X,XI.",
"uX<X1XgXgX5 8 q.I n.n 3 H B.Z.n.7.q.I 8 m 6.H 7.w OXiXtXbXbXiXXXlXhX&X*X%XhXtXeXyXz.;.#.+.O.O.+.+.%.@.@.=.' ..Q.|.yXvX'.y r.<X,X",
"cXaXaX&X$X5 8 9.6.4.1 B.sX#XB.B.C.0.0.V 9 J 5.B.n r.iXbXpXpXxXeXXXxXhXsXhXlXXXlX X<.-.+.O.O.O.O.%.E O.$.>.<.Q.}.6XbX<X,Xt r gX1X",
"=X@XOXm.B.8 7 w.7.Z h 0X`.G.L.J.n.7.6.9.l C p.$Xv ~ bXpX.X.XpXxXeXXXlXlXiXXXuXpX~.' #.%.O.O.O.O.O.O.#.;. .X.~. XlXvX;XT.r.2 N.=X",
"+XM.n.7.7.0 < U a.H 4 6XF.k.k.D.m.n.f.q.N 4.H.dXe.| MX.XNXBXBXpXxXrXXXXXiXxXpX~. .$.+.O.+.#.$.O.T ! :.;...l..XyXvXtXI.,Xr.1 b.H.",
"n.7.6.J J m @ I n.N.3 F.k.j.d.h.j.j.M.s.N y.@X1X^ ] MX{.~.NXNX{.wXlXmXxXpX XNX' $.%.+.O.$.-.:.O.p ! <.<.l.[.qXbXuX(.XXvX~ & 3.8.",
"7.4.G I D J < m C.$X4 ] /.h.j.j.j.s.D.s.4 D.1X>XE.c wX~.z.1.1.Q.Q.~.NXNX2.>.-.@.O.O.O.-.:.' <.T p ' ..NX!. XlXzX'.T.<XcX4 1 H G ",
"G I C C C 9.j 8 Z.$Xy.5 K.G.G.L.K.K.8Xs.M dX5XE.XX/ l.BX1...<.>.:.:.-.$.@.O.O.O.O.@.=.;.<.NXX.i f X.~.{..XmX1X;XR.<XcXH.+ 3 Z n ",
"z D C C C J 4.6 M.7X_.* K 0X8X4X4X8XfX] B '.W.(.xX} f {.2.<.;.*.@.+.O.O.#.O.$.$.=._ ' 1.NX[.!.: / }. XpXcXzX;XR.cXdX=XN . 8 k k ",
"l z A C C 4.n.l 8.9XU.P e @X8X4X4X].6Xs / W.].rXqX~.g  .,.;.-.+.O.+.@.=.;.>. .<.1.1.NX~. XmX).* k.xXxXlX>XR.T.<XdXOXB.7 + 9 q q ",
"q q m I 9.6.B.H H eX_.8Xa u.4X`.).}.W.u i.rX6X X~.~.( d >.$.#.+.+.*.<.1.~.{.}.}..X.XqXyXxXvXt.> Y.uXeXR.U.,X1XaXOXn.6.+ @ 7 q q ",
"q q N 9.6.a.OXb.c '.6XfXB [  X!.W.o.W.s v..X!.z.X...=.d $.@.O.+.$.<.z.}.pXyXxXmXlXxXxXzX:XeXr.% t.<XtX<X1XaX$XM.n.6.I # @ 7 9 q "
};
