/* XPM */
static char *stop[] = {
/* columns rows colors chars-per-pixel */
"64 64 205 2 ",
"   c red",
".  c #FF0101",
"X  c #FF0202",
"o  c #FF0303",
"O  c #FF0404",
"+  c #FF0505",
"@  c #FF0606",
"#  c #FF0707",
"$  c #FF0808",
"%  c #FF0909",
"&  c #FF0A0A",
"*  c #FF0B0B",
"=  c #FF0C0C",
"-  c #FF0D0D",
";  c #FF0E0E",
":  c #FF0F0F",
">  c #FF1010",
",  c #FF1111",
"<  c #FF1212",
"1  c #FF1313",
"2  c #FF1414",
"3  c #FF1515",
"4  c #FF1616",
"5  c #FF1717",
"6  c #FF1818",
"7  c #FF1919",
"8  c #FF1A1A",
"9  c #FF1B1B",
"0  c #FF1C1C",
"q  c #FF1D1D",
"w  c #FF1E1E",
"e  c #FF1F1F",
"r  c #FF2020",
"t  c #FF2121",
"y  c #FF2222",
"u  c #FF2323",
"i  c #FF2525",
"p  c #FF2626",
"a  c #FF2727",
"s  c #FF2929",
"d  c #FF2A2A",
"f  c #FF2C2C",
"g  c #FF2D2D",
"h  c #FF2E2E",
"j  c #FF2F2F",
"k  c #FF3131",
"l  c #FF3333",
"z  c #FF3434",
"x  c #FF3535",
"c  c #FF3737",
"v  c #FF3838",
"b  c #FF3A3A",
"n  c #FF3B3B",
"m  c #FF3C3C",
"M  c #FF3E3E",
"N  c #FF4242",
"B  c #FF4343",
"V  c #FF4444",
"C  c #FF4545",
"Z  c #FF4646",
"A  c #FF4747",
"S  c #FF4848",
"D  c #FF4949",
"F  c #FF4B4B",
"G  c #FF4D4D",
"H  c #FF4E4E",
"J  c #FF4F4F",
"K  c #FF5252",
"L  c #FF5555",
"P  c #FF5656",
"I  c #FF5757",
"U  c #FF5858",
"Y  c #FF5A5A",
"T  c #FF5B5B",
"R  c #FF5C5C",
"E  c #FF5D5D",
"W  c #FF5E5E",
"Q  c #FF5F5F",
"!  c #FF6060",
"~  c #FF6161",
"^  c #FF6262",
"/  c #FF6363",
"(  c #FF6464",
")  c #FF6666",
"_  c #FF6767",
"`  c #FF6868",
"'  c #FF6969",
"]  c #FF6A6A",
"[  c #FF6B6B",
"{  c #FF6C6C",
"}  c #FF6D6D",
"|  c #FF6E6E",
" . c #FF6F6F",
".. c #FF7070",
"X. c #FF7272",
"o. c #FF7474",
"O. c #FF7676",
"+. c #FF7777",
"@. c #FF7878",
"#. c #FF7979",
"$. c #FF7A7A",
"%. c #FF7B7B",
"&. c #FF7C7C",
"*. c #FF7D7D",
"=. c #FF7E7E",
"-. c #FF7F7F",
";. c #FF8080",
":. c #FF8181",
">. c #FF8282",
",. c #FF8383",
"<. c #FF8484",
"1. c #FF8585",
"2. c #FF8787",
"3. c #FF8888",
"4. c #FF8989",
"5. c #FF8A8A",
"6. c #FF8B8B",
"7. c #FF8C8C",
"8. c #FF8D8D",
"9. c #FF8E8E",
"0. c #FF8F8F",
"q. c #FF9090",
"w. c #FF9191",
"e. c #FF9292",
"r. c #FF9393",
"t. c #FF9494",
"y. c #FF9595",
"u. c #FF9898",
"i. c #FF9999",
"p. c #FF9A9A",
"a. c #FF9B9B",
"s. c #FF9D9D",
"d. c #FF9E9E",
"f. c #FF9F9F",
"g. c #FFA0A0",
"h. c #FFA1A1",
"j. c #FFA2A2",
"k. c #FFA4A4",
"l. c #FFA6A6",
"z. c #FFA7A7",
"x. c #FFA8A8",
"c. c #FFABAB",
"v. c #FFACAC",
"b. c #FFADAD",
"n. c #FFAEAE",
"m. c #FFB0B0",
"M. c #FFB1B1",
"N. c #FFB2B2",
"B. c #FFB3B3",
"V. c #FFB4B4",
"C. c #FFB5B5",
"Z. c #FFB6B6",
"A. c #FFB7B7",
"S. c #FFB8B8",
"D. c #FFB9B9",
"F. c #FFBCBC",
"G. c #FFBEBE",
"H. c #FFBFBF",
"J. c #FFC2C2",
"K. c #FFC4C4",
"L. c #FFC5C5",
"P. c #FFC6C6",
"I. c #FFC7C7",
"U. c #FFC8C8",
"Y. c #FFC9C9",
"T. c #FFCBCB",
"R. c #FFCCCC",
"E. c #FFCECE",
"W. c #FFD0D0",
"Q. c #FFD3D3",
"!. c #FFD4D4",
"~. c #FFD5D5",
"^. c #FFD6D6",
"/. c #FFD8D8",
"(. c #FFD9D9",
"). c #FFDADA",
"_. c #FFDCDC",
"`. c #FFDDDD",
"'. c #FFDEDE",
"]. c #FFDFDF",
"[. c #FFE1E1",
"{. c #FFE2E2",
"}. c #FFE4E4",
"|. c #FFE5E5",
" X c #FFE6E6",
".X c #FFE7E7",
"XX c #FFE8E8",
"oX c #FFE9E9",
"OX c #FFEDED",
"+X c #FFEFEF",
"@X c #FFF0F0",
"#X c #FFF2F2",
"$X c #FFF3F3",
"%X c #FFF4F4",
"&X c #FFF6F6",
"*X c #FFF7F7",
"=X c #FFF8F8",
"-X c #FFF9F9",
";X c #FFFAFA",
":X c #FFFBFB",
">X c #FFFCFC",
",X c #FFFDFD",
"<X c #FFFEFE",
"1X c #FFFFFF",
"2X c None",
/* pixels */
"2X2X2X2X2X2X2X2X2X2X2X2X2X2X2X2X2X2Xf. . . . . . . . . . . . . . . . . . . . . . . . . . .f.2X2X2X2X2X2X2X2X2X2X2X2X2X2X2X2X2X2X",
"2X2X2X2X2X2X2X2X2X2X2X2X2X2X2X2X2Xt.r                                                     e t.2X2X2X2X2X2X2X2X2X2X2X2X2X2X2X2X2X",
"2X2X2X2X2X2X2X2X2X2X2X2X2X2X2X2Xt.r                                                         r t.2X2X2X2X2X2X2X2X2X2X2X2X2X2X2X2X",
"2X2X2X2X2X2X2X2X2X2X2X2X2X2X2Xt.r                                                             r t.2X2X2X2X2X2X2X2X2X2X2X2X2X2X2X",
"2X2X2X2X2X2X2X2X2X2X2X2X2X2Xt.r                                                                 r t.2X2X2X2X2X2X2X2X2X2X2X2X2X2X",
"2X2X2X2X2X2X2X2X2X2X2X2X2Xt.r                                                                     r t.2X2X2X2X2X2X2X2X2X2X2X2X2X",
"2X2X2X2X2X2X2X2X2X2X2X2Xt.r                                                                         r t.2X2X2X2X2X2X2X2X2X2X2X2X",
"2X2X2X2X2X2X2X2X2X2X2Xt.r                                                                             r t.2X2X2X2X2X2X2X2X2X2X2X",
"2X2X2X2X2X2X2X2X2X2Xt.r                                                                                 r t.2X2X2X2X2X2X2X2X2X2X",
"2X2X2X2X2X2X2X2X2Xt.r                                                                                     r t.2X2X2X2X2X2X2X2X2X",
"2X2X2X2X2X2X2X2Xt.r                                                                                         r t.2X2X2X2X2X2X2X2X",
"2X2X2X2X2X2X2Xt.r                                                                                             r t.2X2X2X2X2X2X2X",
"2X2X2X2X2X2Xt.r                                                                                                 r t.2X2X2X2X2X2X",
"2X2X2X2X2Xt.r                                                                                                     r t.2X2X2X2X2X",
"2X2X2X2Xt.r                                                                                                         r t.2X2X2X2X",
"2X2X2Xt.r                                                                                                             r t.2X2X2X",
"2X2Xt.r                                                                                                                 r t.2X2X",
"2Xt.r       6 m C c 2             % - - - - - - - - - - - - %             + a N C r +               % - - % - - - +       r t.2X",
"f.r     2 *.^.$X;X$XR.$.6       6 n.U.U.I.I.U.I.I.I.I.I.U.U.C.e         a u.|.*X*X{.e.r             4.U.I.I.I.I.J.B.2.b +   r f.",
"..    6 n.1X1X1X1X1X1X1XJ.h     e `.1X1X1X1X1X1X1X1X1X1X1X1X|.a       h R.1X1X1X1X1X1XI.a         + B.1X1X1X1X1X1X1X1XoX*.%   ..",
" .    7.1X1X1X;X*X;X1X1X1XS.-   e `.1X1X1X1X1X1X1X1X1X1X1X1X|.a     1 C.1X1X1X;X;X1X1X1Xx.-       + n.1X1X1X1X1X1X1X1X1X;X .   .",
" .  h |.1X1XB.P N Q l.$X1X*.    - ..2.,.,.,.J.1X1XU.,.,.,.2.O.2     ! ;X1X;Xn.H K C.1X1X*XP       + B.1X1Xu.T Q ) e.{.1X1X^.6 ] ",
" .  ) 1X1XU.6       % ! l.2                 ,.1X1X7.              % H.1X1XB.1     6 H.1X1XB.+     + B.1X1XQ         N {.1X;XK ] ",
" .  2.1X1Xe.            -                   ,.1X1Xe.              c OX1X*XC         K *X1X|.d     + n.1X1XQ           u.1X1X*.] ",
" .  4.1X1Xh.                                ,.1X1Xe.              ) 1X1XU.1         2 ^.1X1XT       B.1X1X!           O.1X1X7. .",
" .   .1X1XoXH                               ,.1X1X7.              e.1X1Xu.          + l.1X1X,.    + n.1X1XQ           O.1X1X7. .",
" .  c OX1X1X|.2.a                           ,.1X1X7.              n.1X1XO.            2.1X1Xf.    + n.1X1XQ           t.1X1X*. .",
" .  + f.1X1X1X1X`.$.6                       ,.1X1Xe.            % J.1X1X!              .1X1XB.+   + B.1X1XQ         r ^.1X;XP ] ",
" .    r H.1X1X1X1X1XR.Q %                   *.1X1Xe.            - I.1X1XP             ) 1X1XH.%   + B.1X1X] % - 1 b B.1X1X).r ] ",
" .      e u.$X1X1X1X1X*Xe.-                 ,.1X1X7.            - U.1X;XP             ! 1X1XH.%   + n.1X1X).I.U.Q.OX1X1X1X,.   .",
" .        + C C.*X1X1X1X1X*.                ,.1X1X7.            - I.1X1XT             ) 1X1XS.+   + B.1X1X1X1X1X1X1X1X1Xx.2    .",
" .            - T U.1X1X1X{.d               ,.1X1Xe.            + C.1X1X]             O.1X1Xn.    + n.1X1X1X1X1X;X*X^.$.1      .",
" .                2 e.;X1X1X)               ,.1X1X7.              l.1X1X,.            e.1X1Xt.    + B.1X1Xu.T T P m 6          .",
" .                  1 J.1X1X2.              ,.1X1Xe.              *.1X1Xx.+         % S.1X1X..    + B.1X1XQ                    .",
" .    %               t.1X1X7.              *.1X1Xe.              P ;X1X).e         a {.1X*XC     + n.1X1XQ                    .",
" .  e t.c             l.1X1X$.              ,.1X1X7.              r `.1X1X)         ..1X1X^.6       B.1X1XQ                    .",
" .  4.1X).Q -       F oX1X*XF               ,.1X1X7.                h.1X1X^.k     m `.1X1Xe.      + n.1X1XQ                    .",
"] d |.1X1X*XI.7.,.h.oX1X1XI.1               ,.1X1Xe.                N OX1X1X).e.e.`.1X1XoXb       + B.1X1XQ                    .",
" .% 4.;X1X1X1X1X1X1X1X1XOXK                 ,.1X1X7.                + 7.1X1X1X1X1X1X1X1X,.        + B.1X1XQ                    .",
" .  % ] `.1X1X1X1X1X1X{.) +                 ,.1X1Xe.                  2 u.;X1X1X1X1X*Xt.-         + n.1X1XQ                    .",
" .      a $.S.^.).I.4.k                     C 7.7.H                     - ! C.^.^.B.P %             ! 7.4.c                    .",
" .          % 2 6 -                                                         % 2 2 %                                            .",
" .                                                                                                                             .",
" .                                                                                                                             .",
"..                                                                                                                            ..",
"f.r                                                                                                                         r f.",
"2Xt.r                                                                                                                     r t.2X",
"2X2Xt.r                                                                                                                 r t.2X2X",
"2X2X2Xt.r                                                                                                             r t.2X2X2X",
"2X2X2X2Xt.r                                                                                                         r t.2X2X2X2X",
"2X2X2X2X2Xt.r                                                                                                     r t.2X2X2X2X2X",
"2X2X2X2X2X2Xt.r                                                                                                 r t.2X2X2X2X2X2X",
"2X2X2X2X2X2X2Xt.r                                                                                             r t.2X2X2X2X2X2X2X",
"2X2X2X2X2X2X2X2Xt.r                                                                                         r t.2X2X2X2X2X2X2X2X",
"2X2X2X2X2X2X2X2X2Xt.r                                                                                     r t.2X2X2X2X2X2X2X2X2X",
"2X2X2X2X2X2X2X2X2X2Xt.r                                                                                 r t.2X2X2X2X2X2X2X2X2X2X",
"2X2X2X2X2X2X2X2X2X2X2Xt.r                                                                             r t.2X2X2X2X2X2X2X2X2X2X2X",
"2X2X2X2X2X2X2X2X2X2X2X2Xt.r                                                                         r t.2X2X2X2X2X2X2X2X2X2X2X2X",
"2X2X2X2X2X2X2X2X2X2X2X2X2Xt.r                                                                     r t.2X2X2X2X2X2X2X2X2X2X2X2X2X",
"2X2X2X2X2X2X2X2X2X2X2X2X2X2Xt.r                                                                 r t.2X2X2X2X2X2X2X2X2X2X2X2X2X2X",
"2X2X2X2X2X2X2X2X2X2X2X2X2X2X2Xt.r                                                             r t.2X2X2X2X2X2X2X2X2X2X2X2X2X2X2X",
"2X2X2X2X2X2X2X2X2X2X2X2X2X2X2X2Xt.r                                                         r t.2X2X2X2X2X2X2X2X2X2X2X2X2X2X2X2X",
"2X2X2X2X2X2X2X2X2X2X2X2X2X2X2X2X2Xt.r                                                     r t.2X2X2X2X2X2X2X2X2X2X2X2X2X2X2X2X2X",
"2X2X2X2X2X2X2X2X2X2X2X2X2X2X2X2X2X2Xf. . . . . . . . . . . . . . . . . . . . . . . . . . .h.2X2X2X2X2X2X2X2X2X2X2X2X2X2X2X2X2X2X"
};
