/* XPM */
static char * test_xpm[] = {
"64 64 212 2",
"  	c #010101",
". 	c #030303",
"+ 	c #060606",
"@ 	c #0C0C0C",
"# 	c #151515",
"$ 	c #1F1F1F",
"% 	c #2B2B2B",
"& 	c #393939",
"* 	c #4A4A4A",
"= 	c #5C5C5C",
"- 	c #6F6F6F",
"; 	c #828282",
"> 	c #949494",
", 	c #A5A5A5",
"' 	c #B4B4B4",
") 	c #C1C1C1",
"! 	c #CDCDCD",
"~ 	c #D8D8D8",
"{ 	c #E2E2E2",
"] 	c #EBEBEB",
"^ 	c #F2F2F2",
"/ 	c #F7F7F7",
"( 	c #FBFBFB",
"_ 	c #FDFDFD",
": 	c #FEFEFE",
"< 	c #FFFFFF",
"[ 	c #000000",
"} 	c #040404",
"| 	c #080808",
"1 	c #101010",
"2 	c #1A1A1A",
"3 	c #262626",
"4 	c #343434",
"5 	c #434343",
"6 	c #565656",
"7 	c #696969",
"8 	c #7C7C7C",
"9 	c #8F8F8F",
"0 	c #A1A1A1",
"a 	c #B0B0B0",
"b 	c #BFBFBF",
"c 	c #CBCBCB",
"d 	c #D7D7D7",
"e 	c #E1E1E1",
"f 	c #EAEAEA",
"g 	c #F1F1F1",
"h 	c #F6F6F6",
"i 	c #FAFAFA",
"j 	c #020202",
"k 	c #050505",
"l 	c #161616",
"m 	c #222222",
"n 	c #303030",
"o 	c #404040",
"p 	c #525252",
"q 	c #656565",
"r 	c #797979",
"s 	c #8D8D8D",
"t 	c #9E9E9E",
"u 	c #ADADAD",
"v 	c #BDBDBD",
"w 	c #CACACA",
"x 	c #D5D5D5",
"y 	c #E0E0E0",
"z 	c #E9E9E9",
"A 	c #F0F0F0",
"B 	c #FCFCFC",
"C 	c #0A0A0A",
"D 	c #141414",
"E 	c #202020",
"F 	c #2E2E2E",
"G 	c #3E3E3E",
"H 	c #505050",
"I 	c #646464",
"J 	c #787878",
"K 	c #8B8B8B",
"L 	c #9D9D9D",
"M 	c #BCBCBC",
"N 	c #C9C9C9",
"O 	c #D4D4D4",
"P 	c #DFDFDF",
"Q 	c #E8E8E8",
"R 	c #EFEFEF",
"S 	c #F5F5F5",
"T 	c #F9F9F9",
"U 	c #090909",
"V 	c #131313",
"W 	c #515151",
"X 	c #777777",
"Y 	c #8A8A8A",
"Z 	c #BBBBBB",
"` 	c #E7E7E7",
" .	c #2F2F2F",
"..	c #535353",
"+.	c #666666",
"@.	c #9C9C9C",
"#.	c #D6D6D6",
"$.	c #0D0D0D",
"%.	c #171717",
"&.	c #242424",
"*.	c #333333",
"=.	c #555555",
"-.	c #686868",
";.	c #7B7B7B",
">.	c #9F9F9F",
",.	c #AFAFAF",
"'.	c #121212",
").	c #1D1D1D",
"!.	c #2A2A2A",
"~.	c #5B5B5B",
"{.	c #6D6D6D",
"].	c #7F7F7F",
"^.	c #929292",
"/.	c #A3A3A3",
"(.	c #B3B3B3",
"_.	c #CECECE",
":.	c #D9D9D9",
"<.	c #0E0E0E",
"[.	c #0B0B0B",
"}.	c #1B1B1B",
"|.	c #424242",
"1.	c #626262",
"2.	c #747474",
"3.	c #878787",
"4.	c #989898",
"5.	c #A8A8A8",
"6.	c #B6B6B6",
"7.	c #C4C4C4",
"8.	c #D0D0D0",
"9.	c #DBDBDB",
"0.	c #E4E4E4",
"a.	c #ECECEC",
"b.	c #191919",
"c.	c #323232",
"d.	c #4D4D4D",
"e.	c #6B6B6B",
"f.	c #C8C8C8",
"g.	c #D3D3D3",
"h.	c #DDDDDD",
"i.	c #E6E6E6",
"j.	c #EDEDED",
"k.	c #F3F3F3",
"l.	c #F8F8F8",
"m.	c #252525",
"n.	c #272727",
"o.	c #2D2D2D",
"p.	c #3F3F3F",
"q.	c #4B4B4B",
"r.	c #585858",
"s.	c #757575",
"t.	c #858585",
"u.	c #959595",
"v.	c #CCCCCC",
"w.	c #F4F4F4",
"x.	c #353535",
"y.	c #373737",
"z.	c #3C3C3C",
"A.	c #444444",
"B.	c #4E4E4E",
"C.	c #595959",
"D.	c #737373",
"E.	c #818181",
"F.	c #C6C6C6",
"G.	c #D1D1D1",
"H.	c #DADADA",
"I.	c #E3E3E3",
"J.	c #464646",
"K.	c #454545",
"L.	c #474747",
"M.	c #494949",
"N.	c #5D5D5D",
"O.	c #676767",
"P.	c #808080",
"Q.	c #8E8E8E",
"R.	c #9A9A9A",
"S.	c #C2C2C2",
"T.	c #5F5F5F",
"U.	c #6E6E6E",
"V.	c #A6A6A6",
"W.	c #B2B2B2",
"X.	c #DCDCDC",
"Y.	c #707070",
"Z.	c #6C6C6C",
"`.	c #727272",
" +	c #888888",
".+	c #919191",
"++	c #B1B1B1",
"@+	c #EEEEEE",
"#+	c #838383",
"$+	c #7E7E7E",
"%+	c #848484",
"&+	c #909090",
"*+	c #979797",
"=+	c #AAAAAA",
"-+	c #CFCFCF",
";+	c #DEDEDE",
">+	c #E5E5E5",
",+	c #969696",
"'+	c #939393",
")+	c #9B9B9B",
"!+	c #A7A7A7",
"~+	c #B7B7B7",
"{+	c #C7C7C7",
"]+	c #A4A4A4",
"^+	c #ACACAC",
"/+	c #B5B5B5",
"(+	c #B8B8B8",
"_+	c #BABABA",
":+	c #BEBEBE",
"<+	c #C3C3C3",
"[+	c #C5C5C5",
"}+	c #D2D2D2",
"      . + @ # $ % & * = - ; > , ' ) ! ~ { ] ^ / ( _ : < < < < < < < < < < < < < < < < < < < < < < < < < < < < < < < < < < < < < ",
"[ [ [   } | 1 2 3 4 5 6 7 8 9 0 a b c d e f g h i _ : < < < < < < < < < < < < < < < < < < < < < < < < < < < < < < < < < < < < < ",
"[ [ [   j k @ l m n o p q r s t u v w x y z A h i B : < < < < < < < < < < < < < < < < < < < < < < < < < < < < < < < < < < < < < ",
"[ [ [   j } C D E F G H I J K L u M N O P Q R S T B : : < < < < < < < < < < < < < < < < < < < < < < < < < < < < < < < < < < < < ",
"    [     . U V $ F G W I X Y L u Z N x P ` R S T B _ : < < < < < < < < < < < < < < < < < < < < < < < < < < < < < < < < < < < < ",
"j         . C D E  .o ..+.X Y @.u v w #.y z R S T B _ : < < < < < < < < < < < < < < < < < < < < < < < < < < < < < < < < < < < < ",
"k . j     k $.%.&.*.5 =.-.;.s >.,.b c ~ e z A S T B _ : < < < < < < < < < < < < < < < < < < < < < < < < < < < < < < < < < < < < ",
"C + k } k C '.).!.& * ~.{.].^./.(.) _.:.{ z A S i B _ : < < < < < < < < < < < < < < < < < < < < < < < < < < < < < < < < < < < < ",
"'.<.@ [.<.V }.3 4 |.W 1.2.3.4.5.6.7.8.9.0.a.^ / i B : : < < < < < < < < < < < < < < < < < < < < < < < < < < < < < < < < < < < < ",
").b.%.%.b.$ 3 c.G d.~.e.8 s L u Z f.g.h.i.j.k.l.( _ : < < < < < < < < < < < < < < < < < < < < < < < < < < < < < < < < < < < < < ",
"!.3 m.m.n.o.4 p.q.r.+.s.t.u., (.) v.#.e Q A w.T ( _ : < < < < < < < < < < < < < < < < < < < < < < < < < < < < < < < < < < < < < ",
"& x.4 x.y.z.A.B.C.I D.E.9 t u Z F.G.H.I.] g h T ( _ : < < < < < < < < < < < < < < < < < < < < < < < < < < < < < < < < < < < < < ",
"* J.K.L.M.d.=.N.O.D.P.Q.R.5.6.S.! #.y ` j.^ / i B _ : < < < < < < < < < < < < < < < < < < < < < < < < < < < < < < < < < < < < < ",
"= C.r.C.= T.q U.X E.Q.R.V.W.v N g.X.0.f A S l.( _ : < < < < < < < < < < < < < < < < < < < < < < < < < < < < < < < < < < < < < < ",
"Y.{.e.Z.{.`.X ]. +.+@.V.++M F.8.~ y Q @+^ / T B _ : < < < < < < < < < < < < < < < < < < < < < < < < < < < < < < < < < < < < < < ",
"#+P.].$+P.%+Y &+*+0 =+' M F.-+#.;+>+a.A S l.( B : : < < < < < < < < < < < < < < < < < < < < < < < < < < < < < < < < < < < < < < ",
",+'+^.^.^.,+)+0 !+,.~+b {+-+#.h.0.f R w./ i B _ : < < < < < < < < < < < < < < < < < < < < < < < < < < < < < < < < < < < < < < < ",
"V.]+/.]+, !+^+++6.M S.w 8.d h.0.f R k.h T ( B : : < < < < < < < < < < < < < < < < < < < < < < < < < < < < < < < < < < < < < < < ",
"/+' (.W./+(+_+:+7.N ! O H.P 0.f R k.h l.i B _ : < < < < < < < < < < < < < < < < < < < < < < < < < < < < < < < < < < < < < < < < ",
"<+S.) S.<+[+f.w _.g.d h.{ ` f R k.h l.i B _ : < < < < < < < < < < < < < < < < < < < < < < < < < < < < < < < < < < < < < < < < < ",
"-+-+_._.8.}+O #.:.h.y 0.Q j.A k.h l.i B _ : : < < < < < < < < < < < < < < < < < < < < < < < < < < < < < < < < < < < < < < < < < ",
"H.:.:.:.H.X.;+y { >+Q ] @+g w.h l.i B _ : : < < < < < < < < < < < < < < < < < < < < < < < < < < < < < < < < < < < < < < < < < < ",
"0.I.I.I.0.>+i.Q f a.R g k.S / T i B _ : : < < < < < < < < < < < < < < < < < < < < < < < < < < < < < < < < < < < < < < < < < < < ",
"a.a.] ] a.a.a.R A ^ w.h / l.i ( B _ : : < < < < < < < < < < < < < < < < < < < < < < < < < < < < < < < < < < < < < < < < < < < < ",
"k.^ g g ^ ^ ^ w.h / / T i ( B B _ : : < < < < < < < < < < < < < < < < < < < < < < < < < < < < < < < < < < < < < < < < < < < < < ",
"l./ / / / / / l.T T i ( B B _ : : < < < < < < < < < < < < < < < < < < < < < < < < < < < < < < < < < < < < < < < < < < < < < < < ",
"( i i i i i i ( ( ( B _ _ : : : < < < < < < < < < < < < < < < < < < < < < < < < < < < < < < < < < < < < < < < < < < < < < < < < ",
"_ B B B B B B _ _ _ _ : : : < < < < < < < < < < < < < < < < < < < < < < < < < < < < < < < < < < < < < < < < < < < < < < < < < < ",
": : _ _ _ _ : : : : : < < < < < < < < < < < < < < < < < < < < < < < < < < < < < < < < < < < < < < < < < < < < < < < < < < < < < ",
"< : : : : : : < < < < < < < < < < < < < < < < < < < < < < < < < < < < < < < < < < < < < < < < < < < < < < < < < < < < < < < < < ",
"< < < < < < < < < < < < < < < < < < < < < < < < < < < < < < < < < < < < < < < < < < < < < < < < < < < < < < < < < < < < < < < < ",
"< < < < < < < < < < < < < < < < < < < < < < < < < < < < < < < < < < < < < < < < < < < < < < < < < < < < < < < < < < < < < < < < ",
"< < < < < < < < < < < < < < < < < < < < < < < < < < < < < < < < < < < < < < < < < < < < < < < < < < < < < < < < < < < < < < < < ",
"< < < < < < < < < < < < < < < < < < < < < < < < < < < < < < < < < < < < < < < < < < < < < < < < < < < < < < < < < < < < < < < < ",
"< < < < < < < < < < < < < < < < < < < < < < < < < < < < < < < < < < < < < < < < < < < < < < < < < < < < < < < < < < < < < < < < ",
"< < < < < < < < < < < < < < < < < < < < < < < < < < < < < < < < < < < < < < < < < < < < < < < < < < < < < < < < < < < < < < < < ",
"< < < < < < < < < < < < < < < < < < < < < < < < < < < < < < < < < < < < < < < < < < < < < < < < < < < < < < < < < < < < < < < < ",
"< < < < < < < < < < < < < < < < < < < < < < < < < < < < < < < < < < < < < < < < < < < < < < < < < < < < < < < < < < < < < < < < ",
"< < < < < < < < < < < < < < < < < < < < < < < < < < < < < < < < < < < < < < < < < < < < < < < < < < < < < < < < < < < < < < < < ",
"< < < < < < < < < < < < < < < < < < < < < < < < < < < < < < < < < < < < < < < < < < < < < < < < < < < < < < < < < < < < < < < < ",
"< < < < < < < < < < < < < < < < < < < < < < < < < < < < < < < < < < < < < < < < < < < < < < < < < < < < < < < < < < < < < < < < ",
"< < < < < < < < < < < < < < < < < < < < < < < < < < < < < < < < < < < < < < < < < < < < < < < < < < < < < < < < < < < < < < < < ",
"< < < < < < < < < < < < < < < < < < < < < < < < < < < < < < < < < < < < < < < < < < < < < < < < < < < < < < < < < < < < < < < < ",
"< < < < < < < < < < < < < < < < < < < < < < < < < < < < < < < < < < < < < < < < < < < < < < < < < < < < < < < < < < < < < < < < ",
"< < < < < < < < < < < < < < < < < < < < < < < < < < < < < < < < < < < < < < < < < < < < < < < < < < < < < < < < < < < < < < < < ",
"< < < < < < < < < < < < < < < < < < < < < < < < < < < < < < < < < < < < < < < < < < < < < < < < < < < < < < < < < < < < < < < < ",
"< < < < < < < < < < < < < < < < < < < < < < < < < < < < < < < < < < < < < < < < < < < < < < < < < < < < < < < < < < < < < < < < ",
"< < < < < < < < < < < < < < < < < < < < < < < < < < < < < < < < < < < < < < < < < < < < < < < < < < < < < < < < < < < < < < < < ",
"< < < < < < < < < < < < < < < < < < < < < < < < < < < < < < < < < < < < < < < < < < < < < < < < < < < < < < < < < < < < < < < < ",
"< < < < < < < < < < < < < < < < < < < < < < < < < < < < < < < < < < < < < < < < < < < < < < < < < < < < < < < < < < < < < < < < ",
"< < < < < < < < < < < < < < < < < < < < < < < < < < < < < < < < < < < < < < < < < < < < < < < < < < < < < < < < < < < < < < < < ",
"< < < < < < < < < < < < < < < < < < < < < < < < < < < < < < < < < < < < < < < < < < < < < < < < < < < < < < < < < < < < < < < < ",
"< < < < < < < < < < < < < < < < < < < < < < < < < < < < < < < < < < < < < < < < < < < < < < < < < < < < < < < < < < < < < < < < ",
"< < < < < < < < < < < < < < < < < < < < < < < < < < < < < < < < < < < < < < < < < < < < < < < < < < < < < < < < < < < < < < < < ",
"< < < < < < < < < < < < < < < < < < < < < < < < < < < < < < < < < < < < < < < < < < < < < < < < < < < < < < < < < < < < < < < < ",
"< < < < < < < < < < < < < < < < < < < < < < < < < < < < < < < < < < < < < < < < < < < < < < < < < < < < < < < < < < < < < < < < ",
"< < < < < < < < < < < < < < < < < < < < < < < < < < < < < < < < < < < < < < < < < < < < < < < < < < < < < < < < < < < < < < < < ",
"< < < < < < < < < < < < < < < < < < < < < < < < < < < < < < < < < < < < < < < < < < < < < < < < < < < < < < < < < < < < < < < < ",
"< < < < < < < < < < < < < < < < < < < < < < < < < < < < < < < < < < < < < < < < < < < < < < < < < < < < < < < < < < < < < < < < ",
"< < < < < < < < < < < < < < < < < < < < < < < < < < < < < < < < < < < < < < < < < < < < < < < < < < < < < < < < < < < < < < < < ",
"< < < < < < < < < < < < < < < < < < < < < < < < < < < < < < < < < < < < < < < < < < < < < < < < < < < < < < < < < < < < < < < < ",
"< < < < < < < < < < < < < < < < < < < < < < < < < < < < < < < < < < < < < < < < < < < < < < < < < < < < < < < < < < < < < < < < ",
"< < < < < < < < < < < < < < < < < < < < < < < < < < < < < < < < < < < < < < < < < < < < < < < < < < < < < < < < < < < < < < < < ",
"< < < < < < < < < < < < < < < < < < < < < < < < < < < < < < < < < < < < < < < < < < < < < < < < < < < < < < < < < < < < < < < < "};
