/* XPM */
static char *tile[] = {
/* columns rows colors chars-per-pixel */
"64 64 152 2 ",
"   c #131417",
".  c #18171A",
"X  c #1A191D",
"o  c #1E1D23",
"O  c #201F24",
"+  c #242226",
"@  c #25242B",
"#  c #29272C",
"$  c #2B292E",
"%  c #262736",
"&  c #2D2B33",
"*  c #272938",
"=  c #2D2D3A",
"-  c #312E34",
";  c #312F39",
":  c #353136",
">  c #35323A",
",  c #39363C",
"<  c #3D393E",
"1  c #423D3D",
"2  c #45413C",
"3  c #49443F",
"4  c #363441",
"5  c #393641",
"6  c #3D3A43",
"7  c #3E3D49",
"8  c #423E45",
"9  c #423F49",
"0  c #454047",
"q  c #494345",
"w  c #45424B",
"e  c #4A454D",
"r  c #4E484F",
"t  c #514A4E",
"y  c #464551",
"u  c #4A4751",
"i  c #4D4953",
"p  c #4E4C59",
"a  c #524D54",
"s  c #584F54",
"d  c #524E59",
"f  c #575056",
"g  c #595156",
"h  c #56515B",
"j  c #5A545C",
"k  c #5F585F",
"l  c #60575B",
"z  c #62595F",
"x  c #565461",
"c  c #5B5661",
"v  c #5E5962",
"b  c #635C64",
"n  c #685F65",
"m  c #645E69",
"M  c #6B6166",
"N  c #6D6A66",
"B  c #66606B",
"V  c #6B636C",
"C  c #6F6B69",
"Z  c #71666D",
"A  c #73696E",
"S  c #787267",
"D  c #75726C",
"F  c #7C766C",
"G  c #7F786E",
"H  c #6B6571",
"J  c #6F6872",
"K  c #736A72",
"L  c #7A6D72",
"P  c #776F78",
"I  c #767470",
"U  c #7C7572",
"Y  c #7E7972",
"T  c #80776E",
"R  c #817A6F",
"E  c #827B72",
"W  c #807379",
"Q  c #827D7A",
"!  c #868175",
"~  c #898176",
"^  c #868279",
"/  c #96948E",
"(  c #99968F",
")  c #979590",
"_  c #999693",
"`  c #A7A39E",
"'  c #A8A4A3",
"]  c #AEA9A3",
"[  c #B3AEA7",
"{  c #B3AFAA",
"}  c #B6B2A6",
"|  c #B9B2A7",
" . c #B6B1AB",
".. c #BBB5AA",
"X. c #BEB9AE",
"o. c #B7B2B0",
"O. c #BAB5B2",
"+. c #BDB8B3",
"@. c #C1BBAF",
"#. c #C2BCB2",
"$. c #C5BFBA",
"%. c #C5C0B5",
"&. c #C8C2B7",
"*. c #C3C1BA",
"=. c #CCC5BB",
"-. c #CFC9BD",
";. c #D0C6BD",
":. c #D0C9BD",
">. c #CBC6C3",
",. c #CECAC0",
"<. c #D2CAC2",
"1. c #DCCFC4",
"2. c #D5D1C5",
"3. c #DFD4C7",
"4. c #D5D0CC",
"5. c #DCD3CD",
"6. c #E5DBC7",
"7. c #E9DCC7",
"8. c #E4D6CF",
"9. c #E6DCCA",
"0. c #EADECB",
"q. c #E3D9D0",
"w. c #E9DDD3",
"e. c #E6DFD8",
"r. c #E9DED9",
"t. c #EDE2CD",
"y. c #F1E4CF",
"u. c #EEE3D2",
"i. c #EDE2DA",
"p. c #EFE9DA",
"a. c #F2E6D2",
"s. c #F5E9D4",
"d. c #F9EBD6",
"f. c #F3E5DB",
"g. c #F8E7DF",
"h. c #F6EBDB",
"j. c #FAEDDA",
"k. c #F7F0DE",
"l. c #FEF2DD",
"z. c #EEE4E2",
"x. c #F3E6E3",
"c. c #F5EAE2",
"v. c #FAEDE2",
"b. c #F9EEE8",
"n. c #F7F1E0",
"m. c #FEF4E2",
"M. c #FFFAE4",
"N. c #FEF5EA",
"B. c #FFFDEB",
"V. c #FEF6F3",
"C. c #FFFEF2",
"Z. c #FFFFFB",
/* pixels */
"{ -.-.-.>.-.-.:.:.=.-.-.=.=.5.U $ 5 5 8 8 < , 8 8 6 8 t 0 8 9 $ ` <.$.;.<.<.;.=.&.&.-.=.=.#.4.E e j h l b j d j i j j d h d b : ",
"-.l.d.j.n.d.d.j.j.d.d.j.d.d.C.R o 1 1 8 8 , , 1 8 q 0 0 8 0 9 O #.v.x.j.v.j.d.d.s.d.d.d.c.g.V.Q , h a g b h h d i h h h b d d # ",
"-.d.a.y.y.h.p.s.d.g.j.c.x.f.m.F @ 8 < 8 5 < < 6 8 0 0 8 0 e 9 O | j.j.d.u.a.a.y.a.a.a.h.f.f.B.Y 8 j l b b h h h l d i h d y p # ",
"&.s.a.y.y.s.t.y.j.d.f.d.j.h.M.F + q 8 8 5 , > > > 6 8 8 0 8 6 o @.j.y.d.g.a.a.y.y.a.a.f.d.f.N.E 5 j l b h h b h p i j i u u b $ ",
"=.d.p.l.s.y.s.a.k.d.t.y.d.a.B.E + e q 8 , , , , , 1 8 q 0 7 6 O @.l.t.a.f.y.a.y.y.d.i.g.l.s.m.R 5 b l h h h b h d d j i i h d O ",
"=.d.y.s.y.y.d.s.k.a.y.t.y.t.B.E : r 8 6 , 8 < < , < q q 8 6 8 O X.l.y.a.f.y.a.s.a.p.a.s.k.s.B.R 9 n h h d b b j i i d i d u i $ ",
"=.s.y.s.t.s.s.k.k.s.t.t.y.t.m.G > e 8 8 , 6 8 q 8 8 q 8 q 7 8 + | j.a.f.d.d.d.d.h.u.y.y.y.h.M.G e b d l b l b c i h d d a u j $ ",
"-.d.d.d.y.t.s.k.t.k.t.t.s.t.M.R ; r 8 8 8 t t t q t t e 9 q t + X.d.a.w.s.d.a.s.d.s.d.s.y.p.B.F 9 b h b b h c h d h d f a f j $ ",
"-.d.j.k.h.s.n.s.t.s.t.p.p.s.M.G ; e e q t s s e 0 e i w q q e @ ..l.s.s.y.a.d.h.d.d.d.a.s.a.M.F i v v j x c a k c d f h h j h - ",
"-.l.j.h.h.d.j.h.d.s.s.y.s.y.B.E ; a s g g s i 7 0 e e 0 e e e @ ..l.3.a.d.s.d.h.u.a.y.t.s.a.B.Y 8 c d p v d u j i b h l n l l - ",
">.v.v.g.p.h.j.d.d.d.d.y.y.t.B.E & s s g j a i e 0 e e w e 8 t $ ..l.0.s.a.d.f.f.y.s.t.y.s.y.B.Y 7 b d d j u u d c b c b n b c $ ",
">.v.s.x.z.e.w.f.s.d.d.d.a.9.m.F * a a g j s w u e a e 9 8 6 t $ | j.x.s.t.a.0.t.s.s.s.a.a.t.M.G 9 m x d a y a k b j Z Z Z b b $ ",
">.c.g.f.g.f.u.a.h.h.s.s.s.y.B.S : g l g j d w e i e 0 0 q e l $ ..d.i.a.a.s.u.i.s.k.p.s.t.t.l.! y m p p s g j j b b n m n x x & ",
"=.z.f.z.a.y.a.a.i.t.s.s.t.9.m.F , l s a h i u i g a e s s g z : | j.u.p.s.a.t.f.t.t.t.t.t.t.M.G 9 m x h g z b n n v v b c p x % ",
"4.Z.V.m.l.M.B.l.l.l.B.l.l.l.Z.Q 1 z j b b b h h j a h k l j A : *.Z.C.B.B.B.l.B.l.l.l.l.l.l.C.^ a P B m A A L A Z b m V x h v $ ",
"E R F F R F R F F Y Y F F F ^ q @ - - $ & - & $ $ $ # & - $ : + F E Q R F E R Y G G R E S S ! 3 ; ; , ; , > < ; ; & > & & % $ o ",
"; ; % ; ; ; * ; > > < 6 > = 6 # _ #.| | X.X.| X.....X.]  . .*.F 8 i d 9 p y 9 7 9 y 9 9 y w i : / @.| | ......| ..| } | | | &.U ",
"y u 8 e e e 9 t g p f i w i k & #.B.l.l.B.B.l.l.B.l.l.f.j.w.Z.^ 9 n J V H B c b J b b v c c V > #.m.l.l.m.m.l.j.j.j.j.l.l.d.B.! ",
"9 9 9 e 8 8 0 a r 7 w 0 7 0 h $ | d.u.k.k.k.y.d.N.s.y.t.0.0.m.E 9 V m b x c p m b d d p p i v > } l.a.d.g.f.d.a.y.a.s.a.s.t.k.R ",
"e w e 0 6 0 0 0 r w w 0 6 0 y @ X.k.y.d.s.d.h.h.l.d.y.y.s.s.m.F 9 Z m m c b v m h x p i i d M : | l.s.d.h.f.d.d.d.a.a.s.s.y.m.R ",
"0 r w 7 8 6 e e 0 0 w w 0 q s $ ..l.s.s.s.s.s.s.n.k.s.s.s.t.k.R a m n m m Z v v x c a d h j M : | v.f.d.f.y.d.d.k.t.a.k.d.d.B.! ",
"w w 0 w 6 8 0 0 0 w i e r e r $ ..l.s.d.d.s.d.p.k.a.y.s.y.t.l.R 9 Z V V m b v h x x c j h f U , | m.f.d.s.y.s.s.s.y.a.l.a.y.M.R ",
"y w w 0 6 8 q 0 0 e w 0 r w i $ ..l.s.s.p.s.s.s.y.k.y.y.y.t.m.E i B Z n v b x x n x c d j M L > | v.g.y.y.y.s.a.y.s.a.f.f.f.m.R ",
"u e 0 0 8 0 e 0 0 0 r r r w r # ..l.s.d.k.s.y.t.a.t.s.y.y.t.m.E 9 m m b x v x v v j d v M b B : | m.d.d.s.t.t.t.y.s.f.w.a.d.m.F ",
"w w 0 0 0 0 0 w q 0 r r w r i # ..l.l.k.d.y.a.s.s.y.s.s.a.y.B.R 9 Z b m v v b v v v b M m c B : } l.s.s.s.y.t.t.s.s.n.m.d.a.l.R ",
"a 0 6 7 w 6 6 0 w w e q r e g $ ..l.y.d.k.k.d.s.y.y.s.k.0.r.g.M a K v c d x x m J V L M n c V , } d.y.s.s.s.s.y.t.y.h.k.s.a.M.E ",
"i 7 6 0 0 < 6 q r w e r w r h $ X.l.t.y.s.s.s.s.a.t.y.d.x.i.f.Z h J x x c c b n V V B B V m V : } l.y.s.d.k.d.t.t.s.h.s.h.a.m.R ",
"7 7 0 7 8 8 0 r t w r r r a f $ X.l.y.s.k.p.k.k.k.s.s.j.x.f.N.E h V v v v m n v C H V B B V B = X.l.t.y.d.s.s.s.s.y.k.i.i.a.m.F ",
"0 7 7 6 6 6 < w e e r i a r p $ ..M.k.d.s.s.s.s.l.k.d.h.c.f.m.E 9 B v v h v v V K B B B B m m = ..l.s.s.k.k.y.p.d.d.d.k.f.f.l.S ",
"5 6 < < , < 1 q q e r w w r f $ | d.t.y.t.t.t.s.t.a.a.y.x.8.s.U d m x x d v Z J v B B C m m m & X.l.t.t.s.y.t.t.t.t.y.g.6.w.d.S ",
"6 0 7 8 9 e t e i r r w a a f $ %.B.l.M.l.l.M.M.B.B.B.M.N.N.C.! x P n V V L W J H K I H m H H - %.B.M.M.M.m.m.l.l.m.j.m.N.l.C.^ ",
"% O O O @ @ @ + # # @ + # @ @ X F R G G F F G R G E Y Q R R Q 3 > 4 ; 1 4 , 1 1 > > > ; ; & > @ C G G G R G F E F F Y U E U E 2 ",
"` %...X...X.+.X...| ....X.| *.F , 0 6 , = , 4 4 4 8 0 6 0 r p ; _ #.| .... .'  .X.X.} | X.| %.C * 5 7 5 6 , 7 9 7 6 6 4 > = * o ",
":.l.d.l.l.l.l.l.m.m.m.l.m.l.B.Q 9 M j h d p p f d v v b V V V : #.m.l.j.N.m.j.m.l.l.d.l.m.m.B.F 7 j j c h j j h h h p y p u p @ ",
"=.d.t.t.k.y.t.y.s.x.x.f.j.f.m.F 9 h i p i i i a p i p h c j x = [ d.7.6.t.t.t.a.t.a.f.s.h.p.B.! 6 j h p p a s p d i y i a i i + ",
"=.s.t.y.s.s.s.y.s.d.j.g.d.j.B.R 5 d h f a i a a i e i p j p h & @.j.a.y.f.a.t.9.u.d.h.d.k.y.B.R 4 h i p f f p p i i i d i e h $ ",
"-.d.t.t.t.y.p.k.a.j.h.d.c.c.m.U 9 h d j i f j i 0 e i f j h j & X.l.y.s.d.f.9.0.v.h.c.v.n.h.B.E 6 h i h h i a s g p i u 9 w i @ ",
"-.l.s.s.a.t.s.s.a.a.y.s.f.8.m.U 5 d g d p g h w w p e s k h c & X.l.d.g.g.s.d.s.f.d.j.v.v.h.B.Y 6 j h g i i h h h u y w 0 w y + ",
"=.k.k.y.y.a.d.s.a.d.j.k.y.1.m.R > d a i a p a y w a e f i i h $ } l.f.f.h.g.a.y.a.d.d.s.h.f.B.F 8 h h i a h g h d i w w e s l @ ",
"=.l.k.y.a.t.y.s.h.s.s.s.s.s.N.E 5 j a h a a h w e a i i i i p $ | d.f.d.y.h.v.j.q.0.s.d.a.t.B.G 8 j a d i i h a d i 6 e i a d + ",
":.l.s.y.y.t.y.p.s.s.d.d.d.y.B.F > h i j a d g y r i w r e r f $ @.d.a.d.a.a.g.v.8.r.n.f.a.t.l.E = p i a i f f p h w 0 s i i u @ ",
"=.d.t.t.y.s.s.s.s.k.s.k.d.y.M.G 6 j g g a p i 7 w i r i e a j $ | d.s.d.d.f.y.g.j.d.f.p.t.t.B.Y = y e a g j p i d w u a u 0 w @ ",
"=.d.t.t.s.s.k.k.y.s.s.d.l.s.B.Y 5 n b k a y w y e w w f f a h $ | d.s.d.a.y.w.u.f.f.s.a.k.t.B.G * r e f f i i y w w w w 9 0 i + ",
"&.s.s.t.s.s.d.s.s.s.y.s.s.a.B.G 8 n l d i u u e e e r g i i j - | d.s.d.v.g.a.f.w.s.s.s.k.t.l.F = e r a a p w w w w u w 0 e w + ",
"=.s.t.s.k.k.s.t.t.s.p.s.u.a.B.E 9 n h y i i a s a w r a a i j - ..l.k.y.j.g.g.d.z.f.d.s.s.a.B.R & r t a p i i r w r a i i 0 w @ ",
"&.t.6.t.s.s.t.t.t.t.t.t.t.u.B.Y 4 v d a h i d g y w w i a f z : } l.t.a.s.0.0.f.t.t.p.u.t.6.l.F > g a s 0 w a i w e e e w 7 0 + ",
"2.M.l.B.M.l.k.l.M.M.l.l.M.k.B.E 9 b h c k x v j i w e a g l K : *.B.m.B.B.N.m.n.N.N.c.l.m.d.B.! 6 j a e w f h i i a i a i 0 a @ ",
"G G G E G S G R G R R G F F ~ q & & & $ & @ $ & + @ @ $ $ : : O S Y E E R E F U W U U R F F ! 2 + $ @ + + # $ $ @ # $ $ $ @ @ . ",
"> - : & : 2 q q 8 8 7 8 8 8 9 - ( ..| X.| X...+.+... .[ | } +.S 5 9 7 w 6 5 0 * * 4 < = = > 4 + ) @.| @.X...X.| ..X.| | | | &.F ",
"u i r r g k l n M b n M v n b - @.m.j.l.l.l.m.N.m.j.r.v.l.l.B.Q 7 v v d p j p y a j i i i p h $ #.B.M.l.d.l.l.l.l.m.l.d.k.d.B.! ",
"e 6 9 w e g j h j k b h d b h # | d.s.a.h.d.j.j.g.f.i.f.d.a.M.R 6 v a y p y y i i y r w i f a $ ..d.t.s.s.p.u.t.s.a.p.y.a.i.l.R ",
"6 0 q e t g j f k n b d a a d % | s.t.s.h.c.c.c.d.d.f.a.d.a.B.F 6 h p p p i y e w i r i a r i @ ..k.t.s.s.a.s.h.d.h.s.0.g.d.m.F ",
"y q q i g g h j b v x p u j x & | d.y.t.k.j.c.f.d.s.g.d.d.s.M.R < k a p i e e r f i r r i i f @ +.B.a.a.j.g.g.h.s.p.d.s.s.h.m.F ",
"r e w r i i h a d h p y p a p @ ..l.y.p.j.s.d.d.f.a.f.g.d.y.m.F < h i a y e p r i e e r r f i $ | l.w.g.g.d.d.y.t.9.s.t.s.d.m.F ",
"i i q e r r g h d a i u i i u @ X.l.y.y.a.s.s.y.a.f.a.d.d.t.m.F > i r w e i r r f i y e r i p $  .M.n.v.h.j.j.h.u.p.a.d.s.y.M.R ",
"j f e w r a f a i i d i u y u @ X.M.k.s.s.a.a.y.a.y.y.a.s.t.l.F > p u i i i i f i i y r f a i @ @.m.a.a.d.d.h.a.u.s.a.t.s.t.M.E ",
"j p e r r a f a i g a i d i a # @.l.d.s.t.a.d.s.p.y.y.s.y.t.m.F * i w i i i i i p r f i f w i @ X.l.y.s.d.d.d.k.a.s.s.p.t.t.l.G ",
"a y f p r r i i d i u i y w u o ..l.a.t.y.s.s.s.l.k.s.s.a.y.M.E * e 0 e 0 i r i y y e w p w i @ ..m.s.y.d.d.y.s.d.s.a.l.t.t.l.G ",
"p h f i i i w p a y y w 7 5 w o ..l.t.y.d.t.a.a.d.l.k.d.k.d.M.F = e e w e i w e w w w w w 7 i @ @.d.t.a.t.t.t.t.a.s.a.s.k.p.l.! ",
"h f a a k i 0 r w 9 9 9 w 7 y + O.g.y.y.t.a.f.d.d.d.s.a.a.d.B.F - t 0 e e y 0 0 w 0 w 7 6 0 e # @.d.t.s.t.t.p.s.y.a.s.d.s.a.l.! ",
"h h h h f y 7 r i w w 0 7 0 w O +.m.f.y.t.g.d.s.d.d.s.s.s.t.l.R = r e r t e 0 e 0 0 0 6 8 < t # | j.s.s.s.s.t.s.a.s.s.d.k.y.l.R ",
"j j h a i 0 w i 0 7 0 8 0 8 6 O X.l.x.e.a.d.y.s.y.y.s.h.y.u.m.F : t r t a 0 0 7 6 6 7 6 6 1 t # #.b.7.y.s.y.t.t.y.s.y.t.y.y.l.R ",
"c v h p h p h a y w 0 w e 7 0 o *.Z.B.B.l.l.m.M.M.B.B.B.m.v.C.! & i r i p w 7 r e 0 q 6 6 e l $ +.N.d.l.l.l.l.l.B.B.l.d.l.l.B.^ ",
"> & @ @ $ $ @ @ + @ + @ O o O   D ! F ! ! ! R ! ! R T F E F Q 1 . + + @ @ o o + + + + + X + @ X A E E E ! ! G G G ! F F G R ~ 2 "
};
