/* XPM */
static char * w_xpm[] = {
"64 64 140 2",
"  	c #FFFFFF",
". 	c #777777",
"+ 	c #000000",
"@ 	c #D2D2D2",
"# 	c #565656",
"$ 	c #E5E5E5",
"% 	c #F7F7F7",
"& 	c #0D0D0D",
"* 	c #EDEDED",
"= 	c #B0B0B0",
"- 	c #A8A8A8",
"; 	c #C1C1C1",
"> 	c #D8D8D8",
", 	c #585858",
"' 	c #696969",
") 	c #CACACA",
"! 	c #919191",
"~ 	c #9F9F9F",
"{ 	c #161616",
"] 	c #F3F3F3",
"^ 	c #9E9E9E",
"/ 	c #3D3D3D",
"( 	c #FDFDFD",
"_ 	c #787878",
": 	c #CCCCCC",
"< 	c #EEEEEE",
"[ 	c #B2B2B2",
"} 	c #5C5C5C",
"| 	c #D9D9D9",
"1 	c #CBCBCB",
"2 	c #8F8F8F",
"3 	c #B1B1B1",
"4 	c #A2A2A2",
"5 	c #F8F8F8",
"6 	c #D7D7D7",
"7 	c #515151",
"8 	c #797979",
"9 	c #CDCDCD",
"0 	c #7A7A7A",
"a 	c #F6F6F6",
"b 	c #9B9B9B",
"c 	c #EFEFEF",
"d 	c #757575",
"e 	c #C7C7C7",
"f 	c #606060",
"g 	c #DADADA",
"h 	c #AEAEAE",
"i 	c #E9E9E9",
"j 	c #909090",
"k 	c #FEFEFE",
"l 	c #A3A3A3",
"m 	c #1C1C1C",
"n 	c #D6D6D6",
"o 	c #494949",
"p 	c #404040",
"q 	c #FAFAFA",
"r 	c #FCFCFC",
"s 	c #CFCFCF",
"t 	c #7C7C7C",
"u 	c #F5F5F5",
"v 	c #959595",
"w 	c #E1E1E1",
"x 	c #F9F9F9",
"y 	c #F0F0F0",
"z 	c #B3B3B3",
"A 	c #707070",
"B 	c #C3C3C3",
"C 	c #BFBFBF",
"D 	c #636363",
"E 	c #DBDBDB",
"F 	c #ABABAB",
"G 	c #E6E6E6",
"H 	c #A6A6A6",
"I 	c #D4D4D4",
"J 	c #D0D0D0",
"K 	c #7E7E7E",
"L 	c #5A5A5A",
"M 	c #F4F4F4",
"N 	c #E4E4E4",
"O 	c #F2F2F2",
"P 	c #B4B4B4",
"Q 	c #6A6A6A",
"R 	c #FBFBFB",
"S 	c #686868",
"T 	c #E3E3E3",
"U 	c #A7A7A7",
"V 	c #222222",
"W 	c #A0A0A0",
"X 	c #D1D1D1",
"Y 	c #353535",
"Z 	c #7D7D7D",
"` 	c #7F7F7F",
" .	c #898989",
"..	c #B5B5B5",
"+.	c #A9A9A9",
"@.	c #666666",
"#.	c #BBBBBB",
"$.	c #C2C2C2",
"%.	c #DCDCDC",
"&.	c #DFDFDF",
"*.	c #929292",
"=.	c #AAAAAA",
"-.	c #2A2A2A",
";.	c #D3D3D3",
">.	c #808080",
",.	c #838383",
"'.	c #B6B6B6",
").	c #B7B7B7",
"!.	c #6E6E6E",
"~.	c #DDDDDD",
"{.	c #262626",
"].	c #A1A1A1",
"^.	c #D5D5D5",
"/.	c #828282",
"(.	c #5D5D5D",
"_.	c #717171",
":.	c #DEDEDE",
"<.	c #ADADAD",
"[.	c #5F5F5F",
"}.	c #767676",
"|.	c #B9B9B9",
"1.	c #555555",
"2.	c #9D9D9D",
"3.	c #AFAFAF",
"4.	c #C9C9C9",
"5.	c #818181",
"6.	c #858585",
"7.	c #EBEBEB",
"8.	c #E0E0E0",
"9.	c #8B8B8B",
"0.	c #4F4F4F",
"a.	c #9A9A9A",
"b.	c #2E2E2E",
"c.	c #868686",
"d.	c #BABABA",
"e.	c #A5A5A5",
"f.	c #969696",
"g.	c #C4C4C4",
"h.	c #888888",
"i.	c #E7E7E7",
"                                                                                                                                ",
"                                                                                                                                ",
"                                                                                                                                ",
"                                                                                                                                ",
"                                                                                                                                ",
"                                                                                                                                ",
"                                                                                                                                ",
"                                                                                                                                ",
"                                                                                                                                ",
"                                                                                                                                ",
"                                                                                                                                ",
"                                                                                                                                ",
"                                                                                                                                ",
"                                                                                                                                ",
"        . + + + + + @                                     # + + + + + + $                                   % & + + + + + *     ",
"        = + + + + + -                                   * + + + + + + + ;                                   > + + + + + ,       ",
"        > + + + + + '                                   ) + + + + + + + !                                   = + + + + + ~       ",
"        % { + + + + + ]                                 ^ + + + + + + + / (                                 _ + + + + + :       ",
"          _ + + + + + @                                 # + + + + + + + + $                               % { + + + + + <       ",
"          [ + + + + + -                               * + + + + + + + + + ;                               > + + + + + }         ",
"          | + + + + + '                               1 + + + + 2 + + + + !                               3 + + + + + 4         ",
"          5 { + + + + + ]                             ~ + + + + 6 7 + + + / (                             8 + + + + + 9         ",
"            0 + + + + + @                             , + + + & a b + + + + $                           5 { + + + + + c         ",
"            [ + + + + + -                           * + + + + d   e + + + + ;                           | + + + + + f           ",
"            g + + + + + '                           1 + + + + h   i + + + + j k k                       [ + + + + + l           ",
"            5 m + + + + + ]                         ~ + + + + n   k o + + + p q r k                     0 + + + + + s           ",
"              t + + + + + @                         , + + + + u     v + + + + w x (                   5 { + + + + + y           ",
"              z + + + + + -                       < + + + + A       B + + + + C x q                   g + + + + + D             ",
"              E + + + + + '                       1 + + + + F       G + + + + ! 5 x k                 [ + + + + + H             ",
"              x m + + + + + ]                     ~ + + + + I       k / + + + p 5 q k   k             t + + + + + J             ",
"                K + + + + + @                     L + + + + M         j + + + + N r k k ( k         x m + + + + + O             ",
"                P + + + + + -                   < + + + + Q           C + + + + ; k k k R q r k     g + + + + + S               ",
"                E + + + + + '                   1 + + + + -           T + + + + !       R 5 (       z + + + + + U               ",
"                x V + + + + + ]                 W + + + + X           r Y + + + p k     k k         Z + + + + + @               ",
"                  ` + + + + + @                 } + + + + O              .+ + + + G               x m + + + + + ]               ",
"                  ..+ + + + + +.              < + + + + @.              #.+ + + + $.              E + + + + + Q                 ",
"                  %.+ + + + + Q               : + + + + H               &.+ + + + *.              P + + + + + =.                ",
"                  q V + + + + + ]             W + + + + J               R -.+ + + p k             K + + + + + ;.                ",
"                    >.+ + + + + @             } + + + + y                 ,.+ + + + G           x m + + + + + M                 ",
"                    '.+ + + + + +.          < + + + + f                   ).+ + + + $.          E + + + + + !.                  ",
"                    ~.+ + + + + Q           9 + + + + l                   %.+ + + + *.          ..+ + + + + F                   ",
"                    q {.+ + + + + ]         ].+ + + + 9                   x m + + + p k         ` + + + + + ^.                  ",
"                      /.+ + + + + @         (.+ + + + <                     Z + + + + G       q V + + + + + u                   ",
"                      ).+ + + + + +.      < + + + + L                       z + + + + $.      %.+ + + + + _.                    ",
"                      :.+ + + + + Q       9 + + + + ~                       | + + + + *.      '.+ + + + + <.                    ",
"                      R {.+ + + + + ]     4 + + + + 1                       % & + + + p k     >.+ + + + + n                     ",
"                        ,.+ + + + + @     [.+ + + + *                         }.+ + + + G   q V + + + + & a                     ",
"                        |.+ + + + + +.  c + + + + 1.                          h + + + + $.  %.+ + + + + d                       ",
"                        :.+ + + + + Q   9 + + + + 2.                          n + + + + *.  '.+ + + + + 3.                      ",
"                        R -.+ + + + + ] 4 + + + + 4.                          u + + + + p k 5.+ + + + + 6                       ",
"                          6.+ + + + + @ [.+ + + + 7.                            !.+ + + + 8.{.+ + + + & %                       ",
"                          |.+ + + + + 9.+ + + + 0.                              =.+ + + + 9.+ + + + + .                         ",
"                          &.+ + + + + + + + + + a.                              @ + + + + + + + + + + 3                         ",
"                          R b.+ + + + + + + + + e                               ] + + + + + + + + + + >                         ",
"                            c.+ + + + + + + + + i                                 @.+ + + + + + + + { %                         ",
"                            d.+ + + + + + + + o k                                 e.+ + + + + + + + 0                           ",
"                            8.+ + + + + + + + f.                                  s + + + + + + + + [                           ",
"                            R b.+ + + + + + + g.                                  c + + + + + + + + g                           ",
"                              h.+ + + + + + + i.                                    (.+ + + + + + m 5                           ",
"                                                                                                                                ",
"                                                                                                                                ",
"                                                                                                                                ",
"                                                                                                                                ",
"                                                                                                                                "};
